<?xml version="1.0" standalone="no"?>
<!DOCTYPE svg PUBLIC "-//W3C//DTD SVG 1.1//EN" "http://www.w3.org/Graphics/SVG/1.1/DTD/svg11.dtd" >
<svg xmlns="http://www.w3.org/2000/svg" xmlns:xlink="http://www.w3.org/1999/xlink" version="1.1">
<metadata>
Created by FontForge 20161013 at Sat Dec  3 12:15:26 2016
 By ,,,
Copyright 2016 The Saira Project Authors (omnibus.type@gmail.com), with reserved font name "Saira".
</metadata>
<defs>
<font id="SairaExtraCondensed-Bold" horiz-adv-x="0" >
  <font-face 
    font-family="Saira ExtraCondensed ExCond"
    font-weight="700"
    font-stretch="extra-condensed"
    units-per-em="1000"
    panose-1="0 0 8 8 0 0 0 0 0 0"
    ascent="800"
    descent="-200"
    x-height="510"
    cap-height="688"
    bbox="-428 -386 828 1106"
    underline-thickness="50"
    underline-position="-150"
    unicode-range="U+000D-FB02"
  />
<missing-glyph horiz-adv-x="500" 
d="M0 0v700h500v-700h-500zM450 650h-400v-600h400v600zM229 278q0 29 13.5 48t40.5 41q28 23 42 43.5t14 54.5q0 31 -19 59t-70 28q-58 0 -78 -33.5t-20 -66.5v-28h-49q-4 14 -4 31q0 23 10.5 56t44 62t96.5 29t94.5 -28t40 -58t8.5 -49q0 -45 -18.5 -74t-48.5 -55
q-22 -18 -33 -33t-11 -37v-53h-53v63zM225 99v70h60v-70h-60z" />
    <glyph glyph-name="fi" unicode="fi" horiz-adv-x="455" 
d="M64 414h-51v96h51v38q0 93 14 132.5t49.5 51t119.5 11.5v-85q-33 0 -46.5 -5t-18.5 -21t-5 -55v-67h70v-96h-70v-414h-113v414zM302 630v113h115v-113h-115zM303 0v510h113v-510h-113z" />
    <glyph glyph-name="fl" unicode="fl" horiz-adv-x="455" 
d="M64 414h-51v96h51v38q0 93 14 132.5t49.5 51t119.5 11.5v-85q-33 0 -46.5 -5t-18.5 -21t-5 -55v-67h70v-96h-70v-414h-113v414zM303 0v743h113v-743h-113z" />
    <glyph glyph-name="f_f" unicode="ff" horiz-adv-x="528" 
d="M64 414h-51v96h51v38q0 93 14 132.5t49.5 51t119.5 11.5v-85q-33 0 -46.5 -5t-18.5 -21t-5 -55v-67h70v-96h-70v-414h-113v414zM328 414h-51v96h51v38q0 93 14 132.5t49.5 51t119.5 11.5v-85q-33 0 -46.5 -5t-18.5 -21t-5 -55v-67h70v-96h-70v-414h-113v414z" />
    <glyph glyph-name=".notdef" horiz-adv-x="500" 
d="M0 0v700h500v-700h-500zM450 650h-400v-600h400v600zM229 278q0 29 13.5 48t40.5 41q28 23 42 43.5t14 54.5q0 31 -19 59t-70 28q-58 0 -78 -33.5t-20 -66.5v-28h-49q-4 14 -4 31q0 23 10.5 56t44 62t96.5 29t94.5 -28t40 -58t8.5 -49q0 -45 -18.5 -74t-48.5 -55
q-22 -18 -33 -33t-11 -37v-53h-53v63zM225 99v70h60v-70h-60z" />
    <glyph glyph-name=".null" 
 />
    <glyph glyph-name="nonmarkingreturn" unicode="&#xd;" horiz-adv-x="150" 
 />
    <glyph glyph-name="NULL" 
 />
    <glyph glyph-name="NULL" 
 />
    <glyph glyph-name="space" unicode=" " horiz-adv-x="150" 
 />
    <glyph glyph-name="exclam" unicode="!" horiz-adv-x="227" 
d="M44 617v71h139v-71q0 -36 -10 -153.5t-24 -254.5h-71q-34 342 -34 408zM52 0v121h123v-121h-123z" />
    <glyph glyph-name="quotedbl" unicode="&#x22;" horiz-adv-x="339" 
d="M53 430l-13 202v56h108v-56l-12 -202h-83zM203 430l-12 202v56h108v-56l-13 -202h-83z" />
    <glyph glyph-name="numbersign" unicode="#" horiz-adv-x="487" 
d="M249 0l19 184h-89l-19 -184h-81l19 184h-59v83h66l16 152h-65v83h73l19 186h82l-19 -186h88l20 186h81l-19 -186h66v-83h-74l-16 -152h73v-83h-80l-19 -184h-82zM292 419h-89l-17 -152h89z" />
    <glyph glyph-name="dollar" unicode="$" horiz-adv-x="354" 
d="M140 72q-58 4 -96 15v92q18 -4 46 -6t50 -2q38 0 53.5 11.5t15.5 48.5q0 28 -3 40t-9.5 16t-21.5 7l-56 12q-34 8 -52 24t-25.5 46.5t-7.5 82.5q0 72 26.5 109.5t79.5 46.5v81h85v-79q21 -1 42 -5t32 -9v-92q-52 9 -91 9q-35 -1 -47.5 -12.5t-12.5 -43.5q0 -26 2.5 -37.5
t8.5 -15.5t20 -7l57 -11q28 -6 46 -18t28.5 -43.5t10.5 -90.5q0 -77 -23.5 -115.5t-72.5 -49.5v-84h-85v80z" />
    <glyph glyph-name="percent" unicode="%" horiz-adv-x="652" 
d="M81.5 328.5q-24.5 16.5 -32 55t-7.5 119.5t7.5 120t32 56t76.5 17t76.5 -17t32 -56t7.5 -120t-7.5 -119.5t-32 -55t-76.5 -16.5t-76.5 16.5zM131 0l321 688h69l-320 -688h-70zM180.5 383.5q6.5 6.5 8.5 31.5t2 88q0 64 -2 89t-8.5 32t-22.5 7t-22.5 -7t-9 -32.5
t-2.5 -88.5q0 -62 2.5 -87.5t9 -32t22.5 -6.5t22.5 6.5zM418.5 8.5q-24.5 16.5 -32 55t-7.5 119.5t7.5 120t32 56t76.5 17t76.5 -17t32 -56t7.5 -120t-7.5 -119.5t-32 -55t-76.5 -16.5t-76.5 16.5zM517.5 63.5q6.5 6.5 8.5 31.5t2 88q0 64 -2 89t-8.5 32t-22.5 7t-22.5 -7
t-8.5 -32t-2 -89q0 -63 2 -88t8.5 -31.5t22.5 -6.5t22.5 6.5z" />
    <glyph glyph-name="ampersand" unicode="&#x26;" horiz-adv-x="461" 
d="M448 397v-99h-64v-289q-35 -7 -80.5 -12t-80.5 -5q-70 0 -110.5 18.5t-59 59.5t-18.5 111q0 82 20.5 118.5t65.5 49.5v4q-41 13 -61 52t-20 114q0 99 45.5 138t145.5 39q33 0 75.5 -5t77.5 -12v-89q-56 7 -116 7q-53 0 -75.5 -7t-30 -27t-7.5 -66q0 -57 10.5 -78.5
t46.5 -21.5h20v-99h-20q-26 0 -39.5 -8.5t-19 -30.5t-5.5 -66q0 -47 8 -68t27.5 -27.5t62.5 -6.5q16 0 25 1v305h177z" />
    <glyph glyph-name="quotesingle" unicode="'" horiz-adv-x="188" 
d="M53 430l-13 202v56h108v-56l-12 -202h-83z" />
    <glyph glyph-name="parenleft" unicode="(" horiz-adv-x="257" 
d="M80.5 -23q-18.5 47 -27.5 119t-9 201q0 128 9.5 202t28.5 122.5t60 121.5h96q-33 -65 -48 -106.5t-23.5 -119.5t-8.5 -220t8.5 -220t23.5 -119.5t48 -107.5h-96q-43 80 -61.5 127z" />
    <glyph glyph-name="parenright" unicode=")" horiz-adv-x="257" 
d="M66.5 -42.5q14.5 41.5 23 119.5t8.5 220t-8.5 220t-23 119.5t-47.5 106.5h96q41 -73 60 -121.5t28.5 -122.5t9.5 -202t-9.5 -200.5t-27.5 -119t-61 -127.5h-96q33 66 47.5 107.5z" />
    <glyph glyph-name="asterisk" unicode="*" horiz-adv-x="390" 
d="M221 488l10 -109h-71l9 109l-92 -64l-35 62l99 47l-99 47l35 62l92 -63l-9 109h71l-10 -109l92 64l35 -63l-100 -47l101 -47l-36 -62z" />
    <glyph glyph-name="plus" unicode="+" horiz-adv-x="447" 
d="M174 82v121h-122v100h122v122h99v-122h121v-100h-121v-121h-99z" />
    <glyph glyph-name="comma" unicode="," horiz-adv-x="218" 
d="M73 -84q10 7 13 22t3 47v15h-43v121h125v-89q0 -74 -9 -110.5t-36 -52.5t-84 -16v56q21 0 31 7z" />
    <glyph glyph-name="hyphen" unicode="-" horiz-adv-x="270" 
d="M48 233v104h174v-104h-174z" />
    <glyph glyph-name="period" unicode="." horiz-adv-x="218" 
d="M47 0v121h124v-121h-124z" />
    <glyph glyph-name="slash" unicode="/" horiz-adv-x="290" 
d="M21 -55l147 798h101l-146 -798h-102z" />
    <glyph glyph-name="zero" unicode="0" horiz-adv-x="400" 
d="M84.5 22q-34.5 30 -43.5 97.5t-9 224.5t9 224.5t43.5 97.5t115.5 30q82 0 116.5 -30t43 -97t8.5 -225q0 -157 -9 -224.5t-43.5 -97.5t-115.5 -30t-115.5 30zM235.5 113q9.5 12 12.5 59t3 172t-3 172t-12.5 59t-35.5 12t-35.5 -12t-12.5 -58t-3 -173t3 -173t12.5 -58
t35.5 -12t35.5 12z" />
    <glyph glyph-name="one" unicode="1" horiz-adv-x="267" 
d="M101 0v546l-85 -36v114l113 64h93v-688h-121z" />
    <glyph glyph-name="two" unicode="2" horiz-adv-x="378" 
d="M149 109h200v-109h-320v82q0 101 3 143t15.5 68t43.5 46l93 61q18 12 27 21.5t13.5 27t4.5 48.5q0 42 -6 60.5t-21.5 24t-50.5 5.5q-41 0 -115 -7v101q26 7 67.5 11t79.5 4q54 0 88 -11.5t56 -53t22 -125.5q0 -61 -9.5 -97.5t-24.5 -55t-39 -34.5l-97 -64
q-10 -6 -15.5 -11.5t-8.5 -14.5q-4 -11 -5 -37t-1 -64v-19z" />
    <glyph glyph-name="three" unicode="3" horiz-adv-x="362" 
d="M86.5 -3q-41.5 5 -71.5 12v99q74 -7 114 -7q36 0 53 6t24.5 25t7.5 61q0 43 -6 64.5t-19.5 29t-39.5 7.5h-82v108h82q23 0 35.5 7t18 27t5.5 61q0 42 -6.5 60t-23 24t-54.5 6q-45 0 -108 -7v100q33 7 73.5 11.5t71.5 4.5q59 0 95 -15.5t54.5 -54.5t18.5 -107
q0 -75 -19.5 -114.5t-59.5 -51.5v-4q44 -12 64.5 -49t20.5 -119q0 -70 -17.5 -111t-55 -59.5t-101.5 -18.5q-33 0 -74.5 5z" />
    <glyph glyph-name="four" unicode="4" horiz-adv-x="393" 
d="M212 0v140h-196v94l102 454h123l-111 -439h83l30 190h89v-190h48v-109h-48v-140h-120z" />
    <glyph glyph-name="five" unicode="5" horiz-adv-x="378" 
d="M144 101q42 0 60 7.5t24.5 30t6.5 73.5q0 54 -6 75.5t-24 28.5t-63 7q-48 0 -101 -8v373h292v-109h-180v-154q23 7 59 7q57 0 88.5 -24t43 -68.5t11.5 -114.5q0 -90 -14 -139.5t-51 -71.5t-107 -22q-33 0 -74 5t-71 12v99q68 -7 106 -7z" />
    <glyph glyph-name="six" unicode="6" horiz-adv-x="392" 
d="M124.5 1.5q-29.5 9.5 -49 36t-31.5 78.5q-12 53 -12 227q0 175 20 236q21 65 60 91t112 26q27 0 62 -5.5t63 -13.5v-100q-53 10 -103 10q-47 0 -66.5 -14t-25 -53.5t-5.5 -135.5h9q7 20 29 34.5t59 14.5q45 0 70 -13.5t38 -57t13 -132.5q0 -94 -13.5 -144.5t-48 -72
t-102.5 -21.5q-49 0 -78.5 9.5zM234 106.5q10 6.5 14 29.5t4 76q0 55 -4 77.5t-13.5 28.5t-33.5 6t-34 -7t-13.5 -27.5t-3.5 -67.5q0 -57 4 -82t14 -32.5t33 -7.5t33 6.5z" />
    <glyph glyph-name="seven" unicode="7" horiz-adv-x="352" 
d="M50 0l167 579h-200v109h324v-96l-167 -592h-124z" />
    <glyph glyph-name="eight" unicode="8" horiz-adv-x="404" 
d="M99.5 10q-37.5 18 -54.5 59t-17 112q0 83 20 119t64 49v4q-40 12 -59 51t-19 115q0 69 18 107.5t54 54t96 15.5t96 -15.5t54 -54t18 -107.5q0 -76 -19 -115t-59 -51v-4q45 -13 65 -49t20 -119q0 -71 -17.5 -112t-55 -59t-102.5 -18t-102.5 18zM236 404.5
q10 6.5 13.5 25.5t3.5 64q0 46 -3.5 65.5t-13.5 26t-34 6.5t-34 -6.5t-13.5 -26t-3.5 -65.5q0 -45 3.5 -64t13.5 -25.5t34 -6.5t34 6.5zM236 103q11 7 15 27.5t4 65.5q0 47 -3.5 68t-14.5 27.5t-35 6.5t-35 -6.5t-14.5 -27.5t-3.5 -68q0 -45 4 -65.5t15 -27.5t34 -7t34 7z
" />
    <glyph glyph-name="nine" unicode="9" horiz-adv-x="392" 
d="M104.5 -2.5q-35.5 5.5 -61.5 13.5v100q52 -10 103 -10q47 0 66.5 14t25 53.5t5.5 135.5h-8q-9 -22 -31.5 -35.5t-57.5 -13.5q-45 0 -70 13.5t-38 57t-13 132.5q0 94 13.5 144.5t48 72t102.5 21.5q48 0 77.5 -8.5t49 -32.5t29.5 -70q15 -68 15 -240q0 -89 -5 -147.5
t-17 -94.5q-19 -60 -59 -85.5t-111 -25.5q-28 0 -63.5 5.5zM225 371q10 7 13.5 27.5t3.5 67.5q0 57 -4 82t-14 32.5t-33 7.5t-33 -6.5t-14 -29.5t-4 -76q0 -55 4 -77.5t13.5 -28.5t33.5 -6t34 7z" />
    <glyph glyph-name="colon" unicode=":" horiz-adv-x="218" 
d="M47 389v121h124v-121h-124zM47 0v121h124v-121h-124z" />
    <glyph glyph-name="semicolon" unicode=";" horiz-adv-x="218" 
d="M47 389v121h124v-121h-124zM73 -84q10 7 13 22t3 47v15h-43v121h125v-89q0 -74 -9 -110.5t-36 -52.5t-84 -16v56q21 0 31 7z" />
    <glyph glyph-name="less" unicode="&#x3c;" horiz-adv-x="448" 
d="M395 75l-342 127v102l342 128v-102l-220 -77l220 -77v-101z" />
    <glyph glyph-name="equal" unicode="=" horiz-adv-x="447" 
d="M52 289v100h342v-100h-342zM52 117v100h342v-100h-342z" />
    <glyph glyph-name="greater" unicode="&#x3e;" horiz-adv-x="448" 
d="M52 75v101l221 77l-221 77v102l343 -128v-102z" />
    <glyph glyph-name="question" unicode="?" horiz-adv-x="335" 
d="M79 301q0 47 8.5 67t32.5 37l13 10q21 15 31 26t14 27t4 46q0 45 -16 59t-60 14q-23 0 -79 -7v101q28 7 63.5 11t62.5 4q71 0 110 -35t39 -120q0 -74 -11.5 -108.5t-48.5 -64.5l-13 -10q-24 -19 -32.5 -29.5t-11 -23t-2.5 -41.5v-55h-104v92zM69 0v121h123v-121h-123z
" />
    <glyph glyph-name="at" unicode="@" horiz-adv-x="602" 
d="M123 -81.5q-50 26.5 -63 101.5t-13 274t13 274t63 101.5t180 26.5t180 -26.5t63 -101.5t13 -274q0 -106 -9.5 -151.5t-28.5 -56.5t-62 -11h-119l-4 52h-6q-6 -30 -25.5 -44.5t-44.5 -14.5q-47 0 -66 31t-19 101q0 74 21 103.5t75 29.5l40 -2l23 -2v24q0 40 -3.5 55.5
t-16 20.5t-42.5 5q-34 0 -79 -6v79q57 11 108 11q52 0 79 -16.5t38 -53t11 -103.5v-216h34q19 0 26.5 8t10.5 41.5t3 115.5q0 154 -5 216.5t-25 91.5t-69 36q-25 4 -101 4q-61 0 -89 -2q-55 -5 -77.5 -31.5t-27.5 -89.5t-5 -225q0 -165 6 -228t31.5 -89t90.5 -30
q17 -1 71 -1q99 0 126 3v-55q-22 -2 -126 -2q-130 0 -180 26.5zM320 163q8 7 11 24t3 52v26h-38q-18 0 -24 -10.5t-6 -46.5q0 -30 5.5 -41t24.5 -11q16 0 24 7z" />
    <glyph glyph-name="A" unicode="A" horiz-adv-x="422" 
d="M292 0l-23 151h-118l-23 -151h-119l113 688h178l114 -688h-122zM213 564h-6l-44 -307h94z" />
    <glyph glyph-name="B" unicode="B" horiz-adv-x="410" 
d="M43 688h188q75 0 111.5 -42.5t36.5 -130.5q0 -73 -20 -111.5t-63 -50.5v-4q48 -12 68.5 -49.5t20.5 -115.5q0 -91 -36 -137.5t-119 -46.5h-187v688zM250.5 419q12.5 18 12.5 71q0 39 -4.5 57.5t-16.5 25t-37 6.5h-43v-178h43q33 0 45.5 18zM244 116q12 7 16 26t4 60
q0 40 -5 59.5t-17 26.5t-36 7h-44v-186h44q26 0 38 7z" />
    <glyph glyph-name="C" unicode="C" horiz-adv-x="323" 
d="M258.5 -3.5q-26.5 -4.5 -49.5 -4.5q-79 0 -116 30.5t-49 102t-12 219.5q0 146 12.5 218.5t49.5 103t115 30.5q27 0 52.5 -4t38.5 -11v-101q-39 7 -69 7q-39 0 -54.5 -14.5t-20 -61.5t-4.5 -167t4.5 -167t20 -61.5t54.5 -14.5q38 0 71 7v-100q-17 -7 -43.5 -11.5z" />
    <glyph glyph-name="D" unicode="D" horiz-adv-x="416" 
d="M43 688h161q87 0 124 -29.5t46.5 -95t9.5 -219.5q0 -153 -9.5 -219t-46.5 -95.5t-124 -29.5h-161v688zM204 109q31 0 42 11.5t15 57.5t4 166t-4 166t-15 57.5t-42 11.5h-42v-470h42z" />
    <glyph glyph-name="E" unicode="E" horiz-adv-x="345" 
d="M43 0v688h274v-109h-153v-177h134v-109h-134v-184h153v-109h-274z" />
    <glyph glyph-name="F" unicode="F" horiz-adv-x="321" 
d="M43 0v688h261v-109h-140v-191h124v-109h-124v-279h-121z" />
    <glyph glyph-name="G" unicode="G" horiz-adv-x="408" 
d="M212 288v106h160v-381q-29 -10 -71 -15.5t-81 -5.5q-80 0 -119 28t-54 101.5t-15 222.5t16 222.5t58 101.5t126 28q32 0 71.5 -5.5t67.5 -13.5v-101q-71 11 -106 11q-56 0 -77 -12t-29 -60t-8 -171q0 -117 4.5 -165t18.5 -64.5t49 -16.5q25 0 41 4v186h-52z" />
    <glyph glyph-name="H" unicode="H" horiz-adv-x="436" 
d="M272 0v290h-108v-290h-121v688h121v-284h108v284h121v-688h-121z" />
    <glyph glyph-name="I" unicode="I" horiz-adv-x="210" 
d="M45 0v688h120v-688h-120z" />
    <glyph glyph-name="J" unicode="J" horiz-adv-x="245" 
d="M62 111q15 7 19.5 32t4.5 93v452h120v-390q0 -153 -11 -209t-48.5 -72t-140.5 -17v103q41 1 56 8z" />
    <glyph glyph-name="K" unicode="K" horiz-adv-x="410" 
d="M278 0l-80 291h-34v-291h-121v688h121v-282h34l82 282h123l-111 -332l112 -356h-126z" />
    <glyph glyph-name="L" unicode="L" horiz-adv-x="311" 
d="M43 0v688h121v-577h138v-111h-259z" />
    <glyph glyph-name="M" unicode="M" horiz-adv-x="611" 
d="M451 0v532h-7l-80 -532h-121l-78 532h-8v-532h-114v688h187l74 -507h7l74 507h182v-688h-116z" />
    <glyph glyph-name="N" unicode="N" horiz-adv-x="439" 
d="M289 0l-127 388h-4v-388h-115v688h114l119 -361h6v361h114v-688h-107z" />
    <glyph glyph-name="O" unicode="O" horiz-adv-x="423" 
d="M87.5 22q-36.5 30 -46 97.5t-9.5 224.5t9.5 224.5t46 97.5t123.5 30t124 -30t46.5 -97.5t9.5 -224.5t-9.5 -224.5t-46.5 -97.5t-124 -30t-123.5 30zM252 113q11 12 14.5 59t3.5 172t-3.5 172t-14.5 59t-41 12t-40.5 -12t-14.5 -59.5t-4 -171.5t4 -171.5t14.5 -59.5
t40.5 -12t41 12z" />
    <glyph glyph-name="P" unicode="P" horiz-adv-x="401" 
d="M43 688h185q67 0 101 -26t45 -74.5t11 -130.5q0 -79 -10.5 -127.5t-44.5 -76.5t-102 -28h-64v-225h-121v688zM208 334q26 0 37.5 9.5t15 33.5t3.5 80t-3.5 80t-15 33t-37.5 9h-44v-245h44z" />
    <glyph glyph-name="Q" unicode="Q" horiz-adv-x="423" 
d="M245 -5q-15 -3 -34 -3q-87 0 -123.5 30t-46 97.5t-9.5 224.5t9.5 224.5t46 97.5t123.5 30t124 -30t46.5 -97.5t9.5 -224.5q0 -144 -8 -210t-38 -100l81 -144v-5h-124zM252 113q11 12 14.5 59t3.5 172t-3.5 172t-14.5 59t-41 12t-40.5 -12t-14.5 -59.5t-4 -171.5t4 -171.5
t14.5 -59.5t40.5 -12t41 12z" />
    <glyph glyph-name="R" unicode="R" horiz-adv-x="419" 
d="M279 0l-58 245h-2h-55v-245h-121v688h189q67 0 100.5 -25t44.5 -71t11 -125q0 -78 -11 -124.5t-47 -70.5l73 -272h-124zM249.5 359.5q11.5 8.5 15 31.5t3.5 74t-3.5 74t-15 31.5t-37.5 8.5h-48v-228h48q26 0 37.5 8.5z" />
    <glyph glyph-name="S" unicode="S" horiz-adv-x="368" 
d="M103 -3.5q-41 4.5 -70 12.5v99q73 -7 113 -7q28 0 43 3.5t24 13.5q14 17 14 74q0 44 -3.5 62t-14.5 26.5t-40 14.5l-80 17q-38 8 -52 52t-14 128q0 81 20 125.5t57.5 61.5t96.5 17q45 0 81.5 -6t46.5 -10v-100q-10 2 -36.5 4.5t-56.5 2.5q-32 0 -49.5 -4.5t-25.5 -14.5
t-10.5 -26t-2.5 -46q0 -35 2.5 -50.5t10.5 -22.5t26 -11l69 -16q31 -6 51.5 -21t32.5 -52q11 -36 11 -110q0 -91 -18.5 -139t-54 -65t-95.5 -17q-35 0 -76 4.5z" />
    <glyph glyph-name="T" unicode="T" horiz-adv-x="349" 
d="M114 0v577h-107v111h335v-111h-107v-577h-121z" />
    <glyph glyph-name="U" unicode="U" horiz-adv-x="426" 
d="M387 688v-385q0 -137 -9 -196.5t-45 -87t-120 -27.5t-120 27.5t-45 87t-9 196.5v385h120v-432q0 -77 3 -106.5t13.5 -39t37.5 -9.5t37.5 9.5t13.5 38.5t3 107v432h120z" />
    <glyph glyph-name="V" unicode="V" horiz-adv-x="404" 
d="M113 0l-105 688h122l70 -558h9l68 558h119l-105 -688h-178z" />
    <glyph glyph-name="W" unicode="W" horiz-adv-x="643" 
d="M384 0l-60 502h-6l-59 -502h-168l-78 688h122l44 -557h7l64 557h147l66 -557h7l42 557h118l-78 -688h-168z" />
    <glyph glyph-name="X" unicode="X" horiz-adv-x="421" 
d="M285 0l-72 261h-8l-73 -261h-123l114 346l-112 342h126l71 -251h7l72 251h123l-112 -338l114 -350h-127z" />
    <glyph glyph-name="Y" unicode="Y" horiz-adv-x="387" 
d="M133 0v246l-134 442h121l72 -307h10l69 307h117l-134 -442v-246h-121z" />
    <glyph glyph-name="Z" unicode="Z" horiz-adv-x="362" 
d="M24 0v102l183 477h-178v109h307v-101l-184 -478h185v-109h-313z" />
    <glyph glyph-name="bracketleft" unicode="[" horiz-adv-x="261" 
d="M45 -150v893h188v-74l-76 -4v-736l76 -4v-75h-188z" />
    <glyph glyph-name="backslash" unicode="\" horiz-adv-x="290" 
d="M168 -55l-147 798h102l146 -798h-101z" />
    <glyph glyph-name="bracketright" unicode="]" horiz-adv-x="261" 
d="M28 -150v75l76 4v736l-76 4v74h189v-893h-189z" />
    <glyph glyph-name="asciicircum" unicode="^" horiz-adv-x="374" 
d="M257 489l-70 171l-71 -171h-101l121 261h101l121 -261h-101z" />
    <glyph glyph-name="underscore" unicode="_" horiz-adv-x="343" 
d="M0 -184v98h343v-98h-343z" />
    <glyph glyph-name="grave" unicode="`" horiz-adv-x="147" 
d="M55 598l-55 140v5h111l36 -140v-5h-92z" />
    <glyph glyph-name="a" unicode="a" horiz-adv-x="370" 
d="M43 28.5q-23 36.5 -23 118.5q0 58 11 91t36.5 48t71.5 15q37 0 81 -4v28q0 47 -5 66t-21 25t-55 6q-44 0 -98 -7v90q61 13 133 13q64 0 98 -18.5t47.5 -61.5t13.5 -122v-316h-107l-4 62h-7q-8 -36 -32.5 -53t-56.5 -17q-60 0 -83 36.5zM198 99q11 5 16 21q6 26 6 72v31
h-50q-25 0 -33.5 -13t-8.5 -54q0 -36 7.5 -49t33.5 -13q18 0 29 5z" />
    <glyph glyph-name="b" unicode="b" horiz-adv-x="390" 
d="M190 7.5q-24 15.5 -32 53.5h-8l-4 -61h-107v743h113v-289h8q16 64 88 64q47 0 71 -23.5t33 -79t9 -160.5q0 -108 -10 -163.5t-34.5 -77.5t-70.5 -22q-32 0 -56 15.5zM233 103q9 9 12 40t3 112t-3 112t-12 40t-33 9q-18 0 -28 -8t-14 -28q-6 -28 -6 -125q0 -40 1 -72
t4 -50q4 -22 14 -30.5t29 -8.5q24 0 33 9z" />
    <glyph glyph-name="c" unicode="c" horiz-adv-x="294" 
d="M178 -8q-64 0 -96 27.5t-42.5 82t-10.5 153.5q0 102 12 157.5t43.5 80.5t92.5 25q57 0 94 -12v-90q-38 6 -61 6q-32 0 -45 -10.5t-18 -44t-5 -112.5q0 -80 5 -113.5t18.5 -43.5t45.5 -10q23 0 63 6v-89q-46 -13 -96 -13z" />
    <glyph glyph-name="d" unicode="d" horiz-adv-x="390" 
d="M73.5 14q-24.5 22 -34.5 77.5t-10 163.5q0 105 9.5 160.5t33 79t70.5 23.5q37 0 58.5 -16t30.5 -48h7v289h113v-743h-107l-4 61h-7q-9 -38 -33 -53.5t-56 -15.5q-46 0 -70.5 22zM220 103q10 9 14 33q4 31 4 123q0 85 -4 109q-4 29 -14 38.5t-31 9.5q-23 0 -32 -9
t-12 -40.5t-3 -111.5t3 -111.5t12 -40.5t33 -9q20 0 30 9z" />
    <glyph glyph-name="e" unicode="e" horiz-adv-x="370" 
d="M341 221h-199q0 -64 4.5 -89.5t20 -34.5t54.5 -9q35 0 110 7v-89q-23 -6 -61 -10t-74 -4q-77 0 -112.5 26t-45 78.5t-9.5 157.5t9.5 157.5t44 79.5t108.5 27q72 0 103.5 -25t39 -75.5t7.5 -162.5v-34zM158.5 414.5q-9.5 -7.5 -13 -32.5t-3.5 -83h93v5q0 56 -3 79.5
t-12 31t-30 7.5q-22 0 -31.5 -7.5z" />
    <glyph glyph-name="f" unicode="f" horiz-adv-x="264" 
d="M64 414h-51v96h51v38q0 93 14 132.5t49.5 51t119.5 11.5v-85q-33 0 -46.5 -5t-18.5 -21t-5 -55v-67h70v-96h-70v-414h-113v414z" />
    <glyph glyph-name="g" unicode="g" horiz-adv-x="390" 
d="M53 -195v89q32 -1 102 -1q40 0 57 9.5t21.5 35.5t4.5 90v38h-7q-9 -32 -30.5 -48t-58.5 -16q-47 0 -70.5 23.5t-33 78t-9.5 157.5q0 105 10 159.5t34.5 76t70.5 21.5q32 0 56 -15.5t33 -53.5h7l4 61h107v-447q0 -105 -10 -158t-46 -80.5t-114 -27.5q-72 0 -128 8z
M219.5 112.5q9.5 8.5 13.5 31.5q3 16 4 46.5t1 70.5q0 85 -4 107q-4 28 -14 38t-30 10q-23 0 -32.5 -8.5t-12.5 -39t-3 -107.5q0 -78 3 -109t12 -39.5t33 -8.5q20 0 29.5 8.5z" />
    <glyph glyph-name="h" unicode="h" horiz-adv-x="392" 
d="M243 285q0 65 -2.5 90.5t-11 33t-30.5 7.5q-24 0 -33.5 -13t-11.5 -42.5t-2 -104.5v-256h-113v743h113v-291h8q19 66 96 66q43 0 64 -17.5t28.5 -55t7.5 -106.5v-339h-113v285z" />
    <glyph glyph-name="i" unicode="i" horiz-adv-x="191" 
d="M38 630v113h115v-113h-115zM39 0v510h113v-510h-113z" />
    <glyph glyph-name="j" unicode="j" horiz-adv-x="191" 
d="M38 630v113h115v-113h-115zM-12 -109q24 0 35 5t13.5 15t2.5 32v567h113v-512q0 -90 -14 -130t-46.5 -52t-103.5 -12v87z" />
    <glyph glyph-name="k" unicode="k" horiz-adv-x="370" 
d="M247 0l-67 206h-28v-206h-113v743h113v-440h28l69 207h113l-88 -243l90 -267h-117z" />
    <glyph glyph-name="l" unicode="l" horiz-adv-x="191" 
d="M39 0v743h113v-743h-113z" />
    <glyph glyph-name="m" unicode="m" horiz-adv-x="591" 
d="M441 285q0 66 -2.5 91t-10.5 32.5t-29 7.5q-23 0 -32.5 -12.5t-11.5 -42t-2 -105.5v-256h-113v285q0 65 -2.5 90.5t-10.5 33t-29 7.5q-23 0 -32.5 -13t-11.5 -42.5t-2 -104.5v-256h-113v510h107l4 -62h8q12 36 35.5 53t62.5 17q41 0 62 -17t29 -53h8q13 37 37 53.5
t62 16.5q41 0 62.5 -17.5t29.5 -54t8 -101.5v-345h-113v285z" />
    <glyph glyph-name="n" unicode="n" horiz-adv-x="392" 
d="M243 285q0 65 -2.5 90.5t-11 33t-30.5 7.5q-24 0 -33.5 -13t-11.5 -42.5t-2 -104.5v-256h-113v510h107l4 -62h8q20 70 98 70q43 0 64 -17.5t28.5 -55t7.5 -106.5v-339h-113v285z" />
    <glyph glyph-name="o" unicode="o" horiz-adv-x="381" 
d="M82.5 13.5q-33.5 21.5 -43.5 74t-10 167.5q0 114 10 166.5t43.5 74.5t107.5 22q75 0 108.5 -22t43.5 -74t10 -167t-10 -167.5t-43.5 -74t-108.5 -21.5q-74 0 -107.5 21.5zM224.5 98q9.5 10 12 41.5t2.5 115.5t-2.5 115.5t-12 41.5t-34.5 10q-24 0 -33.5 -10t-12 -41.5
t-2.5 -115.5t2.5 -115.5t12 -41.5t33.5 -10q25 0 34.5 10z" />
    <glyph glyph-name="p" unicode="p" horiz-adv-x="390" 
d="M39 510h107l4 -61h8q8 38 32 53.5t56 15.5q46 0 70.5 -22t34.5 -77.5t10 -163.5q0 -105 -9 -160.5t-33 -79t-71 -23.5q-72 0 -88 64h-8v-252h-113v706zM233 103q9 9 12 40t3 112t-3 112t-12 40t-33 9q-19 0 -29.5 -8.5t-14.5 -32.5q-3 -16 -3.5 -47.5t-0.5 -72.5
q0 -91 4 -114q5 -28 15 -37.5t29 -9.5q24 0 33 9z" />
    <glyph glyph-name="q" unicode="q" horiz-adv-x="390" 
d="M238 56h-7q-9 -32 -30.5 -48t-58.5 -16q-47 0 -70.5 23.5t-33 79t-9.5 160.5q0 108 10 163.5t34.5 77.5t70.5 22q32 0 56 -15.5t33 -53.5h7l4 61h107v-706h-113v252zM218.5 102.5q10.5 8.5 15.5 31.5q4 27 4 121q0 40 -1 72.5t-4 50.5q-4 22 -13.5 30t-29.5 8
q-24 0 -33 -9t-12 -40.5t-3 -111.5t3 -111.5t12 -40.5t33 -9q18 0 28.5 8.5z" />
    <glyph glyph-name="r" unicode="r" horiz-adv-x="271" 
d="M39 510h107l4 -85h8q13 53 37 73t65 20v-121q-56 0 -82 -32.5t-26 -116.5v-248h-113v510z" />
    <glyph glyph-name="s" unicode="s" horiz-adv-x="317" 
d="M88.5 -3.5q-36.5 4.5 -59.5 11.5v88q50 -8 95 -8q36 0 50.5 12.5t14.5 45.5q0 26 -2.5 37.5t-9.5 16t-24 7.5l-71 14q-34 6 -48.5 38t-14.5 105q0 82 37 118t110 36q30 0 61.5 -4.5t50.5 -11.5v-89q-47 9 -90 9q-31 0 -43.5 -11t-12.5 -43q0 -25 2 -35.5t8 -14.5t20 -7
l61 -12q24 -4 40 -15.5t26.5 -41.5t10.5 -86q0 -91 -35 -127.5t-109 -36.5q-31 0 -67.5 4.5z" />
    <glyph glyph-name="t" unicode="t" horiz-adv-x="258" 
d="M64 0v414h-51v96h51v148h113v-148h69v-96h-69v-414h-113z" />
    <glyph glyph-name="u" unicode="u" horiz-adv-x="392" 
d="M242 62h-7q-20 -70 -98 -70q-43 0 -64.5 17.5t-29 55t-7.5 106.5v339h113v-285q0 -64 3 -90t11.5 -33.5t30.5 -7.5q23 0 32.5 13t11.5 42.5t2 104.5v256h113v-510h-107z" />
    <glyph glyph-name="v" unicode="v" horiz-adv-x="361" 
d="M103 0l-96 510h113l59 -378h8l55 378h112l-96 -510h-155z" />
    <glyph glyph-name="w" unicode="w" horiz-adv-x="557" 
d="M329 0l-46 299h-7l-46 -299h-141l-81 510h112l42 -363h7l56 363h112l57 -363h7l42 363h106l-81 -510h-139z" />
    <glyph glyph-name="x" unicode="x" horiz-adv-x="367" 
d="M243 0l-57 175h-8l-57 -175h-114l100 256l-97 254h118l55 -164h7l54 164h113l-96 -250l99 -260h-117z" />
    <glyph glyph-name="y" unicode="y" horiz-adv-x="392" 
d="M58 -195v90q60 -2 100 -2t56.5 10t21 35.5t4.5 88.5v43h-7q-20 -68 -97 -68q-43 0 -64 18t-28.5 55.5t-7.5 106.5v328h113v-276q0 -64 3 -89.5t11.5 -33t30.5 -7.5q23 0 32.5 13t11.5 42.5t2 104.5v246h113v-448q0 -104 -10 -157t-46 -80.5t-113 -27.5q-73 0 -126 8z" />
    <glyph glyph-name="z" unicode="z" horiz-adv-x="335" 
d="M26 0v89l156 325h-151v96h278v-89l-157 -325h158v-96h-284z" />
    <glyph glyph-name="braceleft" unicode="{" horiz-adv-x="286" 
d="M118.5 -76.5q-28.5 49.5 -28.5 102.5v127q0 50 -15 80.5t-55 36.5v52q40 6 55 37t15 81v127q0 53 28.5 102.5t72.5 73.5h73q-36 -43 -49 -81.5t-13 -106.5v-109q0 -123 -90 -146v-7q90 -22 90 -146v-109q0 -68 13 -106t49 -82h-73q-44 24 -72.5 73.5z" />
    <glyph glyph-name="bar" unicode="|" horiz-adv-x="211" 
d="M52 -161v904h107v-904h-107z" />
    <glyph glyph-name="braceright" unicode="}" horiz-adv-x="286" 
d="M71 -68.5q13 38.5 13 106.5v109q0 124 91 146v7q-91 22 -91 146v109q0 68 -13 106t-49 82h73q44 -24 72.5 -73.5t28.5 -102.5v-127q0 -50 15 -81t55 -37v-52q-40 -6 -55 -36.5t-15 -80.5v-127q0 -53 -28.5 -102.5t-72.5 -73.5h-73q36 43 49 81.5z" />
    <glyph glyph-name="asciitilde" unicode="~" horiz-adv-x="439" 
d="M382 298.5q-4 -24.5 -21.5 -38t-54.5 -13.5q-30 0 -62.5 7.5t-37.5 8.5q-8 2 -29 7.5t-33 5.5q-14 0 -18 -8.5t-4 -31.5h-70q0 47 4.5 72t22 38.5t54.5 13.5q22 0 49 -5t51 -11q5 -1 26 -6.5t35 -5.5q15 0 19 8t4 31h69q0 -48 -4 -72.5z" />
    <glyph glyph-name="uni00A0" unicode="&#xa0;" horiz-adv-x="150" 
 />
    <glyph glyph-name="exclamdown" unicode="&#xa1;" horiz-adv-x="227" 
d="M52 389v121h123v-121h-123zM44 -107q0 36 10 153.5t24 254.5h71q14 -137 24 -254.5t10 -153.5v-71h-139v71z" />
    <glyph glyph-name="cent" unicode="&#xa2;" horiz-adv-x="311" 
d="M142 72q-46 9 -69.5 40.5t-31.5 85t-8 144.5q0 93 9 147.5t32.5 84.5t67.5 38v84h84v-81q40 -6 54 -11v-93q-48 5 -62 5q-33 0 -47 -11t-19 -46t-5 -116q0 -83 5 -118t19 -46t47 -11q17 0 65 6v-92q-21 -7 -57 -12v-78h-84v80z" />
    <glyph glyph-name="sterling" unicode="&#xa3;" horiz-adv-x="368" 
d="M335 109v-109h-307v109h50v192h-50v109h50v40q0 92 11.5 143.5t45.5 77t101 25.5q24 0 51 -3.5t44 -8.5v-104q-32 7 -66 7q-32 0 -45 -12t-17.5 -39t-4.5 -84v-42h99v-109h-99v-192h137z" />
    <glyph glyph-name="currency" unicode="&#xa4;" horiz-adv-x="500" 
d="M29 77l76 77q-10 27 -13.5 70.5t-3.5 121.5q0 76 3 119t13 72l-75 75l71 71l77 -78q24 9 72 9q46 0 74 -9l78 78l70 -71l-77 -77q10 -28 13.5 -72.5t3.5 -116.5q0 -73 -3.5 -118t-12.5 -73l76 -77l-70 -71l-77 77q-30 -9 -75 -9t-73 9l-76 -77zM283 182.5q9 10.5 12 43.5
t3 120q0 85 -3 118t-12 43t-34 10q-24 0 -33.5 -10t-12 -42.5t-2.5 -118.5q0 -88 2.5 -121t12 -43t33.5 -10q25 0 34 10.5z" />
    <glyph glyph-name="yen" unicode="&#xa5;" horiz-adv-x="448" 
d="M164 0v220h-120v65h109l-29 88h-80v65h61l-76 250h121l73 -307h9l69 307h117l-75 -250h61v-65h-81l-29 -88h110v-65h-120v-220h-120z" />
    <glyph glyph-name="brokenbar" unicode="&#xa6;" horiz-adv-x="211" 
d="M52 390v353h107v-353h-107zM52 -161v353h107v-353h-107z" />
    <glyph glyph-name="section" unicode="&#xa7;" horiz-adv-x="425" 
d="M128.5 -165q-34.5 5 -55.5 13v99q54 -8 103 -8q35 0 48.5 12t13.5 47q0 23 -2.5 33.5t-8 15.5t-19.5 12l-69 33q-34 16 -55.5 30.5t-38 47.5t-16.5 87q0 70 18 106.5t56 48.5q-18 19 -25.5 45t-7.5 68q0 92 40.5 131.5t120.5 39.5q36 0 69.5 -5.5t51.5 -12.5v-99
q-19 4 -48.5 6.5t-53.5 2.5q-36 0 -49 -12.5t-13 -47.5q0 -31 5 -41.5t21 -17.5l66 -31q38 -18 59.5 -33t39 -48t17.5 -88q0 -70 -18 -107t-56 -49q17 -17 25 -43.5t8 -68.5q0 -91 -40.5 -131t-120.5 -40q-31 0 -65.5 5zM271 190.5q7 21.5 7 59.5q0 55 -18 66l-71 35
q-12 6 -16 6q-12 0 -19 -21.5t-7 -59.5q0 -29 5.5 -45t17.5 -22l68 -35q10 -5 14 -5q12 0 19 21.5z" />
    <glyph glyph-name="dieresis" unicode="&#xa8;" horiz-adv-x="279" 
d="M7 633v97h99v-97h-99zM172 633v97h99v-97h-99z" />
    <glyph glyph-name="copyright" unicode="&#xa9;" horiz-adv-x="511" 
d="M111.5 15q-40.5 23 -51 89.5t-10.5 239.5t10.5 239.5t51 89.5t144.5 23q103 0 143.5 -23t51 -89.5t10.5 -239.5t-10.5 -239.5t-51 -89.5t-143.5 -23q-104 0 -144.5 23zM370.5 51.5q29.5 15.5 37.5 72.5t8 220t-8 220t-37.5 72.5t-114.5 15.5t-114.5 -15.5t-37.5 -72.5
t-8 -220t8 -220t37.5 -72.5t114.5 -15.5t114.5 15.5zM209.5 172.5q-19.5 16.5 -26 55t-6.5 116.5t6.5 116.5t26 55t60.5 16.5q35 0 49 -8v-56q-30 3 -37 3q-20 0 -27.5 -7.5t-9.5 -31.5t-2 -88t2 -88t9.5 -31.5t27.5 -7.5q11 0 38 3v-55q-23 -9 -50 -9q-41 0 -60.5 16.5z
" />
    <glyph glyph-name="ordfeminine" unicode="&#xaa;" horiz-adv-x="293" 
d="M40.5 333q-17.5 27 -17.5 88q0 64 19 89.5t70 25.5q33 0 58 -3v20q0 34 -3.5 47.5t-15 17.5t-39.5 4q-25 0 -73 -5v69q52 10 99 10q48 0 73 -14t35.5 -46t10.5 -90v-234h-82l-4 43h-6q-7 -24 -24 -36.5t-39 -12.5q-44 0 -61.5 27zM154.5 389.5q7.5 4.5 11.5 16.5
q4 10 4 49v21h-35q-18 0 -24 -9.5t-6 -38.5q0 -25 5.5 -34t24.5 -9q12 0 19.5 4.5z" />
    <glyph glyph-name="guillemotleft" unicode="&#xab;" horiz-adv-x="369" 
d="M104 125l-70 192l70 193h82l-54 -193l54 -192h-82zM248 125l-70 192l70 193h83l-54 -193l54 -192h-83z" />
    <glyph glyph-name="logicalnot" unicode="&#xac;" horiz-adv-x="447" 
d="M294 74v121h-242v101h343v-222h-101z" />
    <glyph glyph-name="uni00AD" unicode="&#xad;" horiz-adv-x="270" 
d="M48 233v104h174v-104h-174z" />
    <glyph glyph-name="registered" unicode="&#xae;" horiz-adv-x="511" 
d="M399.5 673q40.5 -23 51 -89.5t10.5 -239.5t-10.5 -239.5t-51 -89.5t-143.5 -23q-104 0 -144.5 23t-51 89.5t-10.5 239.5t10.5 239.5t51 89.5t144.5 23q103 0 143.5 -23zM370.5 51.5q29.5 15.5 37.5 72.5t8 220t-8 220t-37.5 72.5t-114.5 15.5t-114.5 -15.5t-37.5 -72.5
t-8 -220t8 -220t37.5 -72.5t114.5 -15.5t114.5 15.5zM343 342.5q-6 -25.5 -24 -38.5l38 -144h-69l-30 130h-25v-130h-66v368h99q36 0 54 -13.5t23.5 -38t5.5 -67.5q0 -41 -6 -66.5zM273.5 353.5q5.5 4.5 7.5 16t2 38.5q0 26 -2 37.5t-7.5 16t-18.5 4.5h-22v-117h22
q13 0 18.5 4.5z" />
    <glyph glyph-name="macron" unicode="&#xaf;" horiz-adv-x="270" 
d="M48 639v104h174v-104h-174z" />
    <glyph glyph-name="degree" unicode="&#xb0;" horiz-adv-x="287" 
d="M66.5 411.5q-23.5 14.5 -29 43t-5.5 92.5q0 63 5.5 92t29 43t77.5 14t77.5 -14t29 -43t5.5 -92q0 -64 -5.5 -92.5t-29 -43t-77.5 -14.5t-77.5 14.5zM169.5 465.5q7.5 6.5 9 22.5t1.5 59t-1.5 58.5t-9 22t-25.5 6.5t-25.5 -6.5t-9 -22t-1.5 -58.5t1.5 -59t9 -22.5
t25.5 -6.5t25.5 6.5z" />
    <glyph glyph-name="plusminus" unicode="&#xb1;" horiz-adv-x="447" 
d="M174 200v121h-122v100h122v122h99v-122h121v-100h-121v-121h-99zM52 42v101h342v-101h-342z" />
    <glyph glyph-name="uni00B2" unicode="&#xb2;" horiz-adv-x="267" 
d="M116 384h110v-69h-185v48q0 51 2 75t8.5 38.5t21.5 24.5q22 15 37 24l20 13q12 8 16.5 17.5t4.5 28.5q0 28 -7 35.5t-32 7.5q-12 0 -69 -5v65q47 9 87 9q32 0 51.5 -6.5t32 -29.5t12.5 -71t-10.5 -69t-32.5 -35l-52 -34q-10 -7 -12.5 -15.5t-2.5 -41.5v-10z" />
    <glyph glyph-name="uni00B3" unicode="&#xb3;" horiz-adv-x="267" 
d="M42 317v64q55 -5 67 -5q24 0 31.5 8t7.5 36q0 31 -6 40.5t-23 9.5h-49v67h49q16 0 21.5 9t5.5 39q0 28 -7 35t-33 7q-28 0 -63 -5v65q45 9 83 9q51 0 74 -21t23 -79q0 -37 -10.5 -58t-32.5 -31v-4q23 -9 34.5 -29.5t11.5 -60.5q0 -58 -22.5 -82t-77.5 -24q-34 0 -84 10z
" />
    <glyph glyph-name="acute" unicode="&#xb4;" horiz-adv-x="147" 
d="M0 598v5l36 140h111v-5l-55 -140h-92z" />
    <glyph glyph-name="uni00B5" unicode="&#xb5;" horiz-adv-x="395" 
d="M356 510v-510h-107l-4 62h-8q-9 -33 -27 -48.5t-50 -15.5h-8v-187h-113v699h113v-285q0 -65 2.5 -90.5t11 -33t30.5 -7.5q24 0 33.5 13t11.5 42.5t2 104.5v256h113z" />
    <glyph glyph-name="paragraph" unicode="&#xb6;" horiz-adv-x="413" 
d="M128 222q-49 0 -70 16t-28.5 62.5t-7.5 153.5t7.5 154t28.5 63.5t70 16.5h93v-832h-93v366zM267 -144v832h94v-832h-94z" />
    <glyph glyph-name="periodcentered" unicode="&#xb7;" horiz-adv-x="218" 
d="M47 238v121h124v-121h-124z" />
    <glyph glyph-name="cedilla" unicode="&#xb8;" horiz-adv-x="141" 
d="M4 -189v5l61 192h72v-5l-36 -192h-97z" />
    <glyph glyph-name="uni00B9" unicode="&#xb9;" horiz-adv-x="207" 
d="M87 315v283l-46 -21v73l66 38h56v-373h-76z" />
    <glyph glyph-name="ordmasculine" unicode="&#xba;" horiz-adv-x="300" 
d="M69 323q-25 16 -32.5 55t-7.5 123q0 85 7.5 124t32.5 55t81 16t81 -16t32.5 -55t7.5 -124q0 -84 -7.5 -123t-32.5 -55t-81 -16t-81 16zM174.5 388q6.5 7 8 29.5t1.5 83.5q0 62 -1.5 84.5t-8 29.5t-24.5 7q-17 0 -23.5 -7t-8.5 -30t-2 -84q0 -60 2 -83t8.5 -30t23.5 -7
q18 0 24.5 7z" />
    <glyph glyph-name="guillemotright" unicode="&#xbb;" horiz-adv-x="369" 
d="M38 125l54 192l-54 193h83l70 -193l-70 -192h-83zM182 125l54 192l-54 193h83l70 -193l-70 -192h-83z" />
    <glyph glyph-name="onequarter" unicode="&#xbc;" horiz-adv-x="555" 
d="M86 315v283l-46 -21v73l65 38h57v-373h-76zM73 0l298 688h71l-298 -688h-71zM416 0v74h-110v56l58 243h77l-65 -230h42l22 103h52v-103h25v-69h-25v-74h-76z" />
    <glyph glyph-name="onehalf" unicode="&#xbd;" horiz-adv-x="576" 
d="M86 315v283l-46 -21v73l65 38h57v-373h-76zM371 688h71l-298 -688h-71zM425 69h110v-69h-185v47q0 53 1.5 76.5t8.5 38t22 24.5l57 37q12 8 16.5 17.5t4.5 28.5q0 28 -7 35.5t-32 7.5q-12 0 -69 -5v64q45 10 87 10q31 0 51 -6.5t32.5 -30t12.5 -70.5q0 -49 -11 -70.5
t-32 -33.5l-51 -34q-12 -8 -14 -18t-2 -39v-10z" />
    <glyph glyph-name="threequarters" unicode="&#xbe;" horiz-adv-x="598" 
d="M109 376q24 0 31.5 8t7.5 36q0 31 -6 40.5t-23 9.5h-49v67h49q16 0 21.5 9t5.5 39q0 28 -7 35t-33 7q-28 0 -63 -5v65q45 9 83 9q51 0 74 -21t23 -79q0 -37 -10.5 -58t-32.5 -31v-4q23 -9 34.5 -29.5t11.5 -60.5q0 -58 -22.5 -82t-77.5 -24q-34 0 -84 10v64q55 -5 67 -5z
M116 0l298 688h71l-298 -688h-71zM456 0v74h-109v56l58 243h77l-65 -230h42l22 103h52v-103h25v-69h-25v-74h-77z" />
    <glyph glyph-name="questiondown" unicode="&#xbf;" horiz-adv-x="314" 
d="M143 389v121h124v-121h-124zM73 -151.5q-39 34.5 -39 120.5q0 74 11 109t47 63l31 24q21 17 25.5 29.5t4.5 51.5v55h104v-92q0 -47 -8.5 -67t-32.5 -37l-12 -9q-22 -16 -32 -27t-14 -27t-4 -46q0 -45 16 -59t60 -14q27 0 79 7v-101q-29 -6 -64 -10.5t-63 -4.5
q-70 0 -109 34.5z" />
    <glyph glyph-name="Agrave" unicode="&#xc0;" horiz-adv-x="422" 
d="M292 0l-23 151h-118l-23 -151h-119l113 688h178l114 -688h-122zM213 564h-6l-44 -307h94zM169 749l-55 140v5h111l36 -140v-5h-92z" />
    <glyph glyph-name="Aacute" unicode="&#xc1;" horiz-adv-x="422" 
d="M292 0l-23 151h-118l-23 -151h-119l113 688h178l114 -688h-122zM213 564h-6l-44 -307h94zM159 750v5l36 140h111v-5l-55 -140h-92z" />
    <glyph glyph-name="Acircumflex" unicode="&#xc2;" horiz-adv-x="422" 
d="M292 0l-23 151h-118l-23 -151h-119l113 688h178l114 -688h-122zM213 564h-6l-44 -307h94zM86 750v7l67 120h115l68 -120v-7h-79l-47 71l-45 -71h-79z" />
    <glyph glyph-name="Atilde" unicode="&#xc3;" horiz-adv-x="422" 
d="M292 0l-23 151h-118l-23 -151h-119l113 688h178l114 -688h-122zM213 564h-6l-44 -307h94zM344.5 812.5q-3.5 -24.5 -18 -38t-44.5 -13.5q-27 0 -76 17q-7 2 -21.5 7.5t-24.5 5.5q-11 0 -13.5 -8.5t-2.5 -32.5h-69q0 47 4 71.5t18 38t45 13.5q29 0 76 -17q4 -1 19.5 -6.5
t26.5 -5.5q10 0 12.5 8.5t2.5 32.5h69q0 -48 -3.5 -72.5z" />
    <glyph glyph-name="Adieresis" unicode="&#xc4;" horiz-adv-x="422" 
d="M292 0l-23 151h-118l-23 -151h-119l113 688h178l114 -688h-122zM213 564h-6l-44 -307h94zM79 775v97h99v-97h-99zM244 775v97h99v-97h-99z" />
    <glyph glyph-name="Aring" unicode="&#xc5;" horiz-adv-x="422" 
d="M414 0h-122l-23 151h-118l-23 -151h-119l112 683q-16 11 -20 29t-4 53q0 42 6 62.5t30.5 31.5t77.5 11q54 0 78.5 -11t30.5 -31.5t6 -62.5q0 -33 -4.5 -52.5t-19.5 -29.5zM185 806q-8 -4 -10 -12.5t-2 -28.5q0 -19 2 -27.5t10 -12t26 -3.5q19 0 27 3.5t10 12t2 27.5
q0 20 -2 28.5t-10 12.5t-27 4q-18 0 -26 -4zM163 257h94l-44 307h-6z" />
    <glyph glyph-name="AE" unicode="&#xc6;" horiz-adv-x="556" 
d="M276 0l-16 151h-120l-31 -151h-120l147 688h393v-109h-195l21 -177h155v-109h-145l23 -184h141v-109h-253zM222 564h-6l-61 -307h97z" />
    <glyph glyph-name="Ccedilla" unicode="&#xc7;" horiz-adv-x="323" 
d="M302 108v-100q-17 -7 -43.5 -11.5t-49.5 -4.5h-11l-34 -181h-97v5l60 187q-41 15 -61 53.5t-27 104t-7 183.5q0 146 12.5 218.5t49.5 103t115 30.5q27 0 52.5 -4t38.5 -11v-101q-39 7 -69 7q-39 0 -54.5 -14.5t-20 -61.5t-4.5 -167t4.5 -167t20 -61.5t54.5 -14.5
q38 0 71 7z" />
    <glyph glyph-name="Egrave" unicode="&#xc8;" horiz-adv-x="345" 
d="M43 0v688h274v-109h-153v-177h134v-109h-134v-184h153v-109h-274zM145 750l-55 140v5h111l36 -140v-5h-92z" />
    <glyph glyph-name="Eacute" unicode="&#xc9;" horiz-adv-x="345" 
d="M43 0v688h274v-109h-153v-177h134v-109h-134v-184h153v-109h-274zM135 750v5l36 140h111v-5l-55 -140h-92z" />
    <glyph glyph-name="Ecircumflex" unicode="&#xca;" horiz-adv-x="345" 
d="M43 0v688h274v-109h-153v-177h134v-109h-134v-184h153v-109h-274zM56 750v7l67 120h115l68 -120v-7h-79l-47 71l-45 -71h-79z" />
    <glyph glyph-name="Edieresis" unicode="&#xcb;" horiz-adv-x="345" 
d="M43 0v688h274v-109h-153v-177h134v-109h-134v-184h153v-109h-274zM49 775v97h99v-97h-99zM214 775v97h99v-97h-99z" />
    <glyph glyph-name="Igrave" unicode="&#xcc;" horiz-adv-x="210" 
d="M45 0v688h120v-688h-120zM72 750l-55 140v5h111l36 -140v-5h-92z" />
    <glyph glyph-name="Iacute" unicode="&#xcd;" horiz-adv-x="210" 
d="M45 0v688h120v-688h-120zM47 750v5l36 140h111v-5l-55 -140h-92z" />
    <glyph glyph-name="Icircumflex" unicode="&#xce;" horiz-adv-x="210" 
d="M45 0v688h120v-688h-120zM-20 750v7l67 120h115l68 -120v-7h-79l-47 71l-45 -71h-79z" />
    <glyph glyph-name="Idieresis" unicode="&#xcf;" horiz-adv-x="210" 
d="M45 0v688h120v-688h-120zM-27 775v97h99v-97h-99zM138 775v97h99v-97h-99z" />
    <glyph glyph-name="Eth" unicode="&#xd0;" horiz-adv-x="417" 
d="M43 293h-40v110h40v285h161q87 0 124 -29.5t46.5 -95t9.5 -219.5q0 -153 -9.5 -219t-46.5 -95.5t-124 -29.5h-161v293zM246 120.5q11 11.5 15 57.5t4 166t-4 166t-15 57.5t-42 11.5h-42v-176h58v-110h-58v-184h42q31 0 42 11.5z" />
    <glyph glyph-name="Ntilde" unicode="&#xd1;" horiz-adv-x="439" 
d="M289 0l-127 388h-4v-388h-115v688h114l119 -361h6v361h114v-688h-107zM352.5 812.5q-3.5 -24.5 -18 -38t-44.5 -13.5q-27 0 -76 17q-7 2 -21.5 7.5t-24.5 5.5q-11 0 -13.5 -8.5t-2.5 -32.5h-69q0 47 4 71.5t18 38t45 13.5q29 0 76 -17q4 -1 19.5 -6.5t26.5 -5.5
q10 0 12.5 8.5t2.5 32.5h69q0 -48 -3.5 -72.5z" />
    <glyph glyph-name="Ograve" unicode="&#xd2;" horiz-adv-x="423" 
d="M87.5 22q-36.5 30 -46 97.5t-9.5 224.5t9.5 224.5t46 97.5t123.5 30t124 -30t46.5 -97.5t9.5 -224.5t-9.5 -224.5t-46.5 -97.5t-124 -30t-123.5 30zM252 113q11 12 14.5 59t3.5 172t-3.5 172t-14.5 59t-41 12t-40.5 -12t-14.5 -59.5t-4 -171.5t4 -171.5t14.5 -59.5
t40.5 -12t41 12zM167 750l-55 140v5h111l36 -140v-5h-92z" />
    <glyph glyph-name="Oacute" unicode="&#xd3;" horiz-adv-x="423" 
d="M87.5 22q-36.5 30 -46 97.5t-9.5 224.5t9.5 224.5t46 97.5t123.5 30t124 -30t46.5 -97.5t9.5 -224.5t-9.5 -224.5t-46.5 -97.5t-124 -30t-123.5 30zM252 113q11 12 14.5 59t3.5 172t-3.5 172t-14.5 59t-41 12t-40.5 -12t-14.5 -59.5t-4 -171.5t4 -171.5t14.5 -59.5
t40.5 -12t41 12zM160 750v5l36 140h111v-5l-55 -140h-92z" />
    <glyph glyph-name="Ocircumflex" unicode="&#xd4;" horiz-adv-x="423" 
d="M87.5 22q-36.5 30 -46 97.5t-9.5 224.5t9.5 224.5t46 97.5t123.5 30t124 -30t46.5 -97.5t9.5 -224.5t-9.5 -224.5t-46.5 -97.5t-124 -30t-123.5 30zM252 113q11 12 14.5 59t3.5 172t-3.5 172t-14.5 59t-41 12t-40.5 -12t-14.5 -59.5t-4 -171.5t4 -171.5t14.5 -59.5
t40.5 -12t41 12zM86 750v7l67 120h115l68 -120v-7h-79l-47 71l-45 -71h-79z" />
    <glyph glyph-name="Otilde" unicode="&#xd5;" horiz-adv-x="423" 
d="M87.5 22q-36.5 30 -46 97.5t-9.5 224.5t9.5 224.5t46 97.5t123.5 30t124 -30t46.5 -97.5t9.5 -224.5t-9.5 -224.5t-46.5 -97.5t-124 -30t-123.5 30zM252 113q11 12 14.5 59t3.5 172t-3.5 172t-14.5 59t-41 12t-40.5 -12t-14.5 -59.5t-4 -171.5t4 -171.5t14.5 -59.5
t40.5 -12t41 12zM345.5 812.5q-3.5 -24.5 -18 -38t-44.5 -13.5q-27 0 -76 17q-7 2 -21.5 7.5t-24.5 5.5q-11 0 -13.5 -8.5t-2.5 -32.5h-69q0 47 4 71.5t18 38t45 13.5q29 0 76 -17q4 -1 19.5 -6.5t26.5 -5.5q10 0 12.5 8.5t2.5 32.5h69q0 -48 -3.5 -72.5z" />
    <glyph glyph-name="Odieresis" unicode="&#xd6;" horiz-adv-x="423" 
d="M87.5 22q-36.5 30 -46 97.5t-9.5 224.5t9.5 224.5t46 97.5t123.5 30t124 -30t46.5 -97.5t9.5 -224.5t-9.5 -224.5t-46.5 -97.5t-124 -30t-123.5 30zM252 113q11 12 14.5 59t3.5 172t-3.5 172t-14.5 59t-41 12t-40.5 -12t-14.5 -59.5t-4 -171.5t4 -171.5t14.5 -59.5
t40.5 -12t41 12zM79 775v97h99v-97h-99zM244 775v97h99v-97h-99z" />
    <glyph glyph-name="multiply" unicode="&#xd7;" horiz-adv-x="421" 
d="M211 183l-88 -88l-70 70l87 88l-88 88l71 71l88 -88l88 88l70 -71l-87 -88l87 -88l-70 -70z" />
    <glyph glyph-name="Oslash" unicode="&#xd8;" horiz-adv-x="423" 
d="M357 641q22 -35 28 -99.5t6 -197.5q0 -157 -9.5 -224.5t-46.5 -97.5t-124 -30q-39 0 -62 5l-16 -52h-101l33 103q-21 36 -27 100t-6 196q0 157 9.5 224.5t46 97.5t123.5 30q38 0 61 -4l17 51h102zM252 113q11 12 14.5 59t3.5 172t-3.5 172t-14.5 59t-41 12t-40.5 -12
t-14.5 -59.5t-4 -171.5t4 -171.5t14.5 -59.5t40.5 -12t41 12z" />
    <glyph glyph-name="Ugrave" unicode="&#xd9;" horiz-adv-x="426" 
d="M387 688v-385q0 -137 -9 -196.5t-45 -87t-120 -27.5t-120 27.5t-45 87t-9 196.5v385h120v-432q0 -77 3 -106.5t13.5 -39t37.5 -9.5t37.5 9.5t13.5 38.5t3 107v432h120zM172 750l-55 140v5h111l36 -140v-5h-92z" />
    <glyph glyph-name="Uacute" unicode="&#xda;" horiz-adv-x="426" 
d="M387 688v-385q0 -137 -9 -196.5t-45 -87t-120 -27.5t-120 27.5t-45 87t-9 196.5v385h120v-432q0 -77 3 -106.5t13.5 -39t37.5 -9.5t37.5 9.5t13.5 38.5t3 107v432h120zM165 750v5l36 140h111v-5l-55 -140h-92z" />
    <glyph glyph-name="Ucircumflex" unicode="&#xdb;" horiz-adv-x="426" 
d="M387 688v-385q0 -137 -9 -196.5t-45 -87t-120 -27.5t-120 27.5t-45 87t-9 196.5v385h120v-432q0 -77 3 -106.5t13.5 -39t37.5 -9.5t37.5 9.5t13.5 38.5t3 107v432h120zM88 750v7l67 120h115l68 -120v-7h-79l-47 71l-45 -71h-79z" />
    <glyph glyph-name="Udieresis" unicode="&#xdc;" horiz-adv-x="426" 
d="M387 688v-385q0 -137 -9 -196.5t-45 -87t-120 -27.5t-120 27.5t-45 87t-9 196.5v385h120v-432q0 -77 3 -106.5t13.5 -39t37.5 -9.5t37.5 9.5t13.5 38.5t3 107v432h120zM81 775v97h99v-97h-99zM246 775v97h99v-97h-99z" />
    <glyph glyph-name="Yacute" unicode="&#xdd;" horiz-adv-x="387" 
d="M133 0v246l-134 442h121l72 -307h10l69 307h117l-134 -442v-246h-121zM149 750v5l36 140h111v-5l-55 -140h-92z" />
    <glyph glyph-name="Thorn" unicode="&#xde;" horiz-adv-x="401" 
d="M43 688h121v-105h64q67 0 101 -26t45 -74.5t11 -130.5q0 -79 -10.5 -127.5t-44.5 -76.5t-102 -28h-64v-120h-121v688zM208 229q26 0 37.5 9.5t15 33.5t3.5 80t-3.5 80t-15 33t-37.5 9h-44v-245h44z" />
    <glyph glyph-name="germandbls" unicode="&#xdf;" horiz-adv-x="396" 
d="M194 0v96h10q24 0 33.5 9t12.5 39.5t3 110.5q0 65 -3.5 94t-13 38.5t-30.5 9.5h-8v96h8q18 0 27 6.5t12.5 23.5t3.5 51q0 49 -10.5 64.5t-37.5 15.5q-20 0 -30 -8t-14.5 -30.5t-4.5 -68.5v-547h-113v545q0 74 15 118.5t50.5 65.5t96.5 21q85 0 123.5 -37t38.5 -123
q0 -62 -20 -95t-64 -43v-4q47 -11 67 -56t20 -144q0 -92 -11 -144t-44 -78t-98 -26h-19z" />
    <glyph glyph-name="agrave" unicode="&#xe0;" horiz-adv-x="370" 
d="M43 28.5q-23 36.5 -23 118.5q0 58 11 91t36.5 48t71.5 15q37 0 81 -4v28q0 47 -5 66t-21 25t-55 6q-44 0 -98 -7v90q61 13 133 13q64 0 98 -18.5t47.5 -61.5t13.5 -122v-316h-107l-4 62h-7q-8 -36 -32.5 -53t-56.5 -17q-60 0 -83 36.5zM198 99q11 5 16 21q6 26 6 72v31
h-50q-25 0 -33.5 -13t-8.5 -54q0 -36 7.5 -49t33.5 -13q18 0 29 5zM146 598l-55 140v5h111l36 -140v-5h-92z" />
    <glyph glyph-name="aacute" unicode="&#xe1;" horiz-adv-x="370" 
d="M43 28.5q-23 36.5 -23 118.5q0 58 11 91t36.5 48t71.5 15q37 0 81 -4v28q0 47 -5 66t-21 25t-55 6q-44 0 -98 -7v90q61 13 133 13q64 0 98 -18.5t47.5 -61.5t13.5 -122v-316h-107l-4 62h-7q-8 -36 -32.5 -53t-56.5 -17q-60 0 -83 36.5zM198 99q11 5 16 21q6 26 6 72v31
h-50q-25 0 -33.5 -13t-8.5 -54q0 -36 7.5 -49t33.5 -13q18 0 29 5zM138 598v5l36 140h111v-5l-55 -140h-92z" />
    <glyph glyph-name="acircumflex" unicode="&#xe2;" horiz-adv-x="370" 
d="M43 28.5q-23 36.5 -23 118.5q0 58 11 91t36.5 48t71.5 15q37 0 81 -4v28q0 47 -5 66t-21 25t-55 6q-44 0 -98 -7v90q61 13 133 13q64 0 98 -18.5t47.5 -61.5t13.5 -122v-316h-107l-4 62h-7q-8 -36 -32.5 -53t-56.5 -17q-60 0 -83 36.5zM198 99q11 5 16 21q6 26 6 72v31
h-50q-25 0 -33.5 -13t-8.5 -54q0 -36 7.5 -49t33.5 -13q18 0 29 5zM62 616v7l67 120h115l68 -120v-7h-79l-47 71l-45 -71h-79z" />
    <glyph glyph-name="atilde" unicode="&#xe3;" horiz-adv-x="370" 
d="M43 28.5q-23 36.5 -23 118.5q0 58 11 91t36.5 48t71.5 15q37 0 81 -4v28q0 47 -5 66t-21 25t-55 6q-44 0 -98 -7v90q61 13 133 13q64 0 98 -18.5t47.5 -61.5t13.5 -122v-316h-107l-4 62h-7q-8 -36 -32.5 -53t-56.5 -17q-60 0 -83 36.5zM198 99q11 5 16 21q6 26 6 72v31
h-50q-25 0 -33.5 -13t-8.5 -54q0 -36 7.5 -49t33.5 -13q18 0 29 5zM318.5 670.5q-3.5 -24.5 -18 -38t-44.5 -13.5q-27 0 -76 17q-7 2 -21.5 7.5t-24.5 5.5q-11 0 -13.5 -8.5t-2.5 -32.5h-69q0 47 4 71.5t18 38t45 13.5q29 0 76 -17q4 -1 19.5 -6.5t26.5 -5.5q10 0 12.5 8.5
t2.5 32.5h69q0 -48 -3.5 -72.5z" />
    <glyph glyph-name="adieresis" unicode="&#xe4;" horiz-adv-x="370" 
d="M43 28.5q-23 36.5 -23 118.5q0 58 11 91t36.5 48t71.5 15q37 0 81 -4v28q0 47 -5 66t-21 25t-55 6q-44 0 -98 -7v90q61 13 133 13q64 0 98 -18.5t47.5 -61.5t13.5 -122v-316h-107l-4 62h-7q-8 -36 -32.5 -53t-56.5 -17q-60 0 -83 36.5zM198 99q11 5 16 21q6 26 6 72v31
h-50q-25 0 -33.5 -13t-8.5 -54q0 -36 7.5 -49t33.5 -13q18 0 29 5zM55 633v97h99v-97h-99zM220 633v97h99v-97h-99z" />
    <glyph glyph-name="aring" unicode="&#xe5;" horiz-adv-x="370" 
d="M43 28.5q-23 36.5 -23 118.5q0 58 11 91t36.5 48t71.5 15q37 0 81 -4v28q0 47 -5 66t-21 25t-55 6q-44 0 -98 -7v90q61 13 133 13q64 0 98 -18.5t47.5 -61.5t13.5 -122v-316h-107l-4 62h-7q-8 -36 -32.5 -53t-56.5 -17q-60 0 -83 36.5zM198 99q11 5 16 21q6 26 6 72v31
h-50q-25 0 -33.5 -13t-8.5 -54q0 -36 7.5 -49t33.5 -13q18 0 29 5zM107.5 605q-24.5 11 -31 31.5t-6.5 60.5q0 42 6.5 62.5t31 31.5t77.5 11t77.5 -11t30.5 -31.5t6 -62.5q0 -41 -6 -61t-30.5 -31t-77.5 -11t-77.5 11zM217.5 662q6.5 8 6.5 35q0 28 -6.5 36.5t-32.5 8.5
q-19 0 -27 -4t-10 -12.5t-2 -28.5q0 -19 2 -27.5t10 -12t27 -3.5q26 0 32.5 8z" />
    <glyph glyph-name="ae" unicode="&#xe6;" horiz-adv-x="561" 
d="M532 222h-199q0 -65 4.5 -90.5t20 -34.5t55.5 -9t110 7v-89q-25 -6 -63 -10t-73 -4q-44 0 -72 11t-45 37q-37 -48 -122 -48q-73 0 -100.5 36t-27.5 118q0 58 11 91t36.5 48t71.5 15q12 0 81 -3v28q0 47 -5 66t-21 25t-55 6q-42 0 -98 -7v90q63 13 133 13q37 0 62 -9
t42 -30q32 39 104 39t103.5 -25t39 -74.5t7.5 -162.5v-34zM349.5 414.5q-9.5 -7.5 -13 -32t-3.5 -82.5h94v4q0 56 -3.5 80t-12.5 31t-30 7q-22 0 -31.5 -7.5zM220 222h-51q-24 0 -32.5 -12.5t-8.5 -53.5q0 -40 7.5 -54t33.5 -14q19 0 30 7t16 26q5 23 5 68v33z" />
    <glyph glyph-name="ccedilla" unicode="&#xe7;" horiz-adv-x="294" 
d="M274 5q-43 -13 -91 -13l-34 -181h-97v5l59 186q-50 20 -66 77.5t-16 175.5q0 102 12 157.5t43.5 80.5t92.5 25q57 0 94 -12v-90q-38 6 -61 6q-32 0 -45 -10.5t-18 -44t-5 -112.5q0 -80 5 -113.5t18.5 -43.5t45.5 -10q23 0 63 6v-89z" />
    <glyph glyph-name="egrave" unicode="&#xe8;" horiz-adv-x="370" 
d="M341 221h-199q0 -64 4.5 -89.5t20 -34.5t54.5 -9q35 0 110 7v-89q-23 -6 -61 -10t-74 -4q-77 0 -112.5 26t-45 78.5t-9.5 157.5t9.5 157.5t44 79.5t108.5 27q72 0 103.5 -25t39 -75.5t7.5 -162.5v-34zM158.5 414.5q-9.5 -7.5 -13 -32.5t-3.5 -83h93v5q0 56 -3 79.5
t-12 31t-30 7.5q-22 0 -31.5 -7.5zM150 598l-55 140v5h111l36 -140v-5h-92z" />
    <glyph glyph-name="eacute" unicode="&#xe9;" horiz-adv-x="370" 
d="M341 221h-199q0 -64 4.5 -89.5t20 -34.5t54.5 -9q35 0 110 7v-89q-23 -6 -61 -10t-74 -4q-77 0 -112.5 26t-45 78.5t-9.5 157.5t9.5 157.5t44 79.5t108.5 27q72 0 103.5 -25t39 -75.5t7.5 -162.5v-34zM158.5 414.5q-9.5 -7.5 -13 -32.5t-3.5 -83h93v5q0 56 -3 79.5
t-12 31t-30 7.5q-22 0 -31.5 -7.5zM146 598v5l36 140h111v-5l-55 -140h-92z" />
    <glyph glyph-name="ecircumflex" unicode="&#xea;" horiz-adv-x="370" 
d="M341 221h-199q0 -64 4.5 -89.5t20 -34.5t54.5 -9q35 0 110 7v-89q-23 -6 -61 -10t-74 -4q-77 0 -112.5 26t-45 78.5t-9.5 157.5t9.5 157.5t44 79.5t108.5 27q72 0 103.5 -25t39 -75.5t7.5 -162.5v-34zM158.5 414.5q-9.5 -7.5 -13 -32.5t-3.5 -83h93v5q0 56 -3 79.5
t-12 31t-30 7.5q-22 0 -31.5 -7.5zM68 616v7l67 120h115l68 -120v-7h-79l-47 71l-45 -71h-79z" />
    <glyph glyph-name="edieresis" unicode="&#xeb;" horiz-adv-x="370" 
d="M341 221h-199q0 -64 4.5 -89.5t20 -34.5t54.5 -9q35 0 110 7v-89q-23 -6 -61 -10t-74 -4q-77 0 -112.5 26t-45 78.5t-9.5 157.5t9.5 157.5t44 79.5t108.5 27q72 0 103.5 -25t39 -75.5t7.5 -162.5v-34zM158.5 414.5q-9.5 -7.5 -13 -32.5t-3.5 -83h93v5q0 56 -3 79.5
t-12 31t-30 7.5q-22 0 -31.5 -7.5zM59 633v97h99v-97h-99zM224 633v97h99v-97h-99z" />
    <glyph glyph-name="igrave" unicode="&#xec;" horiz-adv-x="191" 
d="M39 0v510h113v-510h-113zM59 598l-55 140v5h111l36 -140v-5h-92z" />
    <glyph glyph-name="iacute" unicode="&#xed;" horiz-adv-x="191" 
d="M39 0v510h113v-510h-113zM39 598v5l36 140h111v-5l-55 -140h-92z" />
    <glyph glyph-name="icircumflex" unicode="&#xee;" horiz-adv-x="191" 
d="M39 0v510h113v-510h-113zM-29 616v7l67 120h115l68 -120v-7h-79l-47 71l-45 -71h-79z" />
    <glyph glyph-name="idieresis" unicode="&#xef;" horiz-adv-x="191" 
d="M39 0v510h113v-510h-113zM-37 633v97h99v-97h-99zM128 633v97h99v-97h-99z" />
    <glyph glyph-name="eth" unicode="&#xf0;" horiz-adv-x="381" 
d="M81.5 14.5q-33.5 22.5 -43 74.5t-9.5 165q0 102 8 155.5t35 81t83 27.5q35 0 60 -14l3 3q-14 64 -30 103l-81 -13v68l53 8q-14 27 -40 66v4h114q16 -22 34 -54l76 12v-68l-47 -7q30 -77 44 -180q11 -84 11 -187q0 -116 -9.5 -168.5t-43 -75.5t-108.5 -23
q-76 0 -109.5 22.5zM224.5 98.5q9.5 10.5 12 41.5t2.5 115q0 80 -2.5 111.5t-12 43.5t-34.5 12t-34 -10t-11.5 -41t-2.5 -116q0 -84 2.5 -115t11.5 -41.5t34 -10.5t34.5 10.5z" />
    <glyph glyph-name="ntilde" unicode="&#xf1;" horiz-adv-x="392" 
d="M243 285q0 65 -2.5 90.5t-11 33t-30.5 7.5q-24 0 -33.5 -13t-11.5 -42.5t-2 -104.5v-256h-113v510h107l4 -62h8q20 70 98 70q43 0 64 -17.5t28.5 -55t7.5 -106.5v-339h-113v285zM332.5 670.5q-3.5 -24.5 -18 -38t-44.5 -13.5q-27 0 -76 17q-7 2 -21.5 7.5t-24.5 5.5
q-11 0 -13.5 -8.5t-2.5 -32.5h-69q0 47 4 71.5t18 38t45 13.5q29 0 76 -17q4 -1 19.5 -6.5t26.5 -5.5q10 0 12.5 8.5t2.5 32.5h69q0 -48 -3.5 -72.5z" />
    <glyph glyph-name="ograve" unicode="&#xf2;" horiz-adv-x="381" 
d="M82.5 13.5q-33.5 21.5 -43.5 74t-10 167.5q0 114 10 166.5t43.5 74.5t107.5 22q75 0 108.5 -22t43.5 -74t10 -167t-10 -167.5t-43.5 -74t-108.5 -21.5q-74 0 -107.5 21.5zM224.5 98q9.5 10 12 41.5t2.5 115.5t-2.5 115.5t-12 41.5t-34.5 10q-24 0 -33.5 -10t-12 -41.5
t-2.5 -115.5t2.5 -115.5t12 -41.5t33.5 -10q25 0 34.5 10zM147 598l-55 140v5h111l36 -140v-5h-92z" />
    <glyph glyph-name="oacute" unicode="&#xf3;" horiz-adv-x="381" 
d="M82.5 13.5q-33.5 21.5 -43.5 74t-10 167.5q0 114 10 166.5t43.5 74.5t107.5 22q75 0 108.5 -22t43.5 -74t10 -167t-10 -167.5t-43.5 -74t-108.5 -21.5q-74 0 -107.5 21.5zM224.5 98q9.5 10 12 41.5t2.5 115.5t-2.5 115.5t-12 41.5t-34.5 10q-24 0 -33.5 -10t-12 -41.5
t-2.5 -115.5t2.5 -115.5t12 -41.5t33.5 -10q25 0 34.5 10zM137 598v5l36 140h111v-5l-55 -140h-92z" />
    <glyph glyph-name="ocircumflex" unicode="&#xf4;" horiz-adv-x="381" 
d="M82.5 13.5q-33.5 21.5 -43.5 74t-10 167.5q0 114 10 166.5t43.5 74.5t107.5 22q75 0 108.5 -22t43.5 -74t10 -167t-10 -167.5t-43.5 -74t-108.5 -21.5q-74 0 -107.5 21.5zM224.5 98q9.5 10 12 41.5t2.5 115.5t-2.5 115.5t-12 41.5t-34.5 10q-24 0 -33.5 -10t-12 -41.5
t-2.5 -115.5t2.5 -115.5t12 -41.5t33.5 -10q25 0 34.5 10zM67 616v7l67 120h115l68 -120v-7h-79l-47 71l-45 -71h-79z" />
    <glyph glyph-name="otilde" unicode="&#xf5;" horiz-adv-x="381" 
d="M82.5 13.5q-33.5 21.5 -43.5 74t-10 167.5q0 114 10 166.5t43.5 74.5t107.5 22q75 0 108.5 -22t43.5 -74t10 -167t-10 -167.5t-43.5 -74t-108.5 -21.5q-74 0 -107.5 21.5zM224.5 98q9.5 10 12 41.5t2.5 115.5t-2.5 115.5t-12 41.5t-34.5 10q-24 0 -33.5 -10t-12 -41.5
t-2.5 -115.5t2.5 -115.5t12 -41.5t33.5 -10q25 0 34.5 10zM324.5 670.5q-3.5 -24.5 -18 -38t-44.5 -13.5q-27 0 -76 17q-7 2 -21.5 7.5t-24.5 5.5q-11 0 -13.5 -8.5t-2.5 -32.5h-69q0 47 4 71.5t18 38t45 13.5q29 0 76 -17q4 -1 19.5 -6.5t26.5 -5.5q10 0 12.5 8.5t2.5 32.5
h69q0 -48 -3.5 -72.5z" />
    <glyph glyph-name="odieresis" unicode="&#xf6;" horiz-adv-x="381" 
d="M82.5 13.5q-33.5 21.5 -43.5 74t-10 167.5q0 114 10 166.5t43.5 74.5t107.5 22q75 0 108.5 -22t43.5 -74t10 -167t-10 -167.5t-43.5 -74t-108.5 -21.5q-74 0 -107.5 21.5zM224.5 98q9.5 10 12 41.5t2.5 115.5t-2.5 115.5t-12 41.5t-34.5 10q-24 0 -33.5 -10t-12 -41.5
t-2.5 -115.5t2.5 -115.5t12 -41.5t33.5 -10q25 0 34.5 10zM60 633v97h99v-97h-99zM225 633v97h99v-97h-99z" />
    <glyph glyph-name="divide" unicode="&#xf7;" horiz-adv-x="447" 
d="M172 368v86h102v-86h-102zM52 203v100h342v-100h-342zM172 52v87h102v-87h-102z" />
    <glyph glyph-name="oslash" unicode="&#xf8;" horiz-adv-x="381" 
d="M60 34q-19 27 -25 76t-6 145q0 114 10 166.5t43.5 74.5t107.5 22q27 0 42 -5l19 52h101l-32 -90q20 -27 26 -76t6 -144q0 -115 -10 -167.5t-43.5 -74t-108.5 -21.5q-26 0 -41 4l-19 -51h-101zM224.5 98q9.5 10 12 41.5t2.5 115.5t-2.5 115.5t-12 41.5t-34.5 10
q-24 0 -33.5 -10t-12 -41.5t-2.5 -115.5t2.5 -115.5t12 -41.5t33.5 -10q25 0 34.5 10z" />
    <glyph glyph-name="ugrave" unicode="&#xf9;" horiz-adv-x="392" 
d="M242 62h-7q-20 -70 -98 -70q-43 0 -64.5 17.5t-29 55t-7.5 106.5v339h113v-285q0 -64 3 -90t11.5 -33.5t30.5 -7.5q23 0 32.5 13t11.5 42.5t2 104.5v256h113v-510h-107zM155 598l-55 140v5h111l36 -140v-5h-92z" />
    <glyph glyph-name="uacute" unicode="&#xfa;" horiz-adv-x="392" 
d="M242 62h-7q-20 -70 -98 -70q-43 0 -64.5 17.5t-29 55t-7.5 106.5v339h113v-285q0 -64 3 -90t11.5 -33.5t30.5 -7.5q23 0 32.5 13t11.5 42.5t2 104.5v256h113v-510h-107zM146 598v5l36 140h111v-5l-55 -140h-92z" />
    <glyph glyph-name="ucircumflex" unicode="&#xfb;" horiz-adv-x="392" 
d="M242 62h-7q-20 -70 -98 -70q-43 0 -64.5 17.5t-29 55t-7.5 106.5v339h113v-285q0 -64 3 -90t11.5 -33.5t30.5 -7.5q23 0 32.5 13t11.5 42.5t2 104.5v256h113v-510h-107zM71 616v7l67 120h115l68 -120v-7h-79l-47 71l-45 -71h-79z" />
    <glyph glyph-name="udieresis" unicode="&#xfc;" horiz-adv-x="392" 
d="M242 62h-7q-20 -70 -98 -70q-43 0 -64.5 17.5t-29 55t-7.5 106.5v339h113v-285q0 -64 3 -90t11.5 -33.5t30.5 -7.5q23 0 32.5 13t11.5 42.5t2 104.5v256h113v-510h-107zM63 633v97h99v-97h-99zM228 633v97h99v-97h-99z" />
    <glyph glyph-name="yacute" unicode="&#xfd;" horiz-adv-x="392" 
d="M58 -195v90q60 -2 100 -2t56.5 10t21 35.5t4.5 88.5v43h-7q-20 -68 -97 -68q-43 0 -64 18t-28.5 55.5t-7.5 106.5v328h113v-276q0 -64 3 -89.5t11.5 -33t30.5 -7.5q23 0 32.5 13t11.5 42.5t2 104.5v246h113v-448q0 -104 -10 -157t-46 -80.5t-113 -27.5q-73 0 -126 8z
M146 598v5l36 140h111v-5l-55 -140h-92z" />
    <glyph glyph-name="thorn" unicode="&#xfe;" horiz-adv-x="390" 
d="M39 743h113v-292h8q8 35 31 51t55 16q46 0 70.5 -22t34.5 -77.5t10 -163.5q0 -105 -9 -160.5t-33 -79t-71 -23.5q-72 0 -88 64h-8v-245h-113v932zM233 103q9 9 12 40t3 112t-3 112t-12 40t-33 9q-20 0 -30 -10t-14 -39q-4 -23 -4 -112q0 -80 3 -107q5 -33 15 -43.5
t30 -10.5q24 0 33 9z" />
    <glyph glyph-name="ydieresis" unicode="&#xff;" horiz-adv-x="392" 
d="M58 -195v90q60 -2 100 -2t56.5 10t21 35.5t4.5 88.5v43h-7q-20 -68 -97 -68q-43 0 -64 18t-28.5 55.5t-7.5 106.5v328h113v-276q0 -64 3 -89.5t11.5 -33t30.5 -7.5q23 0 32.5 13t11.5 42.5t2 104.5v246h113v-448q0 -104 -10 -157t-46 -80.5t-113 -27.5q-73 0 -126 8z
M64 633v97h99v-97h-99zM229 633v97h99v-97h-99z" />
    <glyph glyph-name="Amacron" unicode="&#x100;" horiz-adv-x="422" 
d="M292 0l-23 151h-118l-23 -151h-119l113 688h178l114 -688h-122zM213 564h-6l-44 -307h94zM125 784v104h174v-104h-174z" />
    <glyph glyph-name="amacron" unicode="&#x101;" horiz-adv-x="370" 
d="M43 28.5q-23 36.5 -23 118.5q0 58 11 91t36.5 48t71.5 15q37 0 81 -4v28q0 47 -5 66t-21 25t-55 6q-44 0 -98 -7v90q61 13 133 13q64 0 98 -18.5t47.5 -61.5t13.5 -122v-316h-107l-4 62h-7q-8 -36 -32.5 -53t-56.5 -17q-60 0 -83 36.5zM198 99q11 5 16 21q6 26 6 72v31
h-50q-25 0 -33.5 -13t-8.5 -54q0 -36 7.5 -49t33.5 -13q18 0 29 5zM98 639v104h174v-104h-174z" />
    <glyph glyph-name="Abreve" unicode="&#x102;" horiz-adv-x="422" 
d="M292 0l-23 151h-118l-23 -151h-119l113 688h178l114 -688h-122zM213 564h-6l-44 -307h94zM321.5 816q-8.5 -28 -34.5 -44.5t-76 -16.5t-75.5 16.5t-34 44.5t-8.5 72h73q0 -25 2 -37.5t12 -20t31 -7.5q31 0 38.5 15t7.5 50h73q0 -44 -8.5 -72z" />
    <glyph glyph-name="abreve" unicode="&#x103;" horiz-adv-x="370" 
d="M43 28.5q-23 36.5 -23 118.5q0 58 11 91t36.5 48t71.5 15q37 0 81 -4v28q0 47 -5 66t-21 25t-55 6q-44 0 -98 -7v90q61 13 133 13q64 0 98 -18.5t47.5 -61.5t13.5 -122v-316h-107l-4 62h-7q-8 -36 -32.5 -53t-56.5 -17q-60 0 -83 36.5zM198 99q11 5 16 21q6 26 6 72v31
h-50q-25 0 -33.5 -13t-8.5 -54q0 -36 7.5 -49t33.5 -13q18 0 29 5zM294.5 671q-8.5 -28 -34.5 -44.5t-76 -16.5t-75.5 16.5t-34 44.5t-8.5 72h73q0 -25 2 -37.5t12 -20t31 -7.5q31 0 38.5 15t7.5 50h73q0 -44 -8.5 -72z" />
    <glyph glyph-name="Aogonek" unicode="&#x104;" horiz-adv-x="422" 
d="M335 -120.5q8 -10.5 29 -10.5l12 1v-62q-16 -4 -45 -4q-48 0 -69.5 24t-21.5 62q0 27 14.5 57.5t37.5 54.5l-23 149h-118l-23 -151h-119l113 688h178l114 -688h-43q-17 -18 -30.5 -43.5t-13.5 -47.5q0 -19 8 -29.5zM163 257h94l-44 307h-6z" />
    <glyph glyph-name="aogonek" unicode="&#x105;" horiz-adv-x="370" 
d="M334 -130v-62q-16 -4 -43 -4q-49 0 -71 23.5t-22 58.5q0 31 15 60t40 54h-27l-4 62h-7q-8 -36 -32.5 -53t-56.5 -17q-60 0 -83 36.5t-23 118.5q0 58 11 91t36.5 48t71.5 15q37 0 81 -4v28q0 47 -5 66t-21 25t-55 6q-27 0 -55.5 -2.5t-42.5 -4.5v90q61 13 133 13
q64 0 98 -18.5t47.5 -61.5t13.5 -122v-316q-17 -17 -32.5 -43t-15.5 -51q0 -37 37 -37zM220 223h-50q-25 0 -33.5 -13t-8.5 -54q0 -36 7.5 -49t33.5 -13q18 0 29 5t16 21q6 26 6 72v31z" />
    <glyph glyph-name="Cacute" unicode="&#x106;" horiz-adv-x="323" 
d="M258.5 -3.5q-26.5 -4.5 -49.5 -4.5q-79 0 -116 30.5t-49 102t-12 219.5q0 146 12.5 218.5t49.5 103t115 30.5q27 0 52.5 -4t38.5 -11v-101q-39 7 -69 7q-39 0 -54.5 -14.5t-20 -61.5t-4.5 -167t4.5 -167t20 -61.5t54.5 -14.5q38 0 71 7v-100q-17 -7 -43.5 -11.5zM119 743
v5l36 140h111v-5l-55 -140h-92z" />
    <glyph glyph-name="cacute" unicode="&#x107;" horiz-adv-x="294" 
d="M178 -8q-64 0 -96 27.5t-42.5 82t-10.5 153.5q0 102 12 157.5t43.5 80.5t92.5 25q57 0 94 -12v-90q-38 6 -61 6q-32 0 -45 -10.5t-18 -44t-5 -112.5q0 -80 5 -113.5t18.5 -43.5t45.5 -10q23 0 63 6v-89q-46 -13 -96 -13zM98 598v5l36 140h111v-5l-55 -140h-92z" />
    <glyph glyph-name="Ccircumflex" unicode="&#x108;" horiz-adv-x="323" 
d="M258.5 -3.5q-26.5 -4.5 -49.5 -4.5q-79 0 -116 30.5t-49 102t-12 219.5q0 146 12.5 218.5t49.5 103t115 30.5q27 0 52.5 -4t38.5 -11v-101q-39 7 -69 7q-39 0 -54.5 -14.5t-20 -61.5t-4.5 -167t4.5 -167t20 -61.5t54.5 -14.5q38 0 71 7v-100q-17 -7 -43.5 -11.5zM37 761
v7l67 120h115l68 -120v-7h-79l-47 71l-45 -71h-79z" />
    <glyph glyph-name="ccircumflex" unicode="&#x109;" horiz-adv-x="294" 
d="M178 -8q-64 0 -96 27.5t-42.5 82t-10.5 153.5q0 102 12 157.5t43.5 80.5t92.5 25q57 0 94 -12v-90q-38 6 -61 6q-32 0 -45 -10.5t-18 -44t-5 -112.5q0 -80 5 -113.5t18.5 -43.5t45.5 -10q23 0 63 6v-89q-46 -13 -96 -13zM22 616v7l67 120h115l68 -120v-7h-79l-47 71
l-45 -71h-79z" />
    <glyph glyph-name="Cdotaccent" unicode="&#x10a;" horiz-adv-x="323" 
d="M258.5 -3.5q-26.5 -4.5 -49.5 -4.5q-79 0 -116 30.5t-49 102t-12 219.5q0 146 12.5 218.5t49.5 103t115 30.5q27 0 52.5 -4t38.5 -11v-101q-39 7 -69 7q-39 0 -54.5 -14.5t-20 -61.5t-4.5 -167t4.5 -167t20 -61.5t54.5 -14.5q38 0 71 7v-100q-17 -7 -43.5 -11.5zM112 778
v97h99v-97h-99z" />
    <glyph glyph-name="cdotaccent" unicode="&#x10b;" horiz-adv-x="294" 
d="M178 -8q-64 0 -96 27.5t-42.5 82t-10.5 153.5q0 102 12 157.5t43.5 80.5t92.5 25q57 0 94 -12v-90q-38 6 -61 6q-32 0 -45 -10.5t-18 -44t-5 -112.5q0 -80 5 -113.5t18.5 -43.5t45.5 -10q23 0 63 6v-89q-46 -13 -96 -13zM97 633v97h99v-97h-99z" />
    <glyph glyph-name="Ccaron" unicode="&#x10c;" horiz-adv-x="323" 
d="M258.5 -3.5q-26.5 -4.5 -49.5 -4.5q-79 0 -116 30.5t-49 102t-12 219.5q0 146 12.5 218.5t49.5 103t115 30.5q27 0 52.5 -4t38.5 -11v-101q-39 7 -69 7q-39 0 -54.5 -14.5t-20 -61.5t-4.5 -167t4.5 -167t20 -61.5t54.5 -14.5q38 0 71 7v-100q-17 -7 -43.5 -11.5zM104 761
l-67 119v8h79l45 -71l47 71h79v-8l-68 -119h-115z" />
    <glyph glyph-name="ccaron" unicode="&#x10d;" horiz-adv-x="294" 
d="M178 -8q-64 0 -96 27.5t-42.5 82t-10.5 153.5q0 102 12 157.5t43.5 80.5t92.5 25q57 0 94 -12v-90q-38 6 -61 6q-32 0 -45 -10.5t-18 -44t-5 -112.5q0 -80 5 -113.5t18.5 -43.5t45.5 -10q23 0 63 6v-89q-46 -13 -96 -13zM89 616l-67 119v8h79l45 -71l47 71h79v-8
l-68 -119h-115z" />
    <glyph glyph-name="Dcaron" unicode="&#x10e;" horiz-adv-x="416" 
d="M43 688h161q87 0 124 -29.5t46.5 -95t9.5 -219.5q0 -153 -9.5 -219t-46.5 -95.5t-124 -29.5h-161v688zM204 109q31 0 42 11.5t15 57.5t4 166t-4 166t-15 57.5t-42 11.5h-42v-470h42zM150 761l-67 119v8h79l45 -71l47 71h79v-8l-68 -119h-115z" />
    <glyph glyph-name="dcaron" unicode="&#x10f;" horiz-adv-x="468" 
d="M73.5 14q-24.5 22 -34.5 77.5t-10 163.5q0 105 9.5 160.5t33 79t70.5 23.5q37 0 58.5 -16t30.5 -48h7v289h113v-743h-107l-4 61h-7q-9 -38 -33 -53.5t-56 -15.5q-46 0 -70.5 22zM220 103q10 9 14 33q4 31 4 123q0 85 -4 109q-4 29 -14 38.5t-31 9.5q-23 0 -32 -9
t-12 -40.5t-3 -111.5t3 -111.5t12 -40.5t33 -9q20 0 30 9zM381 430l15 202v56h108v-56l-40 -202h-83z" />
    <glyph glyph-name="Dcroat" unicode="&#x110;" horiz-adv-x="417" 
d="M43 293h-40v110h40v285h161q87 0 124 -29.5t46.5 -95t9.5 -219.5q0 -153 -9.5 -219t-46.5 -95.5t-124 -29.5h-161v293zM246 120.5q11 11.5 15 57.5t4 166t-4 166t-15 57.5t-42 11.5h-42v-176h58v-110h-58v-184h42q31 0 42 11.5z" />
    <glyph glyph-name="dcroat" unicode="&#x111;" horiz-adv-x="390" 
d="M389 592h-38v-592h-107l-4 61h-7q-9 -38 -33 -53.5t-56 -15.5q-46 0 -70.5 22t-34.5 77.5t-10 163.5q0 105 9.5 160.5t33 79t70.5 23.5q37 0 58.5 -16t30.5 -48h7v138h-87v96h87v55h113v-55h38v-96zM238 259q0 85 -4 109q-4 29 -14 38.5t-31 9.5q-23 0 -32 -9t-12 -40.5
t-3 -111.5t3 -111.5t12 -40.5t33 -9q20 0 30 9t14 33q4 31 4 123z" />
    <glyph glyph-name="Emacron" unicode="&#x112;" horiz-adv-x="345" 
d="M43 0v688h274v-109h-153v-177h134v-109h-134v-184h153v-109h-274zM93 784v104h174v-104h-174z" />
    <glyph glyph-name="emacron" unicode="&#x113;" horiz-adv-x="370" 
d="M341 221h-199q0 -64 4.5 -89.5t20 -34.5t54.5 -9q35 0 110 7v-89q-23 -6 -61 -10t-74 -4q-77 0 -112.5 26t-45 78.5t-9.5 157.5t9.5 157.5t44 79.5t108.5 27q72 0 103.5 -25t39 -75.5t7.5 -162.5v-34zM158.5 414.5q-9.5 -7.5 -13 -32.5t-3.5 -83h93v5q0 56 -3 79.5
t-12 31t-30 7.5q-22 0 -31.5 -7.5zM98 639v104h174v-104h-174z" />
    <glyph glyph-name="Ebreve" unicode="&#x114;" horiz-adv-x="345" 
d="M43 0v688h274v-109h-153v-177h134v-109h-134v-184h153v-109h-274zM289.5 816q-8.5 -28 -34.5 -44.5t-76 -16.5t-75.5 16.5t-34 44.5t-8.5 72h73q0 -25 2 -37.5t12 -20t31 -7.5q31 0 38.5 15t7.5 50h73q0 -44 -8.5 -72z" />
    <glyph glyph-name="ebreve" unicode="&#x115;" horiz-adv-x="370" 
d="M341 221h-199q0 -64 4.5 -89.5t20 -34.5t54.5 -9q35 0 110 7v-89q-23 -6 -61 -10t-74 -4q-77 0 -112.5 26t-45 78.5t-9.5 157.5t9.5 157.5t44 79.5t108.5 27q72 0 103.5 -25t39 -75.5t7.5 -162.5v-34zM158.5 414.5q-9.5 -7.5 -13 -32.5t-3.5 -83h93v5q0 56 -3 79.5
t-12 31t-30 7.5q-22 0 -31.5 -7.5zM294.5 671q-8.5 -28 -34.5 -44.5t-76 -16.5t-75.5 16.5t-34 44.5t-8.5 72h73q0 -25 2 -37.5t12 -20t31 -7.5q31 0 38.5 15t7.5 50h73q0 -44 -8.5 -72z" />
    <glyph glyph-name="Edotaccent" unicode="&#x116;" horiz-adv-x="345" 
d="M43 0v688h274v-109h-153v-177h134v-109h-134v-184h153v-109h-274zM130 778v97h99v-97h-99z" />
    <glyph glyph-name="edotaccent" unicode="&#x117;" horiz-adv-x="370" 
d="M341 221h-199q0 -64 4.5 -89.5t20 -34.5t54.5 -9q35 0 110 7v-89q-23 -6 -61 -10t-74 -4q-77 0 -112.5 26t-45 78.5t-9.5 157.5t9.5 157.5t44 79.5t108.5 27q72 0 103.5 -25t39 -75.5t7.5 -162.5v-34zM158.5 414.5q-9.5 -7.5 -13 -32.5t-3.5 -83h93v5q0 56 -3 79.5
t-12 31t-30 7.5q-22 0 -31.5 -7.5zM135 633v97h99v-97h-99z" />
    <glyph glyph-name="Eogonek" unicode="&#x118;" horiz-adv-x="345" 
d="M196 -172.5q-22 23.5 -22 57.5q0 60 62 115h-193v688h274v-109h-153v-177h134v-109h-134v-184h153v-109q-21 -17 -38.5 -42.5t-17.5 -52.5q0 -36 37 -36l12 1v-62q-16 -4 -43 -4q-49 0 -71 23.5z" />
    <glyph glyph-name="eogonek" unicode="&#x119;" horiz-adv-x="370" 
d="M341 221h-199q0 -64 4.5 -89.5t20 -34.5t54.5 -9q35 0 110 7v-89q-21 -18 -38.5 -45t-17.5 -55q0 -37 37 -37l12 1v-62q-16 -4 -44 -4q-48 0 -70 23.5t-22 59.5q0 53 50 107q-15 -2 -42 -2q-77 0 -112.5 26t-45 78.5t-9.5 157.5t9.5 157.5t44 79.5t108.5 27
q72 0 103.5 -25t39 -75.5t7.5 -162.5v-34zM158.5 414.5q-9.5 -7.5 -13 -32.5t-3.5 -83h93v5q0 56 -3 79.5t-12 31t-30 7.5q-22 0 -31.5 -7.5z" />
    <glyph glyph-name="Ecaron" unicode="&#x11a;" horiz-adv-x="345" 
d="M43 0v688h274v-109h-153v-177h134v-109h-134v-184h153v-109h-274zM122 761l-67 119v8h79l45 -71l47 71h79v-8l-68 -119h-115z" />
    <glyph glyph-name="ecaron" unicode="&#x11b;" horiz-adv-x="370" 
d="M341 221h-199q0 -64 4.5 -89.5t20 -34.5t54.5 -9q35 0 110 7v-89q-23 -6 -61 -10t-74 -4q-77 0 -112.5 26t-45 78.5t-9.5 157.5t9.5 157.5t44 79.5t108.5 27q72 0 103.5 -25t39 -75.5t7.5 -162.5v-34zM158.5 414.5q-9.5 -7.5 -13 -32.5t-3.5 -83h93v5q0 56 -3 79.5
t-12 31t-30 7.5q-22 0 -31.5 -7.5zM127 616l-67 119v8h79l45 -71l47 71h79v-8l-68 -119h-115z" />
    <glyph glyph-name="Gcircumflex" unicode="&#x11c;" horiz-adv-x="408" 
d="M212 288v106h160v-381q-29 -10 -71 -15.5t-81 -5.5q-80 0 -119 28t-54 101.5t-15 222.5t16 222.5t58 101.5t126 28q32 0 71.5 -5.5t67.5 -13.5v-101q-71 11 -106 11q-56 0 -77 -12t-29 -60t-8 -171q0 -117 4.5 -165t18.5 -64.5t49 -16.5q25 0 41 4v186h-52zM79 761v7
l67 120h115l68 -120v-7h-79l-47 71l-45 -71h-79z" />
    <glyph glyph-name="gcircumflex" unicode="&#x11d;" horiz-adv-x="390" 
d="M53 -195v89q32 -1 102 -1q40 0 57 9.5t21.5 35.5t4.5 90v38h-7q-9 -32 -30.5 -48t-58.5 -16q-47 0 -70.5 23.5t-33 78t-9.5 157.5q0 105 10 159.5t34.5 76t70.5 21.5q32 0 56 -15.5t33 -53.5h7l4 61h107v-447q0 -105 -10 -158t-46 -80.5t-114 -27.5q-72 0 -128 8z
M219.5 112.5q9.5 8.5 13.5 31.5q3 16 4 46.5t1 70.5q0 85 -4 107q-4 28 -14 38t-30 10q-23 0 -32.5 -8.5t-12.5 -39t-3 -107.5q0 -78 3 -109t12 -39.5t33 -8.5q20 0 29.5 8.5zM70 616v7l67 120h115l68 -120v-7h-79l-47 71l-45 -71h-79z" />
    <glyph glyph-name="Gbreve" unicode="&#x11e;" horiz-adv-x="408" 
d="M212 288v106h160v-381q-29 -10 -71 -15.5t-81 -5.5q-80 0 -119 28t-54 101.5t-15 222.5t16 222.5t58 101.5t126 28q32 0 71.5 -5.5t67.5 -13.5v-101q-71 11 -106 11q-56 0 -77 -12t-29 -60t-8 -171q0 -117 4.5 -165t18.5 -64.5t49 -16.5q25 0 41 4v186h-52zM313.5 816
q-8.5 -28 -34.5 -44.5t-76 -16.5t-75.5 16.5t-34 44.5t-8.5 72h73q0 -25 2 -37.5t12 -20t31 -7.5q31 0 38.5 15t7.5 50h73q0 -44 -8.5 -72z" />
    <glyph glyph-name="gbreve" unicode="&#x11f;" horiz-adv-x="390" 
d="M53 -195v89q32 -1 102 -1q40 0 57 9.5t21.5 35.5t4.5 90v38h-7q-9 -32 -30.5 -48t-58.5 -16q-47 0 -70.5 23.5t-33 78t-9.5 157.5q0 105 10 159.5t34.5 76t70.5 21.5q32 0 56 -15.5t33 -53.5h7l4 61h107v-447q0 -105 -10 -158t-46 -80.5t-114 -27.5q-72 0 -128 8z
M219.5 112.5q9.5 8.5 13.5 31.5q3 16 4 46.5t1 70.5q0 85 -4 107q-4 28 -14 38t-30 10q-23 0 -32.5 -8.5t-12.5 -39t-3 -107.5q0 -78 3 -109t12 -39.5t33 -8.5q20 0 29.5 8.5zM304.5 671q-8.5 -28 -34.5 -44.5t-76 -16.5t-75.5 16.5t-34 44.5t-8.5 72h73q0 -25 2 -37.5
t12 -20t31 -7.5q31 0 38.5 15t7.5 50h73q0 -44 -8.5 -72z" />
    <glyph glyph-name="Gdotaccent" unicode="&#x120;" horiz-adv-x="408" 
d="M212 288v106h160v-381q-29 -10 -71 -15.5t-81 -5.5q-80 0 -119 28t-54 101.5t-15 222.5t16 222.5t58 101.5t126 28q32 0 71.5 -5.5t67.5 -13.5v-101q-71 11 -106 11q-56 0 -77 -12t-29 -60t-8 -171q0 -117 4.5 -165t18.5 -64.5t49 -16.5q25 0 41 4v186h-52zM154 778v97
h99v-97h-99z" />
    <glyph glyph-name="gdotaccent" unicode="&#x121;" horiz-adv-x="390" 
d="M53 -195v89q32 -1 102 -1q40 0 57 9.5t21.5 35.5t4.5 90v38h-7q-9 -32 -30.5 -48t-58.5 -16q-47 0 -70.5 23.5t-33 78t-9.5 157.5q0 105 10 159.5t34.5 76t70.5 21.5q32 0 56 -15.5t33 -53.5h7l4 61h107v-447q0 -105 -10 -158t-46 -80.5t-114 -27.5q-72 0 -128 8z
M219.5 112.5q9.5 8.5 13.5 31.5q3 16 4 46.5t1 70.5q0 85 -4 107q-4 28 -14 38t-30 10q-23 0 -32.5 -8.5t-12.5 -39t-3 -107.5q0 -78 3 -109t12 -39.5t33 -8.5q20 0 29.5 8.5zM145 633v97h99v-97h-99z" />
    <glyph glyph-name="Gcommaaccent" unicode="&#x122;" horiz-adv-x="408" 
d="M212 288v106h160v-381q-29 -10 -71 -15.5t-81 -5.5q-80 0 -119 28t-54 101.5t-15 222.5t16 222.5t58 101.5t126 28q32 0 71.5 -5.5t67.5 -13.5v-101q-71 11 -106 11q-56 0 -77 -12t-29 -60t-8 -171q0 -117 4.5 -165t18.5 -64.5t49 -16.5q25 0 41 4v186h-52zM184 -210.5
q9 10.5 9 40.5v14h-44v94h118v-64q0 -61 -8.5 -91t-34 -42.5t-79.5 -12.5v51q30 0 39 10.5z" />
    <glyph glyph-name="gcommaaccent" unicode="&#x123;" horiz-adv-x="390" 
d="M53 -195v89q32 -1 102 -1q40 0 57 9.5t21.5 35.5t4.5 90v38h-7q-9 -32 -30.5 -48t-58.5 -16q-47 0 -70.5 23.5t-33 78t-9.5 157.5q0 105 10 159.5t34.5 76t70.5 21.5q32 0 56 -15.5t33 -53.5h7l4 61h107v-447q0 -105 -10 -158t-46 -80.5t-114 -27.5q-72 0 -128 8z
M219.5 112.5q9.5 8.5 13.5 31.5q3 16 4 46.5t1 70.5q0 85 -4 107q-4 28 -14 38t-30 10q-23 0 -32.5 -8.5t-12.5 -39t-3 -107.5q0 -78 3 -109t12 -39.5t33 -8.5q20 0 29.5 8.5zM219 747q-9 -10 -9 -40v-15h44v-93h-118v64q0 61 8.5 91t34 42.5t79.5 12.5v-52q-30 0 -39 -10z
" />
    <glyph glyph-name="Hcircumflex" unicode="&#x124;" horiz-adv-x="436" 
d="M272 0v290h-108v-290h-121v688h121v-284h108v284h121v-688h-121zM93 761v7l67 120h115l68 -120v-7h-79l-47 71l-45 -71h-79z" />
    <glyph glyph-name="hcircumflex" unicode="&#x125;" horiz-adv-x="392" 
d="M243 285q0 65 -2.5 90.5t-11 33t-30.5 7.5q-24 0 -33.5 -13t-11.5 -42.5t-2 -104.5v-256h-113v743h113v-291h8q19 66 96 66q43 0 64 -17.5t28.5 -55t7.5 -106.5v-339h-113v285zM-29 794v7l67 120h115l68 -120v-7h-79l-47 71l-45 -71h-79z" />
    <glyph glyph-name="Hbar" unicode="&#x126;" horiz-adv-x="436" 
d="M272 688h121v-688h-121v255h-108v-255h-121v688h121v-100h108v100zM164 370h108v109h-108v-109z" />
    <glyph glyph-name="hbar" unicode="&#x127;" horiz-adv-x="392" 
d="M320 500.5q21 -17.5 28.5 -55t7.5 -106.5v-339h-113v285q0 65 -2.5 90.5t-11 33t-30.5 7.5q-24 0 -33.5 -13t-11.5 -42.5t-2 -104.5v-256h-113v592h-38v96h38v55h113v-55h88v-96h-88v-140h8q19 66 96 66q43 0 64 -17.5z" />
    <glyph glyph-name="Itilde" unicode="&#x128;" horiz-adv-x="210" 
d="M45 0v688h120v-688h-120zM237.5 815.5q-3.5 -24.5 -18 -38t-44.5 -13.5q-27 0 -76 17q-7 2 -21.5 7.5t-24.5 5.5q-11 0 -13.5 -8.5t-2.5 -32.5h-69q0 47 4 71.5t18 38t45 13.5q29 0 76 -17q4 -1 19.5 -6.5t26.5 -5.5q10 0 12.5 8.5t2.5 32.5h69q0 -48 -3.5 -72.5z" />
    <glyph glyph-name="itilde" unicode="&#x129;" horiz-adv-x="191" 
d="M39 0v510h113v-510h-113zM228.5 670.5q-3.5 -24.5 -18 -38t-44.5 -13.5q-27 0 -76 17q-7 2 -21.5 7.5t-24.5 5.5q-11 0 -13.5 -8.5t-2.5 -32.5h-69q0 47 4 71.5t18 38t45 13.5q29 0 76 -17q4 -1 19.5 -6.5t26.5 -5.5q10 0 12.5 8.5t2.5 32.5h69q0 -48 -3.5 -72.5z" />
    <glyph glyph-name="Imacron" unicode="&#x12a;" horiz-adv-x="210" 
d="M45 0v688h120v-688h-120zM18 784v104h174v-104h-174z" />
    <glyph glyph-name="imacron" unicode="&#x12b;" horiz-adv-x="191" 
d="M39 0v510h113v-510h-113zM9 639v104h174v-104h-174z" />
    <glyph glyph-name="Ibreve" unicode="&#x12c;" horiz-adv-x="210" 
d="M45 0v688h120v-688h-120zM214.5 816q-8.5 -28 -34.5 -44.5t-76 -16.5t-75.5 16.5t-34 44.5t-8.5 72h73q0 -25 2 -37.5t12 -20t31 -7.5q31 0 38.5 15t7.5 50h73q0 -44 -8.5 -72z" />
    <glyph glyph-name="ibreve" unicode="&#x12d;" horiz-adv-x="191" 
d="M39 0v510h113v-510h-113zM205.5 671q-8.5 -28 -34.5 -44.5t-76 -16.5t-75.5 16.5t-34 44.5t-8.5 72h73q0 -25 2 -37.5t12 -20t31 -7.5q31 0 38.5 15t7.5 50h73q0 -44 -8.5 -72z" />
    <glyph glyph-name="Iogonek" unicode="&#x12e;" horiz-adv-x="210" 
d="M51.5 -172q-21.5 24 -21.5 62q0 27 15 56.5t39 53.5h-39v688h120v-688q-17 -15 -32.5 -41.5t-15.5 -49.5q0 -19 8 -29.5t29 -10.5l12 1v-62q-16 -4 -45 -4q-48 0 -69.5 24z" />
    <glyph glyph-name="iogonek" unicode="&#x12f;" horiz-adv-x="191" 
d="M145 730v-97h-99v97h99zM118.5 -42.5q-15.5 -26.5 -15.5 -51.5q0 -37 37 -37l12 1v-62q-16 -4 -43 -4q-49 0 -71 23.5t-22 59.5q0 30 15 59.5t40 53.5h-32v510h113v-510q-18 -16 -33.5 -42.5z" />
    <glyph glyph-name="Idotaccent" unicode="&#x130;" horiz-adv-x="210" 
d="M45 0v688h120v-688h-120zM55 778v97h99v-97h-99z" />
    <glyph glyph-name="dotlessi" unicode="&#x131;" horiz-adv-x="191" 
d="M39 0v510h113v-510h-113z" />
    <glyph glyph-name="IJ" unicode="&#x132;" horiz-adv-x="455" 
d="M45 0v688h120v-688h-120zM272 111q15 7 19.5 32t4.5 93v452h120v-390q0 -153 -11 -209t-48.5 -72t-140.5 -17v103q41 1 56 8z" />
    <glyph glyph-name="ij" unicode="&#x133;" horiz-adv-x="382" 
d="M38 630v113h115v-113h-115zM39 0v510h113v-510h-113zM229 630v113h115v-113h-115zM179 -109q24 0 35 5t13.5 15t2.5 32v567h113v-512q0 -90 -14 -130t-46.5 -52t-103.5 -12v87z" />
    <glyph glyph-name="Jcircumflex" unicode="&#x134;" horiz-adv-x="245" 
d="M62 111q15 7 19.5 32t4.5 93v452h120v-390q0 -153 -11 -209t-48.5 -72t-140.5 -17v103q41 1 56 8zM21 761v7l67 120h115l68 -120v-7h-79l-47 71l-45 -71h-79z" />
    <glyph glyph-name="jcircumflex" unicode="&#x135;" horiz-adv-x="191" 
d="M-12 -109q24 0 35 5t13.5 15t2.5 32v567h113v-512q0 -90 -14 -130t-46.5 -52t-103.5 -12v87zM-29 616v7l67 120h115l68 -120v-7h-79l-47 71l-45 -71h-79z" />
    <glyph glyph-name="Kcommaaccent" unicode="&#x136;" horiz-adv-x="410" 
d="M278 0l-80 291h-34v-291h-121v688h121v-282h34l82 282h123l-111 -332l112 -356h-126zM185 -210.5q9 10.5 9 40.5v14h-44v94h118v-64q0 -61 -8.5 -91t-34 -42.5t-79.5 -12.5v51q30 0 39 10.5z" />
    <glyph glyph-name="kcommaaccent" unicode="&#x137;" horiz-adv-x="370" 
d="M247 0l-67 206h-28v-206h-113v743h113v-440h28l69 207h113l-88 -243l90 -267h-117zM165 -210.5q9 10.5 9 40.5v14h-44v94h118v-64q0 -61 -8.5 -91t-34 -42.5t-79.5 -12.5v51q30 0 39 10.5z" />
    <glyph glyph-name="kgreenlandic" unicode="&#x138;" horiz-adv-x="370" 
d="M247 0l-67 206h-28v-206h-113v510h113v-207h28l69 207h113l-88 -243l90 -267h-117z" />
    <glyph glyph-name="Lacute" unicode="&#x139;" horiz-adv-x="311" 
d="M43 0v688h121v-577h138v-111h-259zM61 743v5l36 140h111v-5l-55 -140h-92z" />
    <glyph glyph-name="lacute" unicode="&#x13a;" horiz-adv-x="191" 
d="M39 0v743h113v-743h-113zM47 776v5l36 140h111v-5l-55 -140h-92z" />
    <glyph glyph-name="Lcommaaccent" unicode="&#x13b;" horiz-adv-x="311" 
d="M43 0v688h121v-577h138v-111h-259zM140 -210.5q9 10.5 9 40.5v14h-44v94h118v-64q0 -61 -8.5 -91t-34 -42.5t-79.5 -12.5v51q30 0 39 10.5z" />
    <glyph glyph-name="lcommaaccent" unicode="&#x13c;" horiz-adv-x="191" 
d="M39 0v743h113v-743h-113zM76 -210.5q9 10.5 9 40.5v14h-44v94h118v-64q0 -61 -8.5 -91t-34 -42.5t-79.5 -12.5v51q30 0 39 10.5z" />
    <glyph glyph-name="Lcaron" unicode="&#x13d;" horiz-adv-x="311" 
d="M43 0v688h121v-577h138v-111h-259zM215 430l15 202v56h108v-56l-40 -202h-83z" />
    <glyph glyph-name="lcaron" unicode="&#x13e;" horiz-adv-x="275" 
d="M39 0v743h113v-743h-113zM182 430l15 202v56h108v-56l-40 -202h-83z" />
    <glyph glyph-name="Ldot" unicode="&#x13f;" horiz-adv-x="351" 
d="M43 0v688h121v-577h138v-111h-259zM223 312v121h124v-121h-124z" />
    <glyph glyph-name="ldot" unicode="&#x140;" horiz-adv-x="282" 
d="M39 0v743h113v-743h-113zM185 238v121h107v-121h-107z" />
    <glyph glyph-name="Lslash" unicode="&#x141;" horiz-adv-x="311" 
d="M164 111h138v-111h-259v259l-37 -14v102l37 14v327h121v-281l90 34v-102l-90 -34v-194z" />
    <glyph glyph-name="lslash" unicode="&#x142;" horiz-adv-x="197" 
d="M40 0v287l-35 -12v102l35 12v354h113v-313l39 14v-102l-39 -14v-328h-113z" />
    <glyph glyph-name="Nacute" unicode="&#x143;" horiz-adv-x="439" 
d="M289 0l-127 388h-4v-388h-115v688h114l119 -361h6v361h114v-688h-107zM177 743v5l36 140h111v-5l-55 -140h-92z" />
    <glyph glyph-name="nacute" unicode="&#x144;" horiz-adv-x="392" 
d="M243 285q0 65 -2.5 90.5t-11 33t-30.5 7.5q-24 0 -33.5 -13t-11.5 -42.5t-2 -104.5v-256h-113v510h107l4 -62h8q20 70 98 70q43 0 64 -17.5t28.5 -55t7.5 -106.5v-339h-113v285zM147 598v5l36 140h111v-5l-55 -140h-92z" />
    <glyph glyph-name="Ncommaaccent" unicode="&#x145;" horiz-adv-x="439" 
d="M289 0l-127 388h-4v-388h-115v688h114l119 -361h6v361h114v-688h-107zM200 -210.5q9 10.5 9 40.5v14h-44v94h118v-64q0 -61 -8.5 -91t-34 -42.5t-79.5 -12.5v51q30 0 39 10.5z" />
    <glyph glyph-name="ncommaaccent" unicode="&#x146;" horiz-adv-x="392" 
d="M243 285q0 65 -2.5 90.5t-11 33t-30.5 7.5q-24 0 -33.5 -13t-11.5 -42.5t-2 -104.5v-256h-113v510h107l4 -62h8q20 70 98 70q43 0 64 -17.5t28.5 -55t7.5 -106.5v-339h-113v285zM176 -210.5q9 10.5 9 40.5v14h-44v94h118v-64q0 -61 -8.5 -91t-34 -42.5t-79.5 -12.5v51
q30 0 39 10.5z" />
    <glyph glyph-name="Ncaron" unicode="&#x147;" horiz-adv-x="439" 
d="M289 0l-127 388h-4v-388h-115v688h114l119 -361h6v361h114v-688h-107zM162 761l-67 119v8h79l45 -71l47 71h79v-8l-68 -119h-115z" />
    <glyph glyph-name="ncaron" unicode="&#x148;" horiz-adv-x="392" 
d="M243 285q0 65 -2.5 90.5t-11 33t-30.5 7.5q-24 0 -33.5 -13t-11.5 -42.5t-2 -104.5v-256h-113v510h107l4 -62h8q20 70 98 70q43 0 64 -17.5t28.5 -55t7.5 -106.5v-339h-113v285zM138 616l-67 119v8h79l45 -71l47 71h79v-8l-68 -119h-115z" />
    <glyph glyph-name="napostrophe" unicode="&#x149;" horiz-adv-x="488" 
d="M54 578.5q9 14.5 9 57.5v14h-45v93h118v-63q0 -70 -8.5 -104t-34 -49t-79.5 -15v52q31 0 40 14.5zM339 285q0 65 -2.5 90.5t-11 33t-30.5 7.5q-24 0 -33.5 -13t-11.5 -42.5t-2 -104.5v-256h-113v510h107l4 -62h8q20 70 98 70q43 0 64 -17.5t28.5 -55t7.5 -106.5v-339
h-113v285z" />
    <glyph glyph-name="Eng" unicode="&#x14a;" horiz-adv-x="439" 
d="M396 688v-714q-1 -78 -16.5 -113.5t-48 -46t-100.5 -10.5v87q24 0 35 5t13.5 15t2.5 32v88l-120 357h-4v-388h-115v688h114l119 -358h6v358h114z" />
    <glyph glyph-name="eng" unicode="&#x14b;" horiz-adv-x="392" 
d="M320 500.5q21 -17.5 28.5 -55t7.5 -106.5v-341q0 -90 -14 -130t-46.5 -52t-103.5 -12v87q24 0 35 5t13.5 15t2.5 32v342q0 65 -2.5 90.5t-11 33t-30.5 7.5q-24 0 -33.5 -13t-11.5 -42.5t-2 -104.5v-256h-113v510h107l4 -62h8q20 70 98 70q43 0 64 -17.5z" />
    <glyph glyph-name="Omacron" unicode="&#x14c;" horiz-adv-x="423" 
d="M87.5 22q-36.5 30 -46 97.5t-9.5 224.5t9.5 224.5t46 97.5t123.5 30t124 -30t46.5 -97.5t9.5 -224.5t-9.5 -224.5t-46.5 -97.5t-124 -30t-123.5 30zM252 113q11 12 14.5 59t3.5 172t-3.5 172t-14.5 59t-41 12t-40.5 -12t-14.5 -59.5t-4 -171.5t4 -171.5t14.5 -59.5
t40.5 -12t41 12zM124 784v104h174v-104h-174z" />
    <glyph glyph-name="omacron" unicode="&#x14d;" horiz-adv-x="381" 
d="M82.5 13.5q-33.5 21.5 -43.5 74t-10 167.5q0 114 10 166.5t43.5 74.5t107.5 22q75 0 108.5 -22t43.5 -74t10 -167t-10 -167.5t-43.5 -74t-108.5 -21.5q-74 0 -107.5 21.5zM224.5 98q9.5 10 12 41.5t2.5 115.5t-2.5 115.5t-12 41.5t-34.5 10q-24 0 -33.5 -10t-12 -41.5
t-2.5 -115.5t2.5 -115.5t12 -41.5t33.5 -10q25 0 34.5 10zM103 639v104h174v-104h-174z" />
    <glyph glyph-name="Obreve" unicode="&#x14e;" horiz-adv-x="423" 
d="M87.5 22q-36.5 30 -46 97.5t-9.5 224.5t9.5 224.5t46 97.5t123.5 30t124 -30t46.5 -97.5t9.5 -224.5t-9.5 -224.5t-46.5 -97.5t-124 -30t-123.5 30zM252 113q11 12 14.5 59t3.5 172t-3.5 172t-14.5 59t-41 12t-40.5 -12t-14.5 -59.5t-4 -171.5t4 -171.5t14.5 -59.5
t40.5 -12t41 12zM320.5 816q-8.5 -28 -34.5 -44.5t-76 -16.5t-75.5 16.5t-34 44.5t-8.5 72h73q0 -25 2 -37.5t12 -20t31 -7.5q31 0 38.5 15t7.5 50h73q0 -44 -8.5 -72z" />
    <glyph glyph-name="obreve" unicode="&#x14f;" horiz-adv-x="381" 
d="M82.5 13.5q-33.5 21.5 -43.5 74t-10 167.5q0 114 10 166.5t43.5 74.5t107.5 22q75 0 108.5 -22t43.5 -74t10 -167t-10 -167.5t-43.5 -74t-108.5 -21.5q-74 0 -107.5 21.5zM224.5 98q9.5 10 12 41.5t2.5 115.5t-2.5 115.5t-12 41.5t-34.5 10q-24 0 -33.5 -10t-12 -41.5
t-2.5 -115.5t2.5 -115.5t12 -41.5t33.5 -10q25 0 34.5 10zM299.5 671q-8.5 -28 -34.5 -44.5t-76 -16.5t-75.5 16.5t-34 44.5t-8.5 72h73q0 -25 2 -37.5t12 -20t31 -7.5q31 0 38.5 15t7.5 50h73q0 -44 -8.5 -72z" />
    <glyph glyph-name="Ohungarumlaut" unicode="&#x150;" horiz-adv-x="423" 
d="M87.5 22q-36.5 30 -46 97.5t-9.5 224.5t9.5 224.5t46 97.5t123.5 30t124 -30t46.5 -97.5t9.5 -224.5t-9.5 -224.5t-46.5 -97.5t-124 -30t-123.5 30zM252 113q11 12 14.5 59t3.5 172t-3.5 172t-14.5 59t-41 12t-40.5 -12t-14.5 -59.5t-4 -171.5t4 -171.5t14.5 -59.5
t40.5 -12t41 12zM118 757v4l28 113h93v-5l-45 -112h-76zM241 757v4l29 113h92v-5l-44 -112h-77z" />
    <glyph glyph-name="ohungarumlaut" unicode="&#x151;" horiz-adv-x="381" 
d="M82.5 13.5q-33.5 21.5 -43.5 74t-10 167.5q0 114 10 166.5t43.5 74.5t107.5 22q75 0 108.5 -22t43.5 -74t10 -167t-10 -167.5t-43.5 -74t-108.5 -21.5q-74 0 -107.5 21.5zM224.5 98q9.5 10 12 41.5t2.5 115.5t-2.5 115.5t-12 41.5t-34.5 10q-24 0 -33.5 -10t-12 -41.5
t-2.5 -115.5t2.5 -115.5t12 -41.5t33.5 -10q25 0 34.5 10zM99 612v4l28 113h93v-5l-45 -112h-76zM222 612v4l29 113h92v-5l-44 -112h-77z" />
    <glyph glyph-name="OE" unicode="&#x152;" horiz-adv-x="594" 
d="M87.5 29.5q-36.5 29.5 -46 95.5t-9.5 219t9.5 219t46 95.5t123.5 29.5h355v-109h-148q-27 0 -51 4q12 -26 17 -69t6 -112h157v-109h-156q-1 -73 -6 -117t-19 -71q22 4 52 4h148v-109h-355q-87 0 -123.5 29.5zM252 121q11 12 14.5 57t3.5 166t-3.5 166t-14.5 57t-41 12
q-29 0 -40 -12t-15 -57.5t-4 -165.5t4 -165.5t15 -57.5t40 -12q30 0 41 12z" />
    <glyph glyph-name="oe" unicode="&#x153;" horiz-adv-x="580" 
d="M551 221h-199q0 -64 4.5 -89.5t20 -34.5t55.5 -9q26 0 56.5 2t53.5 5v-89q-23 -6 -61.5 -10t-74.5 -4q-38 0 -64 9t-43 28q-17 -20 -43 -28.5t-66 -8.5q-74 0 -107.5 21.5t-43.5 74t-10 167.5q0 114 10 166.5t43.5 74.5t107.5 22q40 0 66 -8.5t43 -28.5q16 19 40.5 28
t61.5 9q72 0 103.5 -25t39 -75.5t7.5 -162.5v-34zM224.5 98q9.5 10 12 41.5t2.5 115.5t-2.5 115.5t-12 41.5t-34.5 10q-24 0 -33.5 -10t-12 -41.5t-2.5 -115.5t2.5 -115.5t12 -41.5t33.5 -10q25 0 34.5 10zM368.5 414.5q-9.5 -7.5 -13 -32.5t-3.5 -83h94v5q0 56 -3.5 79.5
t-12.5 31t-30 7.5q-22 0 -31.5 -7.5z" />
    <glyph glyph-name="Racute" unicode="&#x154;" horiz-adv-x="419" 
d="M279 0l-58 245h-2h-55v-245h-121v688h189q67 0 100.5 -25t44.5 -71t11 -125q0 -78 -11 -124.5t-47 -70.5l73 -272h-124zM249.5 359.5q11.5 8.5 15 31.5t3.5 74t-3.5 74t-15 31.5t-37.5 8.5h-48v-228h48q26 0 37.5 8.5zM166 743v5l36 140h111v-5l-55 -140h-92z" />
    <glyph glyph-name="racute" unicode="&#x155;" horiz-adv-x="271" 
d="M39 510h107l4 -85h8q13 53 37 73t65 20v-121q-56 0 -82 -32.5t-26 -116.5v-248h-113v510zM87 598v5l36 140h111v-5l-55 -140h-92z" />
    <glyph glyph-name="Rcommaaccent" unicode="&#x156;" horiz-adv-x="419" 
d="M279 0l-58 245h-2h-55v-245h-121v688h189q67 0 100.5 -25t44.5 -71t11 -125q0 -78 -11 -124.5t-47 -70.5l73 -272h-124zM249.5 359.5q11.5 8.5 15 31.5t3.5 74t-3.5 74t-15 31.5t-37.5 8.5h-48v-228h48q26 0 37.5 8.5zM189 -210.5q9 10.5 9 40.5v14h-44v94h118v-64
q0 -61 -8.5 -91t-34 -42.5t-79.5 -12.5v51q30 0 39 10.5z" />
    <glyph glyph-name="rcommaaccent" unicode="&#x157;" horiz-adv-x="271" 
d="M39 510h107l4 -85h8q13 53 37 73t65 20v-121q-56 0 -82 -32.5t-26 -116.5v-248h-113v510zM76 -210.5q9 10.5 9 40.5v14h-44v94h118v-64q0 -61 -8.5 -91t-34 -42.5t-79.5 -12.5v51q30 0 39 10.5z" />
    <glyph glyph-name="Rcaron" unicode="&#x158;" horiz-adv-x="419" 
d="M279 0l-58 245h-2h-55v-245h-121v688h189q67 0 100.5 -25t44.5 -71t11 -125q0 -78 -11 -124.5t-47 -70.5l73 -272h-124zM249.5 359.5q11.5 8.5 15 31.5t3.5 74t-3.5 74t-15 31.5t-37.5 8.5h-48v-228h48q26 0 37.5 8.5zM151 761l-67 119v8h79l45 -71l47 71h79v-8l-68 -119
h-115z" />
    <glyph glyph-name="rcaron" unicode="&#x159;" horiz-adv-x="271" 
d="M39 510h107l4 -85h8q13 53 37 73t65 20v-121q-56 0 -82 -32.5t-26 -116.5v-248h-113v510zM78 616l-67 119v8h79l45 -71l47 71h79v-8l-68 -119h-115z" />
    <glyph glyph-name="Sacute" unicode="&#x15a;" horiz-adv-x="368" 
d="M103 -3.5q-41 4.5 -70 12.5v99q73 -7 113 -7q28 0 43 3.5t24 13.5q14 17 14 74q0 44 -3.5 62t-14.5 26.5t-40 14.5l-80 17q-38 8 -52 52t-14 128q0 81 20 125.5t57.5 61.5t96.5 17q45 0 81.5 -6t46.5 -10v-100q-10 2 -36.5 4.5t-56.5 2.5q-32 0 -49.5 -4.5t-25.5 -14.5
t-10.5 -26t-2.5 -46q0 -35 2.5 -50.5t10.5 -22.5t26 -11l69 -16q31 -6 51.5 -21t32.5 -52q11 -36 11 -110q0 -91 -18.5 -139t-54 -65t-95.5 -17q-35 0 -76 4.5zM141 743v5l36 140h111v-5l-55 -140h-92z" />
    <glyph glyph-name="sacute" unicode="&#x15b;" horiz-adv-x="317" 
d="M88.5 -3.5q-36.5 4.5 -59.5 11.5v88q50 -8 95 -8q36 0 50.5 12.5t14.5 45.5q0 26 -2.5 37.5t-9.5 16t-24 7.5l-71 14q-34 6 -48.5 38t-14.5 105q0 82 37 118t110 36q30 0 61.5 -4.5t50.5 -11.5v-89q-47 9 -90 9q-31 0 -43.5 -11t-12.5 -43q0 -25 2 -35.5t8 -14.5t20 -7
l61 -12q24 -4 40 -15.5t26.5 -41.5t10.5 -86q0 -91 -35 -127.5t-109 -36.5q-31 0 -67.5 4.5zM110 598v5l36 140h111v-5l-55 -140h-92z" />
    <glyph glyph-name="Scircumflex" unicode="&#x15c;" horiz-adv-x="368" 
d="M103 -3.5q-41 4.5 -70 12.5v99q73 -7 113 -7q28 0 43 3.5t24 13.5q14 17 14 74q0 44 -3.5 62t-14.5 26.5t-40 14.5l-80 17q-38 8 -52 52t-14 128q0 81 20 125.5t57.5 61.5t96.5 17q45 0 81.5 -6t46.5 -10v-100q-10 2 -36.5 4.5t-56.5 2.5q-32 0 -49.5 -4.5t-25.5 -14.5
t-10.5 -26t-2.5 -46q0 -35 2.5 -50.5t10.5 -22.5t26 -11l69 -16q31 -6 51.5 -21t32.5 -52q11 -36 11 -110q0 -91 -18.5 -139t-54 -65t-95.5 -17q-35 0 -76 4.5zM59 761v7l67 120h115l68 -120v-7h-79l-47 71l-45 -71h-79z" />
    <glyph glyph-name="scircumflex" unicode="&#x15d;" horiz-adv-x="317" 
d="M88.5 -3.5q-36.5 4.5 -59.5 11.5v88q50 -8 95 -8q36 0 50.5 12.5t14.5 45.5q0 26 -2.5 37.5t-9.5 16t-24 7.5l-71 14q-34 6 -48.5 38t-14.5 105q0 82 37 118t110 36q30 0 61.5 -4.5t50.5 -11.5v-89q-47 9 -90 9q-31 0 -43.5 -11t-12.5 -43q0 -25 2 -35.5t8 -14.5t20 -7
l61 -12q24 -4 40 -15.5t26.5 -41.5t10.5 -86q0 -91 -35 -127.5t-109 -36.5q-31 0 -67.5 4.5zM34 616v7l67 120h115l68 -120v-7h-79l-47 71l-45 -71h-79z" />
    <glyph glyph-name="Scedilla" unicode="&#x15e;" horiz-adv-x="368" 
d="M333 87q-14 -46 -41.5 -67t-71.5 -26l-34 -183h-97v5l56 177q-64 3 -112 16v99q73 -7 113 -7q28 0 43 3.5t24 13.5q14 17 14 74q0 44 -3.5 62t-14.5 26.5t-40 14.5l-80 17q-38 8 -52 52t-14 128q0 81 20 125.5t57.5 61.5t96.5 17q45 0 81.5 -6t46.5 -10v-100
q-10 2 -36.5 4.5t-56.5 2.5q-32 0 -49.5 -4.5t-25.5 -14.5t-10.5 -26t-2.5 -46q0 -35 2.5 -50.5t10.5 -22.5t26 -11l69 -16q31 -6 51.5 -21t32.5 -52q11 -36 11 -110q0 -80 -14 -126z" />
    <glyph glyph-name="scedilla" unicode="&#x15f;" horiz-adv-x="317" 
d="M274 40.5q-26 -37.5 -79 -45.5l-34 -184h-97v5l56 177q-59 5 -91 15v88q50 -8 95 -8q36 0 50.5 12.5t14.5 45.5q0 26 -2.5 37.5t-9.5 16t-24 7.5l-71 14q-34 6 -48.5 38t-14.5 105q0 82 37 118t110 36q30 0 61.5 -4.5t50.5 -11.5v-89q-47 9 -90 9q-31 0 -43.5 -11
t-12.5 -43q0 -25 2 -35.5t8 -14.5t20 -7l61 -12q24 -4 40 -15.5t26.5 -41.5t10.5 -86q0 -78 -26 -115.5z" />
    <glyph glyph-name="Scaron" unicode="&#x160;" horiz-adv-x="368" 
d="M103 -3.5q-41 4.5 -70 12.5v99q73 -7 113 -7q28 0 43 3.5t24 13.5q14 17 14 74q0 44 -3.5 62t-14.5 26.5t-40 14.5l-80 17q-38 8 -52 52t-14 128q0 81 20 125.5t57.5 61.5t96.5 17q45 0 81.5 -6t46.5 -10v-100q-10 2 -36.5 4.5t-56.5 2.5q-32 0 -49.5 -4.5t-25.5 -14.5
t-10.5 -26t-2.5 -46q0 -35 2.5 -50.5t10.5 -22.5t26 -11l69 -16q31 -6 51.5 -21t32.5 -52q11 -36 11 -110q0 -91 -18.5 -139t-54 -65t-95.5 -17q-35 0 -76 4.5zM129 750l-67 119v8h79l45 -71l47 71h79v-8l-68 -119h-115z" />
    <glyph glyph-name="scaron" unicode="&#x161;" horiz-adv-x="317" 
d="M88.5 -3.5q-36.5 4.5 -59.5 11.5v88q50 -8 95 -8q36 0 50.5 12.5t14.5 45.5q0 26 -2.5 37.5t-9.5 16t-24 7.5l-71 14q-34 6 -48.5 38t-14.5 105q0 82 37 118t110 36q30 0 61.5 -4.5t50.5 -11.5v-89q-47 9 -90 9q-31 0 -43.5 -11t-12.5 -43q0 -25 2 -35.5t8 -14.5t20 -7
l61 -12q24 -4 40 -15.5t26.5 -41.5t10.5 -86q0 -91 -35 -127.5t-109 -36.5q-31 0 -67.5 4.5zM104 616l-67 119v8h79l45 -71l47 71h79v-8l-68 -119h-115z" />
    <glyph glyph-name="uni0162" unicode="&#x162;" horiz-adv-x="349" 
d="M7 688h335v-111h-107v-577h-24l-35 -189h-97v5l58 184h-23v577h-107v111z" />
    <glyph glyph-name="uni0163" unicode="&#x163;" horiz-adv-x="258" 
d="M177 510h69v-96h-69v-414h-19l-35 -189h-97v5l58 184h-20v414h-51v96h51v148h113v-148z" />
    <glyph glyph-name="Tcaron" unicode="&#x164;" horiz-adv-x="349" 
d="M114 0v577h-107v111h335v-111h-107v-577h-121zM116 761l-67 119v8h79l45 -71l47 71h79v-8l-68 -119h-115z" />
    <glyph glyph-name="tcaron" unicode="&#x165;" horiz-adv-x="357" 
d="M64 0v414h-51v96h51v148h113v-148h69v-96h-69v-414h-113zM275 430l15 202v56h108v-56l-40 -202h-83z" />
    <glyph glyph-name="Tbar" unicode="&#x166;" horiz-adv-x="349" 
d="M342 577h-107v-175h80v-97h-80v-305h-121v305h-80v97h80v175h-107v111h335v-111z" />
    <glyph glyph-name="tbar" unicode="&#x167;" horiz-adv-x="258" 
d="M246 414h-69v-102h68v-97h-68v-215h-113v215h-48v97h48v102h-51v96h51v148h113v-148h69v-96z" />
    <glyph glyph-name="Utilde" unicode="&#x168;" horiz-adv-x="426" 
d="M387 688v-385q0 -137 -9 -196.5t-45 -87t-120 -27.5t-120 27.5t-45 87t-9 196.5v385h120v-432q0 -77 3 -106.5t13.5 -39t37.5 -9.5t37.5 9.5t13.5 38.5t3 107v432h120zM345.5 815.5q-3.5 -24.5 -18 -38t-44.5 -13.5q-27 0 -76 17q-7 2 -21.5 7.5t-24.5 5.5
q-11 0 -13.5 -8.5t-2.5 -32.5h-69q0 47 4 71.5t18 38t45 13.5q29 0 76 -17q4 -1 19.5 -6.5t26.5 -5.5q10 0 12.5 8.5t2.5 32.5h69q0 -48 -3.5 -72.5z" />
    <glyph glyph-name="utilde" unicode="&#x169;" horiz-adv-x="392" 
d="M242 62h-7q-20 -70 -98 -70q-43 0 -64.5 17.5t-29 55t-7.5 106.5v339h113v-285q0 -64 3 -90t11.5 -33.5t30.5 -7.5q23 0 32.5 13t11.5 42.5t2 104.5v256h113v-510h-107zM328.5 670.5q-3.5 -24.5 -18 -38t-44.5 -13.5q-27 0 -76 17q-7 2 -21.5 7.5t-24.5 5.5
q-11 0 -13.5 -8.5t-2.5 -32.5h-69q0 47 4 71.5t18 38t45 13.5q29 0 76 -17q4 -1 19.5 -6.5t26.5 -5.5q10 0 12.5 8.5t2.5 32.5h69q0 -48 -3.5 -72.5z" />
    <glyph glyph-name="Umacron" unicode="&#x16a;" horiz-adv-x="426" 
d="M387 688v-385q0 -137 -9 -196.5t-45 -87t-120 -27.5t-120 27.5t-45 87t-9 196.5v385h120v-432q0 -77 3 -106.5t13.5 -39t37.5 -9.5t37.5 9.5t13.5 38.5t3 107v432h120zM126 784v104h174v-104h-174z" />
    <glyph glyph-name="umacron" unicode="&#x16b;" horiz-adv-x="392" 
d="M242 62h-7q-20 -70 -98 -70q-43 0 -64.5 17.5t-29 55t-7.5 106.5v339h113v-285q0 -64 3 -90t11.5 -33.5t30.5 -7.5q23 0 32.5 13t11.5 42.5t2 104.5v256h113v-510h-107zM109 639v104h174v-104h-174z" />
    <glyph glyph-name="Ubreve" unicode="&#x16c;" horiz-adv-x="426" 
d="M387 688v-385q0 -137 -9 -196.5t-45 -87t-120 -27.5t-120 27.5t-45 87t-9 196.5v385h120v-432q0 -77 3 -106.5t13.5 -39t37.5 -9.5t37.5 9.5t13.5 38.5t3 107v432h120zM322.5 816q-8.5 -28 -34.5 -44.5t-76 -16.5t-75.5 16.5t-34 44.5t-8.5 72h73q0 -25 2 -37.5t12 -20
t31 -7.5q31 0 38.5 15t7.5 50h73q0 -44 -8.5 -72z" />
    <glyph glyph-name="ubreve" unicode="&#x16d;" horiz-adv-x="392" 
d="M242 62h-7q-20 -70 -98 -70q-43 0 -64.5 17.5t-29 55t-7.5 106.5v339h113v-285q0 -64 3 -90t11.5 -33.5t30.5 -7.5q23 0 32.5 13t11.5 42.5t2 104.5v256h113v-510h-107zM305.5 671q-8.5 -28 -34.5 -44.5t-76 -16.5t-75.5 16.5t-34 44.5t-8.5 72h73q0 -25 2 -37.5t12 -20
t31 -7.5q31 0 38.5 15t7.5 50h73q0 -44 -8.5 -72z" />
    <glyph glyph-name="Uring" unicode="&#x16e;" horiz-adv-x="426" 
d="M387 688v-385q0 -137 -9 -196.5t-45 -87t-120 -27.5t-120 27.5t-45 87t-9 196.5v385h120v-432q0 -77 3 -106.5t13.5 -39t37.5 -9.5t37.5 9.5t13.5 38.5t3 107v432h120zM135.5 739q-24.5 11 -31 31.5t-6.5 60.5q0 42 6.5 62.5t31 31.5t77.5 11t77.5 -11t30.5 -31.5
t6 -62.5q0 -41 -6 -61t-30.5 -31t-77.5 -11t-77.5 11zM245.5 796q6.5 8 6.5 35q0 28 -6.5 36.5t-32.5 8.5q-19 0 -27 -4t-10 -12.5t-2 -28.5q0 -19 2 -27.5t10 -12t27 -3.5q26 0 32.5 8z" />
    <glyph glyph-name="uring" unicode="&#x16f;" horiz-adv-x="392" 
d="M242 62h-7q-20 -70 -98 -70q-43 0 -64.5 17.5t-29 55t-7.5 106.5v339h113v-285q0 -64 3 -90t11.5 -33.5t30.5 -7.5q23 0 32.5 13t11.5 42.5t2 104.5v256h113v-510h-107zM118.5 624q-24.5 11 -31 31.5t-6.5 60.5q0 42 6.5 62.5t31 31.5t77.5 11t77.5 -11t30.5 -31.5
t6 -62.5q0 -41 -6 -61t-30.5 -31t-77.5 -11t-77.5 11zM228.5 681q6.5 8 6.5 35q0 28 -6.5 36.5t-32.5 8.5q-19 0 -27 -4t-10 -12.5t-2 -28.5q0 -19 2 -27.5t10 -12t27 -3.5q26 0 32.5 8z" />
    <glyph glyph-name="Uhungarumlaut" unicode="&#x170;" horiz-adv-x="426" 
d="M387 688v-385q0 -137 -9 -196.5t-45 -87t-120 -27.5t-120 27.5t-45 87t-9 196.5v385h120v-432q0 -77 3 -106.5t13.5 -39t37.5 -9.5t37.5 9.5t13.5 38.5t3 107v432h120zM120 757v4l28 113h93v-5l-45 -112h-76zM243 757v4l29 113h92v-5l-44 -112h-77z" />
    <glyph glyph-name="uhungarumlaut" unicode="&#x171;" horiz-adv-x="392" 
d="M242 62h-7q-20 -70 -98 -70q-43 0 -64.5 17.5t-29 55t-7.5 106.5v339h113v-285q0 -64 3 -90t11.5 -33.5t30.5 -7.5q23 0 32.5 13t11.5 42.5t2 104.5v256h113v-510h-107zM105 612v4l28 113h93v-5l-45 -112h-76zM228 612v4l29 113h92v-5l-44 -112h-77z" />
    <glyph glyph-name="Uogonek" unicode="&#x172;" horiz-adv-x="426" 
d="M387 688v-385q0 -92 -3 -143t-14.5 -86t-36.5 -54q-27 -20 -44.5 -48.5t-17.5 -62.5q0 -40 38 -40l12 1v-62q-16 -4 -45 -4q-48 0 -70 24t-22 62q0 24 11.5 50.5t31.5 51.5h-14q-84 0 -120 27.5t-45 87t-9 196.5v385h120v-432q0 -77 3 -106.5t13.5 -39t37.5 -9.5
t37.5 9.5t13.5 38.5t3 107v432h120z" />
    <glyph glyph-name="uogonek" unicode="&#x173;" horiz-adv-x="392" 
d="M315.5 -42.5q-17.5 -25.5 -17.5 -51.5q0 -37 37 -37l13 1v-62q-17 -4 -44 -4q-49 0 -71 23.5t-22 58.5q0 59 62 114h-26l-5 62h-7q-20 -70 -98 -70q-43 0 -64.5 17.5t-29 55t-7.5 106.5v339h113v-285q0 -64 3 -90t11.5 -33.5t30.5 -7.5q23 0 32.5 13t11.5 42.5t2 104.5
v256h113v-510q-20 -17 -37.5 -42.5z" />
    <glyph glyph-name="Wcircumflex" unicode="&#x174;" horiz-adv-x="643" 
d="M384 0l-60 502h-6l-59 -502h-168l-78 688h122l44 -557h7l64 557h147l66 -557h7l42 557h118l-78 -688h-168zM197 761v7l67 120h115l68 -120v-7h-79l-47 71l-45 -71h-79z" />
    <glyph glyph-name="wcircumflex" unicode="&#x175;" horiz-adv-x="557" 
d="M329 0l-46 299h-7l-46 -299h-141l-81 510h112l42 -363h7l56 363h112l57 -363h7l42 363h106l-81 -510h-139zM156 616v7l67 120h115l68 -120v-7h-79l-47 71l-45 -71h-79z" />
    <glyph glyph-name="Ycircumflex" unicode="&#x176;" horiz-adv-x="387" 
d="M133 0v246l-134 442h121l72 -307h10l69 307h117l-134 -442v-246h-121zM69 761v7l67 120h115l68 -120v-7h-79l-47 71l-45 -71h-79z" />
    <glyph glyph-name="ycircumflex" unicode="&#x177;" horiz-adv-x="392" 
d="M58 -195v90q60 -2 100 -2t56.5 10t21 35.5t4.5 88.5v43h-7q-20 -68 -97 -68q-43 0 -64 18t-28.5 55.5t-7.5 106.5v328h113v-276q0 -64 3 -89.5t11.5 -33t30.5 -7.5q23 0 32.5 13t11.5 42.5t2 104.5v246h113v-448q0 -104 -10 -157t-46 -80.5t-113 -27.5q-73 0 -126 8z
M71 616v7l67 120h115l68 -120v-7h-79l-47 71l-45 -71h-79z" />
    <glyph glyph-name="Ydieresis" unicode="&#x178;" horiz-adv-x="387" 
d="M133 0v246l-134 442h121l72 -307h10l69 307h117l-134 -442v-246h-121zM64 775v97h99v-97h-99zM229 775v97h99v-97h-99z" />
    <glyph glyph-name="Zacute" unicode="&#x179;" horiz-adv-x="362" 
d="M24 0v102l183 477h-178v109h307v-101l-184 -478h185v-109h-313zM138 743v5l36 140h111v-5l-55 -140h-92z" />
    <glyph glyph-name="zacute" unicode="&#x17a;" horiz-adv-x="335" 
d="M26 0v89l156 325h-151v96h278v-89l-157 -325h158v-96h-284zM119 598v5l36 140h111v-5l-55 -140h-92z" />
    <glyph glyph-name="Zdotaccent" unicode="&#x17b;" horiz-adv-x="362" 
d="M24 0v102l183 477h-178v109h307v-101l-184 -478h185v-109h-313zM131 778v97h99v-97h-99z" />
    <glyph glyph-name="zdotaccent" unicode="&#x17c;" horiz-adv-x="335" 
d="M26 0v89l156 325h-151v96h278v-89l-157 -325h158v-96h-284zM118 633v97h99v-97h-99z" />
    <glyph glyph-name="Zcaron" unicode="&#x17d;" horiz-adv-x="362" 
d="M24 0v102l183 477h-178v109h307v-101l-184 -478h185v-109h-313zM129 751l-67 119v8h79l45 -71l47 71h79v-8l-68 -119h-115z" />
    <glyph glyph-name="zcaron" unicode="&#x17e;" horiz-adv-x="335" 
d="M26 0v89l156 325h-151v96h278v-89l-157 -325h158v-96h-284zM115 616l-67 119v8h79l45 -71l47 71h79v-8l-68 -119h-115z" />
    <glyph glyph-name="longs" unicode="&#x17f;" horiz-adv-x="251" 
d="M64 414h-51v96h51v38q0 93 14 132.5t49.5 51t119.5 11.5v-85q-33 0 -46.5 -5t-18.5 -21t-5 -55v-577h-113v414z" />
    <glyph glyph-name="uni018F" unicode="&#x18f;" horiz-adv-x="423" 
d="M323 664.5q41 -31.5 54.5 -103.5t13.5 -217q0 -157 -9.5 -224.5t-46.5 -97.5t-124 -30t-123.5 30t-46 97.5t-9.5 224.5v58h238q-1 87 -8.5 124.5t-28 49t-68.5 11.5q-49 0 -91 -7v99q48 17 121 17q87 0 128 -31.5zM255 111q12 10 16.5 48t5.5 134h-132q1 -96 5.5 -134
t17 -48t43.5 -10q32 0 44 10z" />
    <glyph glyph-name="florin" unicode="&#x192;" horiz-adv-x="372" 
d="M305.5 650.5q-15.5 -7.5 -26.5 -35t-25 -95.5l-2 -10h70l-20 -96h-70l-90 -421q-18 -89 -40 -127.5t-60.5 -50t-121.5 -11.5l18 85q32 0 47 4.5t23 20t16 50.5l95 450h-52l21 96h51l1 6q23 109 47 155t62.5 59t122.5 13l-18 -85q-33 0 -48.5 -7.5z" />
    <glyph glyph-name="uni019D" unicode="&#x19d;" horiz-adv-x="439" 
d="M396 688v-688h-107l-127 388h-4v-390q0 -90 -14 -130t-46.5 -52t-104.5 -12v87q24 0 34.5 5t13 15t2.5 32v745h114l119 -361h6v361h114z" />
    <glyph glyph-name="Ohorn" unicode="&#x1a0;" horiz-adv-x="423" 
d="M431 779v-21q0 -42 -5 -65.5t-20 -37t-46 -18.5q21 -35 26 -98t5 -195q0 -157 -9.5 -224.5t-46.5 -97.5t-124 -30t-123.5 30t-46 97.5t-9.5 224.5t9.5 224.5t46 97.5t123.5 30q50 0 78 -8h18q30 0 40 12t10 43v36h74zM252 113q11 12 14.5 59t3.5 172t-3.5 172t-14.5 59
t-41 12t-40.5 -12t-14.5 -59.5t-4 -171.5t4 -171.5t14.5 -59.5t40.5 -12t41 12z" />
    <glyph glyph-name="ohorn" unicode="&#x1a1;" horiz-adv-x="381" 
d="M396 601v-21q0 -61 -13 -86.5t-54 -33.5q14 -28 18.5 -74.5t4.5 -130.5q0 -115 -10 -167.5t-43.5 -74t-108.5 -21.5q-74 0 -107.5 21.5t-43.5 74t-10 167.5q0 114 10 166.5t43.5 74.5t107.5 22q49 0 77 -8h5q30 0 40 12t10 43v36h74zM224.5 98q9.5 10 12 41.5t2.5 115.5
t-2.5 115.5t-12 41.5t-34.5 10q-24 0 -33.5 -10t-12 -41.5t-2.5 -115.5t2.5 -115.5t12 -41.5t33.5 -10q25 0 34.5 10z" />
    <glyph glyph-name="Uhorn" unicode="&#x1af;" horiz-adv-x="426" 
d="M447 779v-21q0 -59 -11.5 -84.5t-48.5 -34.5v-336q0 -137 -9 -196.5t-45 -87t-120 -27.5t-120 27.5t-45 87t-9 196.5v385h120v-432q0 -77 3 -106.5t13.5 -39t37.5 -9.5t37.5 9.5t13.5 38.5t3 107v432h56q30 0 40 12t10 43v36h74z" />
    <glyph glyph-name="uhorn" unicode="&#x1b0;" horiz-adv-x="392" 
d="M413 601v-21q0 -59 -11.5 -84.5t-48.5 -34.5v-461h-107l-4 62h-7q-20 -70 -98 -70q-43 0 -64.5 17.5t-29 55t-7.5 106.5v339h113v-285q0 -64 3 -90t11.5 -33.5t30.5 -7.5q23 0 32.5 13t11.5 42.5t2 104.5v256h49q30 0 40 12t10 43v36h74z" />
    <glyph glyph-name="uni01C4" unicode="&#x1c4;" horiz-adv-x="778" 
d="M43 688h161q87 0 124 -29.5t46.5 -95t9.5 -219.5q0 -153 -9.5 -219t-46.5 -95.5t-124 -29.5h-161v688zM204 109q31 0 42 11.5t15 57.5t4 166t-4 166t-15 57.5t-42 11.5h-42v-470h42zM440 0v102l183 477h-178v109h307v-101l-184 -478h185v-109h-313zM547 761l-67 119v8h79
l45 -71l47 71h79v-8l-68 -119h-115z" />
    <glyph glyph-name="uni01C5" unicode="&#x1c5;" horiz-adv-x="751" 
d="M43 688h161q87 0 124 -29.5t46.5 -95t9.5 -219.5q0 -153 -9.5 -219t-46.5 -95.5t-124 -29.5h-161v688zM204 109q31 0 42 11.5t15 57.5t4 166t-4 166t-15 57.5t-42 11.5h-42v-470h42zM442 0v89l156 325h-151v96h278v-89l-157 -325h158v-96h-284zM527 616l-67 119v8h79
l45 -71l47 71h79v-8l-68 -119h-115z" />
    <glyph glyph-name="uni01C6" unicode="&#x1c6;" horiz-adv-x="725" 
d="M73.5 14q-24.5 22 -34.5 77.5t-10 163.5q0 105 9.5 160.5t33 79t70.5 23.5q37 0 58.5 -16t30.5 -48h7v289h113v-743h-107l-4 61h-7q-9 -38 -33 -53.5t-56 -15.5q-46 0 -70.5 22zM220 103q10 9 14 33q4 31 4 123q0 85 -4 109q-4 29 -14 38.5t-31 9.5q-23 0 -32 -9
t-12 -40.5t-3 -111.5t3 -111.5t12 -40.5t33 -9q20 0 30 9zM416 0v89l156 325h-151v96h278v-89l-157 -325h158v-96h-284zM492 616l-67 119v8h79l45 -71l47 71h79v-8l-68 -119h-115z" />
    <glyph glyph-name="uni01C7" unicode="&#x1c7;" horiz-adv-x="556" 
d="M43 0v688h121v-577h138v-111h-259zM373 111q15 7 19.5 32t4.5 93v452h120v-390q0 -153 -11 -209t-48.5 -72t-140.5 -17v103q41 1 56 8z" />
    <glyph glyph-name="uni01C8" unicode="&#x1c8;" horiz-adv-x="502" 
d="M43 0v688h121v-577h138v-111h-259zM349 630v113h115v-113h-115zM299 -109q24 0 35 5t13.5 15t2.5 32v567h113v-512q0 -90 -14 -130t-46.5 -52t-103.5 -12v87z" />
    <glyph glyph-name="uni01C9" unicode="&#x1c9;" horiz-adv-x="382" 
d="M39 0v743h113v-743h-113zM229 630v113h115v-113h-115zM179 -109q24 0 35 5t13.5 15t2.5 32v567h113v-512q0 -90 -14 -130t-46.5 -52t-103.5 -12v87z" />
    <glyph glyph-name="uni01CA" unicode="&#x1ca;" horiz-adv-x="684" 
d="M289 0l-127 388h-4v-388h-115v688h114l119 -361h6v361h114v-688h-107zM501 111q15 7 19.5 32t4.5 93v452h120v-390q0 -153 -11 -209t-48.5 -72t-140.5 -17v103q41 1 56 8z" />
    <glyph glyph-name="uni01CB" unicode="&#x1cb;" horiz-adv-x="630" 
d="M289 0l-127 388h-4v-388h-115v688h114l119 -361h6v361h114v-688h-107zM477 630v113h115v-113h-115zM427 -109q24 0 35 5t13.5 15t2.5 32v567h113v-512q0 -90 -14 -130t-46.5 -52t-103.5 -12v87z" />
    <glyph glyph-name="uni01CC" unicode="&#x1cc;" horiz-adv-x="583" 
d="M243 285q0 65 -2.5 90.5t-11 33t-30.5 7.5q-24 0 -33.5 -13t-11.5 -42.5t-2 -104.5v-256h-113v510h107l4 -62h8q20 70 98 70q43 0 64 -17.5t28.5 -55t7.5 -106.5v-339h-113v285zM430 630v113h115v-113h-115zM380 -109q24 0 35 5t13.5 15t2.5 32v567h113v-512
q0 -90 -14 -130t-46.5 -52t-103.5 -12v87z" />
    <glyph glyph-name="uni01CD" unicode="&#x1cd;" horiz-adv-x="422" 
d="M292 0l-23 151h-118l-23 -151h-119l113 688h178l114 -688h-122zM213 564h-6l-44 -307h94zM154 761l-67 119v8h79l45 -71l47 71h79v-8l-68 -119h-115z" />
    <glyph glyph-name="uni01CE" unicode="&#x1ce;" horiz-adv-x="370" 
d="M43 28.5q-23 36.5 -23 118.5q0 58 11 91t36.5 48t71.5 15q37 0 81 -4v28q0 47 -5 66t-21 25t-55 6q-44 0 -98 -7v90q61 13 133 13q64 0 98 -18.5t47.5 -61.5t13.5 -122v-316h-107l-4 62h-7q-8 -36 -32.5 -53t-56.5 -17q-60 0 -83 36.5zM198 99q11 5 16 21q6 26 6 72v31
h-50q-25 0 -33.5 -13t-8.5 -54q0 -36 7.5 -49t33.5 -13q18 0 29 5zM127 616l-67 119v8h79l45 -71l47 71h79v-8l-68 -119h-115z" />
    <glyph glyph-name="uni01CF" unicode="&#x1cf;" horiz-adv-x="210" 
d="M45 0v688h120v-688h-120zM47 761l-67 119v8h79l45 -71l47 71h79v-8l-68 -119h-115z" />
    <glyph glyph-name="uni01D0" unicode="&#x1d0;" horiz-adv-x="191" 
d="M39 0v510h113v-510h-113zM38 616l-67 119v8h79l45 -71l47 71h79v-8l-68 -119h-115z" />
    <glyph glyph-name="uni01D1" unicode="&#x1d1;" horiz-adv-x="423" 
d="M87.5 22q-36.5 30 -46 97.5t-9.5 224.5t9.5 224.5t46 97.5t123.5 30t124 -30t46.5 -97.5t9.5 -224.5t-9.5 -224.5t-46.5 -97.5t-124 -30t-123.5 30zM252 113q11 12 14.5 59t3.5 172t-3.5 172t-14.5 59t-41 12t-40.5 -12t-14.5 -59.5t-4 -171.5t4 -171.5t14.5 -59.5
t40.5 -12t41 12zM153 761l-67 119v8h79l45 -71l47 71h79v-8l-68 -119h-115z" />
    <glyph glyph-name="uni01D2" unicode="&#x1d2;" horiz-adv-x="381" 
d="M82.5 13.5q-33.5 21.5 -43.5 74t-10 167.5q0 114 10 166.5t43.5 74.5t107.5 22q75 0 108.5 -22t43.5 -74t10 -167t-10 -167.5t-43.5 -74t-108.5 -21.5q-74 0 -107.5 21.5zM224.5 98q9.5 10 12 41.5t2.5 115.5t-2.5 115.5t-12 41.5t-34.5 10q-24 0 -33.5 -10t-12 -41.5
t-2.5 -115.5t2.5 -115.5t12 -41.5t33.5 -10q25 0 34.5 10zM132 616l-67 119v8h79l45 -71l47 71h79v-8l-68 -119h-115z" />
    <glyph glyph-name="uni01D3" unicode="&#x1d3;" horiz-adv-x="426" 
d="M387 688v-385q0 -137 -9 -196.5t-45 -87t-120 -27.5t-120 27.5t-45 87t-9 196.5v385h120v-432q0 -77 3 -106.5t13.5 -39t37.5 -9.5t37.5 9.5t13.5 38.5t3 107v432h120zM155 761l-67 119v8h79l45 -71l47 71h79v-8l-68 -119h-115z" />
    <glyph glyph-name="uni01D4" unicode="&#x1d4;" horiz-adv-x="392" 
d="M242 62h-7q-20 -70 -98 -70q-43 0 -64.5 17.5t-29 55t-7.5 106.5v339h113v-285q0 -64 3 -90t11.5 -33.5t30.5 -7.5q23 0 32.5 13t11.5 42.5t2 104.5v256h113v-510h-107zM138 616l-67 119v8h79l45 -71l47 71h79v-8l-68 -119h-115z" />
    <glyph glyph-name="uni01D5" unicode="&#x1d5;" horiz-adv-x="426" 
d="M128 897v90h174v-90h-174zM81 778v97h99v-97h-99zM246 778v97h99v-97h-99zM387 688v-385q0 -137 -9 -196.5t-45 -87t-120 -27.5t-120 27.5t-45 87t-9 196.5v385h120v-432q0 -77 3 -106.5t13.5 -39t37.5 -9.5t37.5 9.5t13.5 38.5t3 107v432h120z" />
    <glyph glyph-name="uni01D6" unicode="&#x1d6;" horiz-adv-x="392" 
d="M242 62h-7q-20 -70 -98 -70q-43 0 -64.5 17.5t-29 55t-7.5 106.5v339h113v-285q0 -64 3 -90t11.5 -33.5t30.5 -7.5q23 0 32.5 13t11.5 42.5t2 104.5v256h113v-510h-107zM64 633v97h99v-97h-99zM229 633v97h99v-97h-99zM111 799v104h174v-104h-174z" />
    <glyph glyph-name="uni01D7" unicode="&#x1d7;" horiz-adv-x="426" 
d="M180 870v-92h-99v97h91l36 140h111v-5l-53 -135h79v-97h-99v92h-66zM387 688v-385q0 -137 -9 -196.5t-45 -87t-120 -27.5t-120 27.5t-45 87t-9 196.5v385h120v-432q0 -77 3 -106.5t13.5 -39t37.5 -9.5t37.5 9.5t13.5 38.5t3 107v432h120z" />
    <glyph glyph-name="uni01D8" unicode="&#x1d8;" horiz-adv-x="392" 
d="M242 62h-7q-20 -70 -98 -70q-43 0 -64.5 17.5t-29 55t-7.5 106.5v339h113v-285q0 -64 3 -90t11.5 -33.5t30.5 -7.5q23 0 32.5 13t11.5 42.5t2 104.5v256h113v-510h-107zM64 633v97h99v-97h-99zM229 633v97h99v-97h-99zM149 758v5l36 140h111v-5l-55 -140h-92z" />
    <glyph glyph-name="uni01D9" unicode="&#x1d9;" horiz-adv-x="426" 
d="M387 688v-385q0 -137 -9 -196.5t-45 -87t-120 -27.5t-120 27.5t-45 87t-9 196.5v385h120v-432q0 -77 3 -106.5t13.5 -39t37.5 -9.5t37.5 9.5t13.5 38.5t3 107v432h120zM81 778v97h99v-97h-99zM246 778v97h99v-97h-99zM157 888l-67 119v8h79l45 -71l47 71h79v-8l-68 -119
h-115z" />
    <glyph glyph-name="uni01DA" unicode="&#x1da;" horiz-adv-x="392" 
d="M242 62h-7q-20 -70 -98 -70q-43 0 -64.5 17.5t-29 55t-7.5 106.5v339h113v-285q0 -64 3 -90t11.5 -33.5t30.5 -7.5q23 0 32.5 13t11.5 42.5t2 104.5v256h113v-510h-107zM64 633v97h99v-97h-99zM229 633v97h99v-97h-99zM140 776l-67 119v8h79l45 -71l47 71h79v-8l-68 -119
h-115z" />
    <glyph glyph-name="uni01DB" unicode="&#x1db;" horiz-adv-x="426" 
d="M180 870v-92h-99v97h87l-53 135v5h111l36 -140h83v-97h-99v92h-66zM387 688v-385q0 -137 -9 -196.5t-45 -87t-120 -27.5t-120 27.5t-45 87t-9 196.5v385h120v-432q0 -77 3 -106.5t13.5 -39t37.5 -9.5t37.5 9.5t13.5 38.5t3 107v432h120z" />
    <glyph glyph-name="uni01DC" unicode="&#x1dc;" horiz-adv-x="392" 
d="M242 62h-7q-20 -70 -98 -70q-43 0 -64.5 17.5t-29 55t-7.5 106.5v339h113v-285q0 -64 3 -90t11.5 -33.5t30.5 -7.5q23 0 32.5 13t11.5 42.5t2 104.5v256h113v-510h-107zM64 633v97h99v-97h-99zM229 633v97h99v-97h-99zM150 758l-55 140v5h111l36 -140v-5h-92z" />
    <glyph glyph-name="Gcaron" unicode="&#x1e6;" horiz-adv-x="408" 
d="M212 288v106h160v-381q-29 -10 -71 -15.5t-81 -5.5q-80 0 -119 28t-54 101.5t-15 222.5t16 222.5t58 101.5t126 28q32 0 71.5 -5.5t67.5 -13.5v-101q-71 11 -106 11q-56 0 -77 -12t-29 -60t-8 -171q0 -117 4.5 -165t18.5 -64.5t49 -16.5q25 0 41 4v186h-52zM146 761
l-67 119v8h79l45 -71l47 71h79v-8l-68 -119h-115z" />
    <glyph glyph-name="gcaron" unicode="&#x1e7;" horiz-adv-x="390" 
d="M53 -195v89q32 -1 102 -1q40 0 57 9.5t21.5 35.5t4.5 90v38h-7q-9 -32 -30.5 -48t-58.5 -16q-47 0 -70.5 23.5t-33 78t-9.5 157.5q0 105 10 159.5t34.5 76t70.5 21.5q32 0 56 -15.5t33 -53.5h7l4 61h107v-447q0 -105 -10 -158t-46 -80.5t-114 -27.5q-72 0 -128 8z
M219.5 112.5q9.5 8.5 13.5 31.5q3 16 4 46.5t1 70.5q0 85 -4 107q-4 28 -14 38t-30 10q-23 0 -32.5 -8.5t-12.5 -39t-3 -107.5q0 -78 3 -109t12 -39.5t33 -8.5q20 0 29.5 8.5zM137 616l-67 119v8h79l45 -71l47 71h79v-8l-68 -119h-115z" />
    <glyph glyph-name="uni01EA" unicode="&#x1ea;" horiz-adv-x="423" 
d="M211.5 -172.5q-22.5 23.5 -22.5 60.5q0 50 40 105q-5 -1 -18 -1q-87 0 -123.5 30t-46 97.5t-9.5 224.5t9.5 224.5t46 97.5t123.5 30t124 -30t46.5 -97.5t9.5 -224.5q0 -105 -3 -161t-13.5 -95t-34.5 -61q-23 -21 -43 -55t-20 -65q0 -18 8 -28t29 -10l12 1v-62
q-16 -4 -44 -4q-48 0 -70.5 23.5zM252 113q11 12 14.5 59t3.5 172t-3.5 172t-14.5 59t-41 12t-40.5 -12t-14.5 -59.5t-4 -171.5t4 -171.5t14.5 -59.5t40.5 -12t41 12z" />
    <glyph glyph-name="uni01EB" unicode="&#x1eb;" horiz-adv-x="381" 
d="M298.5 496q33.5 -22 43.5 -74t10 -167q0 -110 -8.5 -161t-37.5 -74q-25 -21 -38.5 -51.5t-13.5 -60.5q0 -39 37 -39l12 1v-62q-16 -4 -44 -4q-48 0 -70 23.5t-22 60.5q0 26 10 53t27 51h-14q-74 0 -107.5 21.5t-43.5 74t-10 167.5q0 114 10 166.5t43.5 74.5t107.5 22
q75 0 108.5 -22zM144.5 139.5q2.5 -31.5 12 -41.5t33.5 -10q25 0 34.5 10t12 41.5t2.5 115.5t-2.5 115.5t-12 41.5t-34.5 10q-24 0 -33.5 -10t-12 -41.5t-2.5 -115.5t2.5 -115.5z" />
    <glyph glyph-name="uni01F1" unicode="&#x1f1;" horiz-adv-x="778" 
d="M43 688h161q87 0 124 -29.5t46.5 -95t9.5 -219.5q0 -153 -9.5 -219t-46.5 -95.5t-124 -29.5h-161v688zM204 109q31 0 42 11.5t15 57.5t4 166t-4 166t-15 57.5t-42 11.5h-42v-470h42zM440 0v102l183 477h-178v109h307v-101l-184 -478h185v-109h-313z" />
    <glyph glyph-name="uni01F2" unicode="&#x1f2;" horiz-adv-x="751" 
d="M43 688h161q87 0 124 -29.5t46.5 -95t9.5 -219.5q0 -153 -9.5 -219t-46.5 -95.5t-124 -29.5h-161v688zM204 109q31 0 42 11.5t15 57.5t4 166t-4 166t-15 57.5t-42 11.5h-42v-470h42zM442 0v89l156 325h-151v96h278v-89l-157 -325h158v-96h-284z" />
    <glyph glyph-name="uni01F3" unicode="&#x1f3;" horiz-adv-x="725" 
d="M73.5 14q-24.5 22 -34.5 77.5t-10 163.5q0 105 9.5 160.5t33 79t70.5 23.5q37 0 58.5 -16t30.5 -48h7v289h113v-743h-107l-4 61h-7q-9 -38 -33 -53.5t-56 -15.5q-46 0 -70.5 22zM220 103q10 9 14 33q4 31 4 123q0 85 -4 109q-4 29 -14 38.5t-31 9.5q-23 0 -32 -9
t-12 -40.5t-3 -111.5t3 -111.5t12 -40.5t33 -9q20 0 30 9zM416 0v89l156 325h-151v96h278v-89l-157 -325h158v-96h-284z" />
    <glyph glyph-name="uni01F4" unicode="&#x1f4;" horiz-adv-x="408" 
d="M212 288v106h160v-381q-29 -10 -71 -15.5t-81 -5.5q-80 0 -119 28t-54 101.5t-15 222.5t16 222.5t58 101.5t126 28q32 0 71.5 -5.5t67.5 -13.5v-101q-71 11 -106 11q-56 0 -77 -12t-29 -60t-8 -171q0 -117 4.5 -165t18.5 -64.5t49 -16.5q25 0 41 4v186h-52zM161 743v5
l36 140h111v-5l-55 -140h-92z" />
    <glyph glyph-name="uni01F5" unicode="&#x1f5;" horiz-adv-x="390" 
d="M53 -195v89q32 -1 102 -1q40 0 57 9.5t21.5 35.5t4.5 90v38h-7q-9 -32 -30.5 -48t-58.5 -16q-47 0 -70.5 23.5t-33 78t-9.5 157.5q0 105 10 159.5t34.5 76t70.5 21.5q32 0 56 -15.5t33 -53.5h7l4 61h107v-447q0 -105 -10 -158t-46 -80.5t-114 -27.5q-72 0 -128 8z
M219.5 112.5q9.5 8.5 13.5 31.5q3 16 4 46.5t1 70.5q0 85 -4 107q-4 28 -14 38t-30 10q-23 0 -32.5 -8.5t-12.5 -39t-3 -107.5q0 -78 3 -109t12 -39.5t33 -8.5q20 0 29.5 8.5zM146 598v5l36 140h111v-5l-55 -140h-92z" />
    <glyph glyph-name="Aringacute" unicode="&#x1fa;" horiz-adv-x="422" 
d="M414 0h-122l-23 151h-118l-23 -151h-119l112 683q-16 11 -20 29t-4 53q0 42 6 62.5t30.5 31.5t77.5 11q54 0 78.5 -11t30.5 -31.5t6 -62.5q0 -33 -4.5 -52.5t-19.5 -29.5zM185 806q-8 -4 -10 -12.5t-2 -28.5q0 -19 2 -27.5t10 -12t26 -3.5q19 0 27 3.5t10 12t2 27.5
q0 20 -2 28.5t-10 12.5t-27 4q-18 0 -26 -4zM163 257h94l-44 307h-6zM168 925v5l36 140h111v-5l-55 -140h-92z" />
    <glyph glyph-name="aringacute" unicode="&#x1fb;" horiz-adv-x="370" 
d="M43 28.5q-23 36.5 -23 118.5q0 58 11 91t36.5 48t71.5 15q37 0 81 -4v28q0 47 -5 66t-21 25t-55 6q-44 0 -98 -7v90q61 13 133 13q64 0 98 -18.5t47.5 -61.5t13.5 -122v-316h-107l-4 62h-7q-8 -36 -32.5 -53t-56.5 -17q-60 0 -83 36.5zM198 99q11 5 16 21q6 26 6 72v31
h-50q-25 0 -33.5 -13t-8.5 -54q0 -36 7.5 -49t33.5 -13q18 0 29 5zM107.5 624q-24.5 11 -31 31.5t-6.5 60.5q0 42 6.5 62.5t31 31.5t77.5 11t77.5 -11t30.5 -31.5t6 -62.5q0 -41 -6 -61t-30.5 -31t-77.5 -11t-77.5 11zM217.5 681q6.5 8 6.5 35q0 28 -6.5 36.5t-32.5 8.5
q-19 0 -27 -4t-10 -12.5t-2 -28.5q0 -19 2 -27.5t10 -12t27 -3.5q26 0 32.5 8zM138 849v5l36 140h111v-5l-55 -140h-92z" />
    <glyph glyph-name="AEacute" unicode="&#x1fc;" horiz-adv-x="556" 
d="M276 0l-16 151h-120l-31 -151h-120l147 688h393v-109h-195l21 -177h155v-109h-145l23 -184h141v-109h-253zM222 564h-6l-61 -307h97zM235 743v5l36 140h111v-5l-55 -140h-92z" />
    <glyph glyph-name="aeacute" unicode="&#x1fd;" horiz-adv-x="561" 
d="M532 222h-199q0 -65 4.5 -90.5t20 -34.5t55.5 -9t110 7v-89q-25 -6 -63 -10t-73 -4q-44 0 -72 11t-45 37q-37 -48 -122 -48q-73 0 -100.5 36t-27.5 118q0 58 11 91t36.5 48t71.5 15q12 0 81 -3v28q0 47 -5 66t-21 25t-55 6q-42 0 -98 -7v90q63 13 133 13q37 0 62 -9
t42 -30q32 39 104 39t103.5 -25t39 -74.5t7.5 -162.5v-34zM349.5 414.5q-9.5 -7.5 -13 -32t-3.5 -82.5h94v4q0 56 -3.5 80t-12.5 31t-30 7q-22 0 -31.5 -7.5zM220 222h-51q-24 0 -32.5 -12.5t-8.5 -53.5q0 -40 7.5 -54t33.5 -14q19 0 30 7t16 26q5 23 5 68v33zM232 598v5
l36 140h111v-5l-55 -140h-92z" />
    <glyph glyph-name="Oslashacute" unicode="&#x1fe;" horiz-adv-x="423" 
d="M357 641q22 -35 28 -99.5t6 -197.5q0 -157 -9.5 -224.5t-46.5 -97.5t-124 -30q-39 0 -62 5l-16 -52h-101l33 103q-21 36 -27 100t-6 196q0 157 9.5 224.5t46 97.5t123.5 30q38 0 61 -4l17 51h102zM252 113q11 12 14.5 59t3.5 172t-3.5 172t-14.5 59t-41 12t-40.5 -12
t-14.5 -59.5t-4 -171.5t4 -171.5t14.5 -59.5t40.5 -12t41 12zM141 743v5l36 140h111v-5l-55 -140h-92z" />
    <glyph glyph-name="oslashacute" unicode="&#x1ff;" horiz-adv-x="381" 
d="M60 34q-19 27 -25 76t-6 145q0 114 10 166.5t43.5 74.5t107.5 22q27 0 42 -5l19 52h101l-32 -90q20 -27 26 -76t6 -144q0 -115 -10 -167.5t-43.5 -74t-108.5 -21.5q-26 0 -41 4l-19 -51h-101zM224.5 98q9.5 10 12 41.5t2.5 115.5t-2.5 115.5t-12 41.5t-34.5 10
q-24 0 -33.5 -10t-12 -41.5t-2.5 -115.5t2.5 -115.5t12 -41.5t33.5 -10q25 0 34.5 10zM141 598v5l36 140h111v-5l-55 -140h-92z" />
    <glyph glyph-name="uni0200" unicode="&#x200;" horiz-adv-x="422" 
d="M292 0l-23 151h-118l-23 -151h-119l113 688h178l114 -688h-122zM213 564h-6l-44 -307h94zM188 757h-77l-44 112v5h92l29 -113v-4zM311 757h-76l-45 112v5h93l28 -113v-4z" />
    <glyph glyph-name="uni0201" unicode="&#x201;" horiz-adv-x="370" 
d="M43 28.5q-23 36.5 -23 118.5q0 58 11 91t36.5 48t71.5 15q37 0 81 -4v28q0 47 -5 66t-21 25t-55 6q-44 0 -98 -7v90q61 13 133 13q64 0 98 -18.5t47.5 -61.5t13.5 -122v-316h-107l-4 62h-7q-8 -36 -32.5 -53t-56.5 -17q-60 0 -83 36.5zM198 99q11 5 16 21q6 26 6 72v31
h-50q-25 0 -33.5 -13t-8.5 -54q0 -36 7.5 -49t33.5 -13q18 0 29 5zM161 612h-77l-44 112v5h92l29 -113v-4zM284 612h-76l-45 112v5h93l28 -113v-4z" />
    <glyph glyph-name="uni0202" unicode="&#x202;" horiz-adv-x="422" 
d="M292 0l-23 151h-118l-23 -151h-119l113 688h178l114 -688h-122zM213 564h-6l-44 -307h94zM101.5 833q8.5 28 34.5 44.5t76 16.5t75.5 -16.5t34 -44.5t8.5 -72h-73q0 25 -2 37.5t-12 20t-31 7.5q-31 0 -38.5 -15t-7.5 -50h-73q0 44 8.5 72z" />
    <glyph glyph-name="uni0203" unicode="&#x203;" horiz-adv-x="370" 
d="M43 28.5q-23 36.5 -23 118.5q0 58 11 91t36.5 48t71.5 15q37 0 81 -4v28q0 47 -5 66t-21 25t-55 6q-44 0 -98 -7v90q61 13 133 13q64 0 98 -18.5t47.5 -61.5t13.5 -122v-316h-107l-4 62h-7q-8 -36 -32.5 -53t-56.5 -17q-60 0 -83 36.5zM198 99q11 5 16 21q6 26 6 72v31
h-50q-25 0 -33.5 -13t-8.5 -54q0 -36 7.5 -49t33.5 -13q18 0 29 5zM74.5 688q8.5 28 34.5 44.5t76 16.5t75.5 -16.5t34 -44.5t8.5 -72h-73q0 25 -2 37.5t-12 20t-31 7.5q-31 0 -38.5 -15t-7.5 -50h-73q0 44 8.5 72z" />
    <glyph glyph-name="uni0204" unicode="&#x204;" horiz-adv-x="345" 
d="M43 0v688h274v-109h-153v-177h134v-109h-134v-184h153v-109h-274zM156 757h-77l-44 112v5h92l29 -113v-4zM279 757h-76l-45 112v5h93l28 -113v-4z" />
    <glyph glyph-name="uni0205" unicode="&#x205;" horiz-adv-x="370" 
d="M341 221h-199q0 -64 4.5 -89.5t20 -34.5t54.5 -9q35 0 110 7v-89q-23 -6 -61 -10t-74 -4q-77 0 -112.5 26t-45 78.5t-9.5 157.5t9.5 157.5t44 79.5t108.5 27q72 0 103.5 -25t39 -75.5t7.5 -162.5v-34zM158.5 414.5q-9.5 -7.5 -13 -32.5t-3.5 -83h93v5q0 56 -3 79.5
t-12 31t-30 7.5q-22 0 -31.5 -7.5zM161 612h-77l-44 112v5h92l29 -113v-4zM284 612h-76l-45 112v5h93l28 -113v-4z" />
    <glyph glyph-name="uni0206" unicode="&#x206;" horiz-adv-x="345" 
d="M43 0v688h274v-109h-153v-177h134v-109h-134v-184h153v-109h-274zM69.5 833q8.5 28 34.5 44.5t76 16.5t75.5 -16.5t34 -44.5t8.5 -72h-73q0 25 -2 37.5t-12 20t-31 7.5q-31 0 -38.5 -15t-7.5 -50h-73q0 44 8.5 72z" />
    <glyph glyph-name="uni0207" unicode="&#x207;" horiz-adv-x="370" 
d="M341 221h-199q0 -64 4.5 -89.5t20 -34.5t54.5 -9q35 0 110 7v-89q-23 -6 -61 -10t-74 -4q-77 0 -112.5 26t-45 78.5t-9.5 157.5t9.5 157.5t44 79.5t108.5 27q72 0 103.5 -25t39 -75.5t7.5 -162.5v-34zM158.5 414.5q-9.5 -7.5 -13 -32.5t-3.5 -83h93v5q0 56 -3 79.5
t-12 31t-30 7.5q-22 0 -31.5 -7.5zM74.5 688q8.5 28 34.5 44.5t76 16.5t75.5 -16.5t34 -44.5t8.5 -72h-73q0 25 -2 37.5t-12 20t-31 7.5q-31 0 -38.5 -15t-7.5 -50h-73q0 44 8.5 72z" />
    <glyph glyph-name="uni0208" unicode="&#x208;" horiz-adv-x="210" 
d="M45 0v688h120v-688h-120zM81 757h-77l-44 112v5h92l29 -113v-4zM204 757h-76l-45 112v5h93l28 -113v-4z" />
    <glyph glyph-name="uni0209" unicode="&#x209;" horiz-adv-x="191" 
d="M39 0v510h113v-510h-113zM72 612h-77l-44 112v5h92l29 -113v-4zM195 612h-76l-45 112v5h93l28 -113v-4z" />
    <glyph glyph-name="uni020A" unicode="&#x20a;" horiz-adv-x="210" 
d="M45 0v688h120v-688h-120zM-5.5 833q8.5 28 34.5 44.5t76 16.5t75.5 -16.5t34 -44.5t8.5 -72h-73q0 25 -2 37.5t-12 20t-31 7.5q-31 0 -38.5 -15t-7.5 -50h-73q0 44 8.5 72z" />
    <glyph glyph-name="uni020B" unicode="&#x20b;" horiz-adv-x="191" 
d="M39 0v510h113v-510h-113zM-14.5 688q8.5 28 34.5 44.5t76 16.5t75.5 -16.5t34 -44.5t8.5 -72h-73q0 25 -2 37.5t-12 20t-31 7.5q-31 0 -38.5 -15t-7.5 -50h-73q0 44 8.5 72z" />
    <glyph glyph-name="uni020C" unicode="&#x20c;" horiz-adv-x="423" 
d="M87.5 22q-36.5 30 -46 97.5t-9.5 224.5t9.5 224.5t46 97.5t123.5 30t124 -30t46.5 -97.5t9.5 -224.5t-9.5 -224.5t-46.5 -97.5t-124 -30t-123.5 30zM252 113q11 12 14.5 59t3.5 172t-3.5 172t-14.5 59t-41 12t-40.5 -12t-14.5 -59.5t-4 -171.5t4 -171.5t14.5 -59.5
t40.5 -12t41 12zM187 757h-77l-44 112v5h92l29 -113v-4zM310 757h-76l-45 112v5h93l28 -113v-4z" />
    <glyph glyph-name="uni020D" unicode="&#x20d;" horiz-adv-x="381" 
d="M82.5 13.5q-33.5 21.5 -43.5 74t-10 167.5q0 114 10 166.5t43.5 74.5t107.5 22q75 0 108.5 -22t43.5 -74t10 -167t-10 -167.5t-43.5 -74t-108.5 -21.5q-74 0 -107.5 21.5zM224.5 98q9.5 10 12 41.5t2.5 115.5t-2.5 115.5t-12 41.5t-34.5 10q-24 0 -33.5 -10t-12 -41.5
t-2.5 -115.5t2.5 -115.5t12 -41.5t33.5 -10q25 0 34.5 10zM166 612h-77l-44 112v5h92l29 -113v-4zM289 612h-76l-45 112v5h93l28 -113v-4z" />
    <glyph glyph-name="uni020E" unicode="&#x20e;" horiz-adv-x="423" 
d="M87.5 22q-36.5 30 -46 97.5t-9.5 224.5t9.5 224.5t46 97.5t123.5 30t124 -30t46.5 -97.5t9.5 -224.5t-9.5 -224.5t-46.5 -97.5t-124 -30t-123.5 30zM252 113q11 12 14.5 59t3.5 172t-3.5 172t-14.5 59t-41 12t-40.5 -12t-14.5 -59.5t-4 -171.5t4 -171.5t14.5 -59.5
t40.5 -12t41 12zM100.5 833q8.5 28 34.5 44.5t76 16.5t75.5 -16.5t34 -44.5t8.5 -72h-73q0 25 -2 37.5t-12 20t-31 7.5q-31 0 -38.5 -15t-7.5 -50h-73q0 44 8.5 72z" />
    <glyph glyph-name="uni020F" unicode="&#x20f;" horiz-adv-x="381" 
d="M82.5 13.5q-33.5 21.5 -43.5 74t-10 167.5q0 114 10 166.5t43.5 74.5t107.5 22q75 0 108.5 -22t43.5 -74t10 -167t-10 -167.5t-43.5 -74t-108.5 -21.5q-74 0 -107.5 21.5zM224.5 98q9.5 10 12 41.5t2.5 115.5t-2.5 115.5t-12 41.5t-34.5 10q-24 0 -33.5 -10t-12 -41.5
t-2.5 -115.5t2.5 -115.5t12 -41.5t33.5 -10q25 0 34.5 10zM79.5 688q8.5 28 34.5 44.5t76 16.5t75.5 -16.5t34 -44.5t8.5 -72h-73q0 25 -2 37.5t-12 20t-31 7.5q-31 0 -38.5 -15t-7.5 -50h-73q0 44 8.5 72z" />
    <glyph glyph-name="uni0210" unicode="&#x210;" horiz-adv-x="419" 
d="M279 0l-58 245h-2h-55v-245h-121v688h189q67 0 100.5 -25t44.5 -71t11 -125q0 -78 -11 -124.5t-47 -70.5l73 -272h-124zM249.5 359.5q11.5 8.5 15 31.5t3.5 74t-3.5 74t-15 31.5t-37.5 8.5h-48v-228h48q26 0 37.5 8.5zM185 757h-77l-44 112v5h92l29 -113v-4zM308 757h-76
l-45 112v5h93l28 -113v-4z" />
    <glyph glyph-name="uni0211" unicode="&#x211;" horiz-adv-x="271" 
d="M39 510h107l4 -85h8q13 53 37 73t65 20v-121q-56 0 -82 -32.5t-26 -116.5v-248h-113v510zM112 612h-77l-44 112v5h92l29 -113v-4zM235 612h-76l-45 112v5h93l28 -113v-4z" />
    <glyph glyph-name="uni0212" unicode="&#x212;" horiz-adv-x="419" 
d="M279 0l-58 245h-2h-55v-245h-121v688h189q67 0 100.5 -25t44.5 -71t11 -125q0 -78 -11 -124.5t-47 -70.5l73 -272h-124zM249.5 359.5q11.5 8.5 15 31.5t3.5 74t-3.5 74t-15 31.5t-37.5 8.5h-48v-228h48q26 0 37.5 8.5zM98.5 833q8.5 28 34.5 44.5t76 16.5t75.5 -16.5
t34 -44.5t8.5 -72h-73q0 25 -2 37.5t-12 20t-31 7.5q-31 0 -38.5 -15t-7.5 -50h-73q0 44 8.5 72z" />
    <glyph glyph-name="uni0213" unicode="&#x213;" horiz-adv-x="271" 
d="M39 510h107l4 -85h8q13 53 37 73t65 20v-121q-56 0 -82 -32.5t-26 -116.5v-248h-113v510zM25.5 688q8.5 28 34.5 44.5t76 16.5t75.5 -16.5t34 -44.5t8.5 -72h-73q0 25 -2 37.5t-12 20t-31 7.5q-31 0 -38.5 -15t-7.5 -50h-73q0 44 8.5 72z" />
    <glyph glyph-name="uni0214" unicode="&#x214;" horiz-adv-x="426" 
d="M387 688v-385q0 -137 -9 -196.5t-45 -87t-120 -27.5t-120 27.5t-45 87t-9 196.5v385h120v-432q0 -77 3 -106.5t13.5 -39t37.5 -9.5t37.5 9.5t13.5 38.5t3 107v432h120zM189 757h-77l-44 112v5h92l29 -113v-4zM312 757h-76l-45 112v5h93l28 -113v-4z" />
    <glyph glyph-name="uni0215" unicode="&#x215;" horiz-adv-x="392" 
d="M242 62h-7q-20 -70 -98 -70q-43 0 -64.5 17.5t-29 55t-7.5 106.5v339h113v-285q0 -64 3 -90t11.5 -33.5t30.5 -7.5q23 0 32.5 13t11.5 42.5t2 104.5v256h113v-510h-107zM172 612h-77l-44 112v5h92l29 -113v-4zM295 612h-76l-45 112v5h93l28 -113v-4z" />
    <glyph glyph-name="uni0216" unicode="&#x216;" horiz-adv-x="426" 
d="M387 688v-385q0 -137 -9 -196.5t-45 -87t-120 -27.5t-120 27.5t-45 87t-9 196.5v385h120v-432q0 -77 3 -106.5t13.5 -39t37.5 -9.5t37.5 9.5t13.5 38.5t3 107v432h120zM102.5 833q8.5 28 34.5 44.5t76 16.5t75.5 -16.5t34 -44.5t8.5 -72h-73q0 25 -2 37.5t-12 20t-31 7.5
q-31 0 -38.5 -15t-7.5 -50h-73q0 44 8.5 72z" />
    <glyph glyph-name="uni0217" unicode="&#x217;" horiz-adv-x="392" 
d="M242 62h-7q-20 -70 -98 -70q-43 0 -64.5 17.5t-29 55t-7.5 106.5v339h113v-285q0 -64 3 -90t11.5 -33.5t30.5 -7.5q23 0 32.5 13t11.5 42.5t2 104.5v256h113v-510h-107zM85.5 688q8.5 28 34.5 44.5t76 16.5t75.5 -16.5t34 -44.5t8.5 -72h-73q0 25 -2 37.5t-12 20t-31 7.5
q-31 0 -38.5 -15t-7.5 -50h-73q0 44 8.5 72z" />
    <glyph glyph-name="Scommaaccent" unicode="&#x218;" horiz-adv-x="368" 
d="M103 -3.5q-41 4.5 -70 12.5v99q73 -7 113 -7q28 0 43 3.5t24 13.5q14 17 14 74q0 44 -3.5 62t-14.5 26.5t-40 14.5l-80 17q-38 8 -52 52t-14 128q0 81 20 125.5t57.5 61.5t96.5 17q45 0 81.5 -6t46.5 -10v-100q-10 2 -36.5 4.5t-56.5 2.5q-32 0 -49.5 -4.5t-25.5 -14.5
t-10.5 -26t-2.5 -46q0 -35 2.5 -50.5t10.5 -22.5t26 -11l69 -16q31 -6 51.5 -21t32.5 -52q11 -36 11 -110q0 -91 -18.5 -139t-54 -65t-95.5 -17q-35 0 -76 4.5zM164 -210.5q9 10.5 9 40.5v14h-44v94h118v-64q0 -61 -8.5 -91t-34 -42.5t-79.5 -12.5v51q30 0 39 10.5z" />
    <glyph glyph-name="scommaaccent" unicode="&#x219;" horiz-adv-x="317" 
d="M88.5 -3.5q-36.5 4.5 -59.5 11.5v88q50 -8 95 -8q36 0 50.5 12.5t14.5 45.5q0 26 -2.5 37.5t-9.5 16t-24 7.5l-71 14q-34 6 -48.5 38t-14.5 105q0 82 37 118t110 36q30 0 61.5 -4.5t50.5 -11.5v-89q-47 9 -90 9q-31 0 -43.5 -11t-12.5 -43q0 -25 2 -35.5t8 -14.5t20 -7
l61 -12q24 -4 40 -15.5t26.5 -41.5t10.5 -86q0 -91 -35 -127.5t-109 -36.5q-31 0 -67.5 4.5zM139 -210.5q9 10.5 9 40.5v14h-44v94h118v-64q0 -61 -8.5 -91t-34 -42.5t-79.5 -12.5v51q30 0 39 10.5z" />
    <glyph glyph-name="uni021A" unicode="&#x21a;" horiz-adv-x="349" 
d="M114 0v577h-107v111h335v-111h-107v-577h-121zM154 -210.5q9 10.5 9 40.5v14h-44v94h118v-64q0 -61 -8.5 -91t-34 -42.5t-79.5 -12.5v51q30 0 39 10.5z" />
    <glyph glyph-name="uni021B" unicode="&#x21b;" horiz-adv-x="258" 
d="M64 0v414h-51v96h51v148h113v-148h69v-96h-69v-414h-113zM101 -210.5q9 10.5 9 40.5v14h-44v94h118v-64q0 -61 -8.5 -91t-34 -42.5t-79.5 -12.5v51q30 0 39 10.5z" />
    <glyph glyph-name="uni0232" unicode="&#x232;" horiz-adv-x="387" 
d="M133 0v246l-134 442h121l72 -307h10l69 307h117l-134 -442v-246h-121zM107 784v104h174v-104h-174z" />
    <glyph glyph-name="uni0233" unicode="&#x233;" horiz-adv-x="392" 
d="M58 -195v90q60 -2 100 -2t56.5 10t21 35.5t4.5 88.5v43h-7q-20 -68 -97 -68q-43 0 -64 18t-28.5 55.5t-7.5 106.5v328h113v-276q0 -64 3 -89.5t11.5 -33t30.5 -7.5q23 0 32.5 13t11.5 42.5t2 104.5v246h113v-448q0 -104 -10 -157t-46 -80.5t-113 -27.5q-73 0 -126 8z
M109 639v104h174v-104h-174z" />
    <glyph glyph-name="uni0237" unicode="&#x237;" horiz-adv-x="191" 
d="M-12 -109q24 0 35 5t13.5 15t2.5 32v567h113v-512q0 -90 -14 -130t-46.5 -52t-103.5 -12v87z" />
    <glyph glyph-name="uni0259" unicode="&#x259;" horiz-adv-x="370" 
d="M286.5 492q35.5 -26 45 -78.5t9.5 -157.5t-9.5 -157.5t-44 -79.5t-108.5 -27q-72 0 -103.5 25t-39 75.5t-7.5 162.5v34h199q0 64 -4.5 89.5t-20 34.5t-54.5 9q-35 0 -110 -7v89q23 6 61 10t74 4q77 0 112.5 -26zM211.5 95.5q9.5 7.5 13 32.5t3.5 83h-93v-5q0 -56 3 -79.5
t12 -31t30 -7.5q22 0 31.5 7.5z" />
    <glyph glyph-name="uni0272" unicode="&#x272;" horiz-adv-x="392" 
d="M-12 -109q24 0 35 5t13.5 15t2.5 32v567h107l4 -62h8q20 70 98 70q43 0 64 -17.5t28.5 -55t7.5 -106.5v-339h-113v285q0 65 -2.5 90.5t-11 33t-30.5 7.5q-24 0 -33.5 -13t-11.5 -42t-2 -104v-259q0 -90 -14 -130t-46.5 -52t-103.5 -12v87z" />
    <glyph glyph-name="uni02BC" unicode="&#x2bc;" horiz-adv-x="151" 
d="M54 578.5q9 14.5 9 57.5v14h-45v93h118v-63q0 -70 -8.5 -104t-34 -49t-79.5 -15v52q31 0 40 14.5z" />
    <glyph glyph-name="circumflex" unicode="&#x2c6;" horiz-adv-x="250" 
d="M0 616v7l67 120h115l68 -120v-7h-79l-47 71l-45 -71h-79z" />
    <glyph glyph-name="caron" unicode="&#x2c7;" horiz-adv-x="250" 
d="M67 616l-67 119v8h79l45 -71l47 71h79v-8l-68 -119h-115z" />
    <glyph glyph-name="uni02C9" unicode="&#x2c9;" horiz-adv-x="270" 
d="M48 639v104h174v-104h-174z" />
    <glyph glyph-name="breve" unicode="&#x2d8;" horiz-adv-x="237" 
d="M228.5 671q-8.5 -28 -34.5 -44.5t-76 -16.5t-75.5 16.5t-34 44.5t-8.5 72h73q0 -25 2 -37.5t12 -20t31 -7.5q31 0 38.5 15t7.5 50h73q0 -44 -8.5 -72z" />
    <glyph glyph-name="dotaccent" unicode="&#x2d9;" horiz-adv-x="106" 
d="M4 633v97h99v-97h-99z" />
    <glyph glyph-name="ring" unicode="&#x2da;" horiz-adv-x="229" 
d="M37.5 624q-24.5 11 -31 31.5t-6.5 60.5q0 42 6.5 62.5t31 31.5t77.5 11t77.5 -11t30.5 -31.5t6 -62.5q0 -41 -6 -61t-30.5 -31t-77.5 -11t-77.5 11zM147.5 681q6.5 8 6.5 35q0 28 -6.5 36.5t-32.5 8.5q-19 0 -27 -4t-10 -12.5t-2 -28.5q0 -19 2 -27.5t10 -12t27 -3.5
q26 0 32.5 8z" />
    <glyph glyph-name="ogonek" unicode="&#x2db;" horiz-adv-x="136" 
d="M91 -196q-48 0 -69.5 24t-21.5 62q0 28 15 58.5t39 55.5h81q-17 -16 -32.5 -43.5t-15.5 -51.5q0 -19 8 -29.5t29 -10.5l12 1v-62q-16 -4 -45 -4z" />
    <glyph glyph-name="tilde" unicode="&#x2dc;" horiz-adv-x="273" 
d="M269.5 670.5q-3.5 -24.5 -18 -38t-44.5 -13.5q-27 0 -76 17q-7 2 -21.5 7.5t-24.5 5.5q-11 0 -13.5 -8.5t-2.5 -32.5h-69q0 47 4 71.5t18 38t45 13.5q29 0 76 -17q4 -1 19.5 -6.5t26.5 -5.5q10 0 12.5 8.5t2.5 32.5h69q0 -48 -3.5 -72.5z" />
    <glyph glyph-name="hungarumlaut" unicode="&#x2dd;" horiz-adv-x="254" 
d="M5 612v4l28 113h93v-5l-45 -112h-76zM128 612v4l29 113h92v-5l-44 -112h-77z" />
    <glyph glyph-name="gravecomb" unicode="&#x300;" 
d="M-92 598l-55 140v5h111l36 -140v-5h-92z" />
    <glyph glyph-name="acutecomb" unicode="&#x301;" 
d="M-147 598v5l36 140h111v-5l-55 -140h-92z" />
    <glyph glyph-name="uni0302" unicode="&#x302;" 
d="M-250 616v7l67 120h115l68 -120v-7h-79l-47 71l-45 -71h-79z" />
    <glyph glyph-name="tildecomb" unicode="&#x303;" 
d="M-3.5 670.5q-3.5 -24.5 -18 -38t-44.5 -13.5q-27 0 -76 17q-7 2 -21.5 7.5t-24.5 5.5q-11 0 -13.5 -8.5t-2.5 -32.5h-69q0 47 4 71.5t18 38t45 13.5q29 0 76 -17q4 -1 19.5 -6.5t26.5 -5.5q10 0 12.5 8.5t2.5 32.5h69q0 -48 -3.5 -72.5z" />
    <glyph glyph-name="uni0304" unicode="&#x304;" 
d="M-222 639v104h174v-104h-174z" />
    <glyph glyph-name="uni0306" unicode="&#x306;" 
d="M-8.5 671q-8.5 -28 -34.5 -44.5t-76 -16.5t-75.5 16.5t-34 44.5t-8.5 72h73q0 -25 2 -37.5t12 -20t31 -7.5q31 0 38.5 15t7.5 50h73q0 -44 -8.5 -72z" />
    <glyph glyph-name="uni0307" unicode="&#x307;" 
d="M-102 633v97h99v-97h-99z" />
    <glyph glyph-name="uni0308" unicode="&#x308;" 
d="M-272 633v97h99v-97h-99zM-107 633v97h99v-97h-99z" />
    <glyph glyph-name="hookabovecomb" unicode="&#x309;" 
d="M-192 637q0 20 7.5 31t26.5 17l10 3q28 9 37 15t9 19q0 12 -8 15.5t-34 3.5q-28 0 -94 -2v65q68 12 107 12q57 0 85 -15.5t28 -60.5q0 -35 -8 -51.5t-38 -29.5l-11 -5q-18 -7 -28.5 -12.5t-12.5 -10t-2 -17.5h-74v23z" />
    <glyph glyph-name="uni030A" unicode="&#x30a;" 
d="M-191.5 624q-24.5 11 -31 31.5t-6.5 60.5q0 42 6.5 62.5t31 31.5t77.5 11t77.5 -11t30.5 -31.5t6 -62.5q0 -41 -6 -61t-30.5 -31t-77.5 -11t-77.5 11zM-81.5 681q6.5 8 6.5 35q0 28 -6.5 36.5t-32.5 8.5q-19 0 -27 -4t-10 -12.5t-2 -28.5q0 -19 2 -27.5t10 -12t27 -3.5
q26 0 32.5 8z" />
    <glyph glyph-name="uni030B" unicode="&#x30b;" 
d="M-249 612v4l28 113h93v-5l-45 -112h-76zM-126 612v4l29 113h92v-5l-44 -112h-77z" />
    <glyph glyph-name="uni030C" unicode="&#x30c;" 
d="M-183 616l-67 119v8h79l45 -71l47 71h79v-8l-68 -119h-115z" />
    <glyph glyph-name="uni030F" unicode="&#x30f;" 
d="M-128 612h-77l-44 112v5h92l29 -113v-4zM-5 612h-76l-45 112v5h93l28 -113v-4z" />
    <glyph glyph-name="uni0311" unicode="&#x311;" 
d="M-228.5 688q8.5 28 34.5 44.5t76 16.5t75.5 -16.5t34 -44.5t8.5 -72h-73q0 25 -2 37.5t-12 20t-31 7.5q-31 0 -38.5 -15t-7.5 -50h-73q0 44 8.5 72z" />
    <glyph glyph-name="uni0312" unicode="&#x312;" 
d="M-345 747q-9 -10 -9 -40v-15h44v-93h-118v64q0 61 8.5 91t34 42.5t79.5 12.5v-52q-30 0 -39 -10z" />
    <glyph glyph-name="uni031B" unicode="&#x31b;" 
d="M-132 522q10 12 10 43v36h74v-21q0 -52 -8.5 -77t-34.5 -36t-81 -11h-48v54h48q30 0 40 12z" />
    <glyph glyph-name="dotbelowcomb" unicode="&#x323;" 
d="M-171 -183v121h124v-121h-124z" />
    <glyph glyph-name="uni0326" unicode="&#x326;" 
d="M-126 -210.5q9 10.5 9 40.5v14h-44v94h118v-64q0 -61 -8.5 -91t-34 -42.5t-79.5 -12.5v51q30 0 39 10.5z" />
    <glyph glyph-name="uni0327" unicode="&#x327;" 
d="M-137 -189v5l61 192h72v-5l-36 -192h-97z" />
    <glyph glyph-name="uni0328" unicode="&#x328;" 
d="M-45 -196q-48 0 -69.5 24t-21.5 62q0 28 15 58.5t39 55.5h81q-17 -16 -32.5 -43.5t-15.5 -51.5q0 -19 8 -29.5t29 -10.5l12 1v-62q-16 -4 -45 -4z" />
    <glyph glyph-name="uni0335" unicode="&#x335;" 
d="M-219 293v110h217v-110h-217z" />
    <glyph glyph-name="uni0336" unicode="&#x336;" 
d="M-43 479h-350v109h350v-109z" />
    <glyph glyph-name="uni0394" unicode="&#x394;" horiz-adv-x="423" 
d="M9 0l112 688h179l114 -688h-405zM214 564h-7l-68 -461h141z" />
    <glyph glyph-name="uni03A9" unicode="&#x3a9;" horiz-adv-x="437" 
d="M39 102h6l72 -22v6q-40 28 -59 99t-19 192q0 129 11 193t49 95t119 31q82 0 120 -31t49 -95t11 -193q0 -121 -19 -192t-59 -99v-6q18 5 32 10l40 12h5v-102h-157v103q18 7 26 27.5t10.5 70.5t2.5 161q0 108 -3.5 152t-16 58.5t-41.5 14.5t-41 -14.5t-15.5 -58
t-3.5 -152.5q0 -111 2.5 -160.5t10 -70.5t25.5 -28v-103h-157v102z" />
    <glyph glyph-name="uni03BC" unicode="&#x3bc;" horiz-adv-x="395" 
d="M356 510v-510h-107l-4 62h-8q-9 -33 -27 -48.5t-50 -15.5h-8v-187h-113v699h113v-285q0 -65 2.5 -90.5t11 -33t30.5 -7.5q24 0 33.5 13t11.5 42.5t2 104.5v256h113z" />
    <glyph glyph-name="pi" unicode="&#x3c0;" horiz-adv-x="391" 
d="M239 0v419h-87v-419h-113v510h313v-510h-113z" />
    <glyph glyph-name="uni1E0C" unicode="&#x1e0c;" horiz-adv-x="416" 
d="M43 688h161q87 0 124 -29.5t46.5 -95t9.5 -219.5q0 -153 -9.5 -219t-46.5 -95.5t-124 -29.5h-161v688zM204 109q31 0 42 11.5t15 57.5t4 166t-4 166t-15 57.5t-42 11.5h-42v-470h42zM146 -183v121h124v-121h-124z" />
    <glyph glyph-name="uni1E0D" unicode="&#x1e0d;" horiz-adv-x="390" 
d="M73.5 14q-24.5 22 -34.5 77.5t-10 163.5q0 105 9.5 160.5t33 79t70.5 23.5q37 0 58.5 -16t30.5 -48h7v289h113v-743h-107l-4 61h-7q-9 -38 -33 -53.5t-56 -15.5q-46 0 -70.5 22zM220 103q10 9 14 33q4 31 4 123q0 85 -4 109q-4 29 -14 38.5t-31 9.5q-23 0 -32 -9
t-12 -40.5t-3 -111.5t3 -111.5t12 -40.5t33 -9q20 0 30 9zM133 -183v121h124v-121h-124z" />
    <glyph glyph-name="uni1E24" unicode="&#x1e24;" horiz-adv-x="436" 
d="M272 0v290h-108v-290h-121v688h121v-284h108v284h121v-688h-121zM156 -183v121h124v-121h-124z" />
    <glyph glyph-name="uni1E25" unicode="&#x1e25;" horiz-adv-x="392" 
d="M243 285q0 65 -2.5 90.5t-11 33t-30.5 7.5q-24 0 -33.5 -13t-11.5 -42.5t-2 -104.5v-256h-113v743h113v-291h8q19 66 96 66q43 0 64 -17.5t28.5 -55t7.5 -106.5v-339h-113v285zM134 -183v121h124v-121h-124z" />
    <glyph glyph-name="uni1E44" unicode="&#x1e44;" horiz-adv-x="439" 
d="M289 0l-127 388h-4v-388h-115v688h114l119 -361h6v361h114v-688h-107zM170 778v97h99v-97h-99z" />
    <glyph glyph-name="uni1E45" unicode="&#x1e45;" horiz-adv-x="392" 
d="M243 285q0 65 -2.5 90.5t-11 33t-30.5 7.5q-24 0 -33.5 -13t-11.5 -42.5t-2 -104.5v-256h-113v510h107l4 -62h8q20 70 98 70q43 0 64 -17.5t28.5 -55t7.5 -106.5v-339h-113v285zM146 633v97h99v-97h-99z" />
    <glyph glyph-name="uni1E5A" unicode="&#x1e5a;" horiz-adv-x="419" 
d="M279 0l-58 245h-2h-55v-245h-121v688h189q67 0 100.5 -25t44.5 -71t11 -125q0 -78 -11 -124.5t-47 -70.5l73 -272h-124zM249.5 359.5q11.5 8.5 15 31.5t3.5 74t-3.5 74t-15 31.5t-37.5 8.5h-48v-228h48q26 0 37.5 8.5zM147 -183v121h124v-121h-124z" />
    <glyph glyph-name="uni1E5B" unicode="&#x1e5b;" horiz-adv-x="271" 
d="M39 510h107l4 -85h8q13 53 37 73t65 20v-121q-56 0 -82 -32.5t-26 -116.5v-248h-113v510zM34 -183v121h124v-121h-124z" />
    <glyph glyph-name="uni1E62" unicode="&#x1e62;" horiz-adv-x="368" 
d="M103 -3.5q-41 4.5 -70 12.5v99q73 -7 113 -7q28 0 43 3.5t24 13.5q14 17 14 74q0 44 -3.5 62t-14.5 26.5t-40 14.5l-80 17q-38 8 -52 52t-14 128q0 81 20 125.5t57.5 61.5t96.5 17q45 0 81.5 -6t46.5 -10v-100q-10 2 -36.5 4.5t-56.5 2.5q-32 0 -49.5 -4.5t-25.5 -14.5
t-10.5 -26t-2.5 -46q0 -35 2.5 -50.5t10.5 -22.5t26 -11l69 -16q31 -6 51.5 -21t32.5 -52q11 -36 11 -110q0 -91 -18.5 -139t-54 -65t-95.5 -17q-35 0 -76 4.5zM122 -183v121h124v-121h-124z" />
    <glyph glyph-name="uni1E63" unicode="&#x1e63;" horiz-adv-x="317" 
d="M88.5 -3.5q-36.5 4.5 -59.5 11.5v88q50 -8 95 -8q36 0 50.5 12.5t14.5 45.5q0 26 -2.5 37.5t-9.5 16t-24 7.5l-71 14q-34 6 -48.5 38t-14.5 105q0 82 37 118t110 36q30 0 61.5 -4.5t50.5 -11.5v-89q-47 9 -90 9q-31 0 -43.5 -11t-12.5 -43q0 -25 2 -35.5t8 -14.5t20 -7
l61 -12q24 -4 40 -15.5t26.5 -41.5t10.5 -86q0 -91 -35 -127.5t-109 -36.5q-31 0 -67.5 4.5zM97 -183v121h124v-121h-124z" />
    <glyph glyph-name="uni1E6C" unicode="&#x1e6c;" horiz-adv-x="349" 
d="M114 0v577h-107v111h335v-111h-107v-577h-121zM112 -183v121h124v-121h-124z" />
    <glyph glyph-name="uni1E6D" unicode="&#x1e6d;" horiz-adv-x="258" 
d="M64 0v414h-51v96h51v148h113v-148h69v-96h-69v-414h-113zM59 -183v121h124v-121h-124z" />
    <glyph glyph-name="Wgrave" unicode="&#x1e80;" horiz-adv-x="643" 
d="M384 0l-60 502h-6l-59 -502h-168l-78 688h122l44 -557h7l64 557h147l66 -557h7l42 557h118l-78 -688h-168zM277 743l-55 140v5h111l36 -140v-5h-92z" />
    <glyph glyph-name="wgrave" unicode="&#x1e81;" horiz-adv-x="557" 
d="M329 0l-46 299h-7l-46 -299h-141l-81 510h112l42 -363h7l56 363h112l57 -363h7l42 363h106l-81 -510h-139zM233 598l-55 140v5h111l36 -140v-5h-92z" />
    <glyph glyph-name="Wacute" unicode="&#x1e82;" horiz-adv-x="643" 
d="M384 0l-60 502h-6l-59 -502h-168l-78 688h122l44 -557h7l64 557h147l66 -557h7l42 557h118l-78 -688h-168zM279 743v5l36 140h111v-5l-55 -140h-92z" />
    <glyph glyph-name="wacute" unicode="&#x1e83;" horiz-adv-x="557" 
d="M329 0l-46 299h-7l-46 -299h-141l-81 510h112l42 -363h7l56 363h112l57 -363h7l42 363h106l-81 -510h-139zM232 598v5l36 140h111v-5l-55 -140h-92z" />
    <glyph glyph-name="Wdieresis" unicode="&#x1e84;" horiz-adv-x="643" 
d="M384 0l-60 502h-6l-59 -502h-168l-78 688h122l44 -557h7l64 557h147l66 -557h7l42 557h118l-78 -688h-168zM190 778v97h99v-97h-99zM355 778v97h99v-97h-99z" />
    <glyph glyph-name="wdieresis" unicode="&#x1e85;" horiz-adv-x="557" 
d="M329 0l-46 299h-7l-46 -299h-141l-81 510h112l42 -363h7l56 363h112l57 -363h7l42 363h106l-81 -510h-139zM149 633v97h99v-97h-99zM314 633v97h99v-97h-99z" />
    <glyph glyph-name="uni1E92" unicode="&#x1e92;" horiz-adv-x="362" 
d="M24 0v102l183 477h-178v109h307v-101l-184 -478h185v-109h-313zM119 -183v121h124v-121h-124z" />
    <glyph glyph-name="uni1E93" unicode="&#x1e93;" horiz-adv-x="335" 
d="M26 0v89l156 325h-151v96h278v-89l-157 -325h158v-96h-284zM106 -183v121h124v-121h-124z" />
    <glyph glyph-name="uni1E9E" unicode="&#x1e9e;" horiz-adv-x="497" 
d="M441.5 326q31.5 -45 31.5 -145q0 -103 -38 -146t-129 -43q-22 0 -50 5t-48 12v99q37 -7 59 -7q36 0 53 6t24.5 25t7.5 61q0 43 -7 64.5t-23.5 29t-48.5 7.5h-47v89l95 197q-37 7 -69 7q-46 0 -64 -14.5t-23.5 -59t-5.5 -155.5v-358h-120v358q0 143 14.5 212t57.5 97.5
t135 28.5q48 0 105 -7t96 -17v-89l-100 -203q63 -9 94.5 -54z" />
    <glyph glyph-name="uni1EA0" unicode="&#x1ea0;" horiz-adv-x="422" 
d="M292 0l-23 151h-118l-23 -151h-119l113 688h178l114 -688h-122zM213 564h-6l-44 -307h94zM150 -183v121h124v-121h-124z" />
    <glyph glyph-name="uni1EA1" unicode="&#x1ea1;" horiz-adv-x="370" 
d="M43 28.5q-23 36.5 -23 118.5q0 58 11 91t36.5 48t71.5 15q37 0 81 -4v28q0 47 -5 66t-21 25t-55 6q-44 0 -98 -7v90q61 13 133 13q64 0 98 -18.5t47.5 -61.5t13.5 -122v-316h-107l-4 62h-7q-8 -36 -32.5 -53t-56.5 -17q-60 0 -83 36.5zM198 99q11 5 16 21q6 26 6 72v31
h-50q-25 0 -33.5 -13t-8.5 -54q0 -36 7.5 -49t33.5 -13q18 0 29 5zM123 -183v121h124v-121h-124z" />
    <glyph glyph-name="uni1EA2" unicode="&#x1ea2;" horiz-adv-x="422" 
d="M292 0l-23 151h-118l-23 -151h-119l113 688h178l114 -688h-122zM213 564h-6l-44 -307h94zM148 755q0 21 7.5 31.5t26.5 16.5l10 3q28 10 37 16t9 19q0 12 -8 15.5t-34 3.5q-28 0 -94 -2v65q68 12 107 12q57 0 85 -15.5t28 -60.5q0 -35 -8 -51.5t-38 -29.5l-11 -5
q-23 -9 -31 -13.5t-10 -9.5t-2 -17h-74v22z" />
    <glyph glyph-name="uni1EA3" unicode="&#x1ea3;" horiz-adv-x="370" 
d="M43 28.5q-23 36.5 -23 118.5q0 58 11 91t36.5 48t71.5 15q37 0 81 -4v28q0 47 -5 66t-21 25t-55 6q-44 0 -98 -7v90q61 13 133 13q64 0 98 -18.5t47.5 -61.5t13.5 -122v-316h-107l-4 62h-7q-8 -36 -32.5 -53t-56.5 -17q-60 0 -83 36.5zM198 99q11 5 16 21q6 26 6 72v31
h-50q-25 0 -33.5 -13t-8.5 -54q0 -36 7.5 -49t33.5 -13q18 0 29 5zM121 637q0 20 7.5 31t26.5 17l10 3q28 9 37 15t9 19q0 12 -8 15.5t-34 3.5q-28 0 -94 -2v65q68 12 107 12q57 0 85 -15.5t28 -60.5q0 -35 -8 -51.5t-38 -29.5l-11 -5q-18 -7 -28.5 -12.5t-12.5 -10
t-2 -17.5h-74v23z" />
    <glyph glyph-name="uni1EA4" unicode="&#x1ea4;" horiz-adv-x="422" 
d="M292 0l-23 151h-118l-23 -151h-119l113 688h178l114 -688h-122zM213 564h-6l-44 -307h94zM88 729v7l67 120h115l68 -120v-7h-79l-47 71l-45 -71h-79zM244 875v5l36 140h111v-5l-55 -140h-92z" />
    <glyph glyph-name="uni1EA5" unicode="&#x1ea5;" horiz-adv-x="370" 
d="M43 28.5q-23 36.5 -23 118.5q0 58 11 91t36.5 48t71.5 15q37 0 81 -4v28q0 47 -5 66t-21 25t-55 6q-44 0 -98 -7v90q61 13 133 13q64 0 98 -18.5t47.5 -61.5t13.5 -122v-316h-107l-4 62h-7q-8 -36 -32.5 -53t-56.5 -17q-60 0 -83 36.5zM198 99q11 5 16 21q6 26 6 72v31
h-50q-25 0 -33.5 -13t-8.5 -54q0 -36 7.5 -49t33.5 -13q18 0 29 5zM61 616v7l67 120h115l68 -120v-7h-79l-47 71l-45 -71h-79zM217 761v5l36 140h111v-5l-55 -140h-92z" />
    <glyph glyph-name="uni1EA6" unicode="&#x1ea6;" horiz-adv-x="422" 
d="M292 0l-23 151h-118l-23 -151h-119l113 688h178l114 -688h-122zM213 564h-6l-44 -307h94zM79 729v7l67 120h115l68 -120v-7h-79l-47 71l-45 -71h-79zM251 874l-55 140v5h111l36 -140v-5h-92z" />
    <glyph glyph-name="uni1EA7" unicode="&#x1ea7;" horiz-adv-x="370" 
d="M43 28.5q-23 36.5 -23 118.5q0 58 11 91t36.5 48t71.5 15q37 0 81 -4v28q0 47 -5 66t-21 25t-55 6q-44 0 -98 -7v90q61 13 133 13q64 0 98 -18.5t47.5 -61.5t13.5 -122v-316h-107l-4 62h-7q-8 -36 -32.5 -53t-56.5 -17q-60 0 -83 36.5zM198 99q11 5 16 21q6 26 6 72v31
h-50q-25 0 -33.5 -13t-8.5 -54q0 -36 7.5 -49t33.5 -13q18 0 29 5zM52 616v7l67 120h115l68 -120v-7h-79l-47 71l-45 -71h-79zM224 761l-55 140v5h111l36 -140v-5h-92z" />
    <glyph glyph-name="uni1EA8" unicode="&#x1ea8;" horiz-adv-x="422" 
d="M292 0l-23 151h-118l-23 -151h-119l113 688h178l114 -688h-122zM213 564h-6l-44 -307h94zM87 729v7l67 120h115l68 -120v-7h-79l-47 71l-45 -71h-79zM262 895q0 20 7.5 31t26.5 17l10 3q28 9 37 15t9 19q0 12 -8 15.5t-34 3.5q-28 0 -94 -2v65q68 12 107 12
q57 0 85 -15.5t28 -60.5q0 -35 -8 -51.5t-38 -29.5l-11 -5q-18 -7 -28.5 -12.5t-12.5 -10t-2 -17.5h-74v23z" />
    <glyph glyph-name="uni1EA9" unicode="&#x1ea9;" horiz-adv-x="370" 
d="M43 28.5q-23 36.5 -23 118.5q0 58 11 91t36.5 48t71.5 15q37 0 81 -4v28q0 47 -5 66t-21 25t-55 6q-44 0 -98 -7v90q61 13 133 13q64 0 98 -18.5t47.5 -61.5t13.5 -122v-316h-107l-4 62h-7q-8 -36 -32.5 -53t-56.5 -17q-60 0 -83 36.5zM198 99q11 5 16 21q6 26 6 72v31
h-50q-25 0 -33.5 -13t-8.5 -54q0 -36 7.5 -49t33.5 -13q18 0 29 5zM60 616v7l67 120h115l68 -120v-7h-79l-47 71l-45 -71h-79zM235 781q0 20 7.5 31t26.5 17l10 3q28 9 37 15t9 19q0 12 -8 15.5t-34 3.5q-28 0 -94 -2v65q68 12 107 12q57 0 85 -15.5t28 -60.5
q0 -35 -8 -51.5t-38 -29.5l-11 -5q-18 -7 -28.5 -12.5t-12.5 -10t-2 -17.5h-74v23z" />
    <glyph glyph-name="uni1EAA" unicode="&#x1eaa;" horiz-adv-x="422" 
d="M292 0l-23 151h-118l-23 -151h-119l113 688h178l114 -688h-122zM213 564h-6l-44 -307h94zM85 729v7l67 120h115l68 -120v-7h-79l-47 71l-45 -71h-79zM344.5 956.5q-3.5 -24.5 -18 -38t-44.5 -13.5q-27 0 -76 17q-7 2 -21.5 7.5t-24.5 5.5q-11 0 -13.5 -8.5t-2.5 -32.5
h-69q0 47 4 71.5t18 38t45 13.5q29 0 76 -17q4 -1 19.5 -6.5t26.5 -5.5q10 0 12.5 8.5t2.5 32.5h69q0 -48 -3.5 -72.5z" />
    <glyph glyph-name="uni1EAB" unicode="&#x1eab;" horiz-adv-x="370" 
d="M43 28.5q-23 36.5 -23 118.5q0 58 11 91t36.5 48t71.5 15q37 0 81 -4v28q0 47 -5 66t-21 25t-55 6q-44 0 -98 -7v90q61 13 133 13q64 0 98 -18.5t47.5 -61.5t13.5 -122v-316h-107l-4 62h-7q-8 -36 -32.5 -53t-56.5 -17q-60 0 -83 36.5zM198 99q11 5 16 21q6 26 6 72v31
h-50q-25 0 -33.5 -13t-8.5 -54q0 -36 7.5 -49t33.5 -13q18 0 29 5zM58 616v7l67 120h115l68 -120v-7h-79l-47 71l-45 -71h-79zM317.5 843.5q-3.5 -24.5 -18 -38t-44.5 -13.5q-27 0 -76 17q-7 2 -21.5 7.5t-24.5 5.5q-11 0 -13.5 -8.5t-2.5 -32.5h-69q0 47 4 71.5t18 38
t45 13.5q29 0 76 -17q4 -1 19.5 -6.5t26.5 -5.5q10 0 12.5 8.5t2.5 32.5h69q0 -48 -3.5 -72.5z" />
    <glyph glyph-name="uni1EAC" unicode="&#x1eac;" horiz-adv-x="422" 
d="M292 0l-23 151h-118l-23 -151h-119l113 688h178l114 -688h-122zM213 564h-6l-44 -307h94zM150 -183v121h124v-121h-124zM87 761v7l67 120h115l68 -120v-7h-79l-47 71l-45 -71h-79z" />
    <glyph glyph-name="uni1EAD" unicode="&#x1ead;" horiz-adv-x="370" 
d="M43 28.5q-23 36.5 -23 118.5q0 58 11 91t36.5 48t71.5 15q37 0 81 -4v28q0 47 -5 66t-21 25t-55 6q-44 0 -98 -7v90q61 13 133 13q64 0 98 -18.5t47.5 -61.5t13.5 -122v-316h-107l-4 62h-7q-8 -36 -32.5 -53t-56.5 -17q-60 0 -83 36.5zM198 99q11 5 16 21q6 26 6 72v31
h-50q-25 0 -33.5 -13t-8.5 -54q0 -36 7.5 -49t33.5 -13q18 0 29 5zM123 -183v121h124v-121h-124zM60 616v7l67 120h115l68 -120v-7h-79l-47 71l-45 -71h-79z" />
    <glyph glyph-name="uni1EAE" unicode="&#x1eae;" horiz-adv-x="422" 
d="M292 0l-23 151h-118l-23 -151h-119l113 688h178l114 -688h-122zM213 564h-6l-44 -307h94zM321.5 816q-8.5 -28 -34.5 -44.5t-76 -16.5t-75.5 16.5t-34 44.5t-8.5 72h73q0 -25 2 -37.5t12 -20t31 -7.5q31 0 38.5 15t7.5 50h73q0 -44 -8.5 -72zM161 916v5l36 140h111v-5
l-55 -140h-92z" />
    <glyph glyph-name="uni1EAF" unicode="&#x1eaf;" horiz-adv-x="370" 
d="M43 28.5q-23 36.5 -23 118.5q0 58 11 91t36.5 48t71.5 15q37 0 81 -4v28q0 47 -5 66t-21 25t-55 6q-44 0 -98 -7v90q61 13 133 13q64 0 98 -18.5t47.5 -61.5t13.5 -122v-316h-107l-4 62h-7q-8 -36 -32.5 -53t-56.5 -17q-60 0 -83 36.5zM198 99q11 5 16 21q6 26 6 72v31
h-50q-25 0 -33.5 -13t-8.5 -54q0 -36 7.5 -49t33.5 -13q18 0 29 5zM294.5 671q-8.5 -28 -34.5 -44.5t-76 -16.5t-75.5 16.5t-34 44.5t-8.5 72h73q0 -25 2 -37.5t12 -20t31 -7.5q31 0 38.5 15t7.5 50h73q0 -44 -8.5 -72zM134 771v5l36 140h111v-5l-55 -140h-92z" />
    <glyph glyph-name="uni1EB0" unicode="&#x1eb0;" horiz-adv-x="422" 
d="M292 0l-23 151h-118l-23 -151h-119l113 688h178l114 -688h-122zM213 564h-6l-44 -307h94zM321.5 816q-8.5 -28 -34.5 -44.5t-76 -16.5t-75.5 16.5t-34 44.5t-8.5 72h73q0 -25 2 -37.5t12 -20t31 -7.5q31 0 38.5 15t7.5 50h73q0 -44 -8.5 -72zM166 916l-55 140v5h111
l36 -140v-5h-92z" />
    <glyph glyph-name="uni1EB1" unicode="&#x1eb1;" horiz-adv-x="370" 
d="M43 28.5q-23 36.5 -23 118.5q0 58 11 91t36.5 48t71.5 15q37 0 81 -4v28q0 47 -5 66t-21 25t-55 6q-44 0 -98 -7v90q61 13 133 13q64 0 98 -18.5t47.5 -61.5t13.5 -122v-316h-107l-4 62h-7q-8 -36 -32.5 -53t-56.5 -17q-60 0 -83 36.5zM198 99q11 5 16 21q6 26 6 72v31
h-50q-25 0 -33.5 -13t-8.5 -54q0 -36 7.5 -49t33.5 -13q18 0 29 5zM294.5 671q-8.5 -28 -34.5 -44.5t-76 -16.5t-75.5 16.5t-34 44.5t-8.5 72h73q0 -25 2 -37.5t12 -20t31 -7.5q31 0 38.5 15t7.5 50h73q0 -44 -8.5 -72zM139 771l-55 140v5h111l36 -140v-5h-92z" />
    <glyph glyph-name="uni1EB2" unicode="&#x1eb2;" horiz-adv-x="422" 
d="M292 0l-23 151h-118l-23 -151h-119l113 688h178l114 -688h-122zM213 564h-6l-44 -307h94zM313.5 816q-8.5 -28 -34.5 -44.5t-76 -16.5t-75.5 16.5t-34 44.5t-8.5 72h73q0 -25 2 -37.5t12 -20t31 -7.5q31 0 38.5 15t7.5 50h73q0 -44 -8.5 -72zM163 916q0 20 7.5 31
t26.5 17l10 3q28 9 37 15t9 19q0 12 -8 15.5t-34 3.5q-28 0 -94 -2v65q68 12 107 12q57 0 85 -15.5t28 -60.5q0 -35 -8 -51.5t-38 -29.5l-11 -5q-18 -7 -28.5 -12.5t-12.5 -10t-2 -17.5h-74v23z" />
    <glyph glyph-name="uni1EB3" unicode="&#x1eb3;" horiz-adv-x="370" 
d="M43 28.5q-23 36.5 -23 118.5q0 58 11 91t36.5 48t71.5 15q37 0 81 -4v28q0 47 -5 66t-21 25t-55 6q-44 0 -98 -7v90q61 13 133 13q64 0 98 -18.5t47.5 -61.5t13.5 -122v-316h-107l-4 62h-7q-8 -36 -32.5 -53t-56.5 -17q-60 0 -83 36.5zM198 99q11 5 16 21q6 26 6 72v31
h-50q-25 0 -33.5 -13t-8.5 -54q0 -36 7.5 -49t33.5 -13q18 0 29 5zM286.5 671q-8.5 -28 -34.5 -44.5t-76 -16.5t-75.5 16.5t-34 44.5t-8.5 72h73q0 -25 2 -37.5t12 -20t31 -7.5q31 0 38.5 15t7.5 50h73q0 -44 -8.5 -72zM136 771q0 20 7.5 31t26.5 17l10 3q28 9 37 15t9 19
q0 12 -8 15.5t-34 3.5q-28 0 -94 -2v65q68 12 107 12q57 0 85 -15.5t28 -60.5q0 -35 -8 -51.5t-38 -29.5l-11 -5q-18 -7 -28.5 -12.5t-12.5 -10t-2 -17.5h-74v23z" />
    <glyph glyph-name="uni1EB4" unicode="&#x1eb4;" horiz-adv-x="422" 
d="M292 0l-23 151h-118l-23 -151h-119l113 688h178l114 -688h-122zM213 564h-6l-44 -307h94zM319.5 816q-8.5 -28 -34.5 -44.5t-76 -16.5t-75.5 16.5t-34 44.5t-8.5 72h73q0 -25 2 -37.5t12 -20t31 -7.5q31 0 38.5 15t7.5 50h73q0 -44 -8.5 -72zM344.5 988.5
q-3.5 -24.5 -18 -38t-44.5 -13.5q-27 0 -76 17q-7 2 -21.5 7.5t-24.5 5.5q-11 0 -13.5 -8.5t-2.5 -32.5h-69q0 47 4 71.5t18 38t45 13.5q29 0 76 -17q4 -1 19.5 -6.5t26.5 -5.5q10 0 12.5 8.5t2.5 32.5h69q0 -48 -3.5 -72.5z" />
    <glyph glyph-name="uni1EB5" unicode="&#x1eb5;" horiz-adv-x="370" 
d="M43 28.5q-23 36.5 -23 118.5q0 58 11 91t36.5 48t71.5 15q37 0 81 -4v28q0 47 -5 66t-21 25t-55 6q-44 0 -98 -7v90q61 13 133 13q64 0 98 -18.5t47.5 -61.5t13.5 -122v-316h-107l-4 62h-7q-8 -36 -32.5 -53t-56.5 -17q-60 0 -83 36.5zM198 99q11 5 16 21q6 26 6 72v31
h-50q-25 0 -33.5 -13t-8.5 -54q0 -36 7.5 -49t33.5 -13q18 0 29 5zM292.5 671q-8.5 -28 -34.5 -44.5t-76 -16.5t-75.5 16.5t-34 44.5t-8.5 72h73q0 -25 2 -37.5t12 -20t31 -7.5q31 0 38.5 15t7.5 50h73q0 -44 -8.5 -72zM317.5 843.5q-3.5 -24.5 -18 -38t-44.5 -13.5
q-27 0 -76 17q-7 2 -21.5 7.5t-24.5 5.5q-11 0 -13.5 -8.5t-2.5 -32.5h-69q0 47 4 71.5t18 38t45 13.5q29 0 76 -17q4 -1 19.5 -6.5t26.5 -5.5q10 0 12.5 8.5t2.5 32.5h69q0 -48 -3.5 -72.5z" />
    <glyph glyph-name="uni1EB6" unicode="&#x1eb6;" horiz-adv-x="422" 
d="M292 0l-23 151h-118l-23 -151h-119l113 688h178l114 -688h-122zM213 564h-6l-44 -307h94zM150 -183v121h124v-121h-124zM321.5 816q-8.5 -28 -34.5 -44.5t-76 -16.5t-75.5 16.5t-34 44.5t-8.5 72h73q0 -25 2 -37.5t12 -20t31 -7.5q31 0 38.5 15t7.5 50h73q0 -44 -8.5 -72
z" />
    <glyph glyph-name="uni1EB7" unicode="&#x1eb7;" horiz-adv-x="370" 
d="M43 28.5q-23 36.5 -23 118.5q0 58 11 91t36.5 48t71.5 15q37 0 81 -4v28q0 47 -5 66t-21 25t-55 6q-44 0 -98 -7v90q61 13 133 13q64 0 98 -18.5t47.5 -61.5t13.5 -122v-316h-107l-4 62h-7q-8 -36 -32.5 -53t-56.5 -17q-60 0 -83 36.5zM198 99q11 5 16 21q6 26 6 72v31
h-50q-25 0 -33.5 -13t-8.5 -54q0 -36 7.5 -49t33.5 -13q18 0 29 5zM123 -183v121h124v-121h-124zM294.5 671q-8.5 -28 -34.5 -44.5t-76 -16.5t-75.5 16.5t-34 44.5t-8.5 72h73q0 -25 2 -37.5t12 -20t31 -7.5q31 0 38.5 15t7.5 50h73q0 -44 -8.5 -72z" />
    <glyph glyph-name="uni1EB8" unicode="&#x1eb8;" horiz-adv-x="345" 
d="M43 0v688h274v-109h-153v-177h134v-109h-134v-184h153v-109h-274zM118 -183v121h124v-121h-124z" />
    <glyph glyph-name="uni1EB9" unicode="&#x1eb9;" horiz-adv-x="370" 
d="M341 221h-199q0 -64 4.5 -89.5t20 -34.5t54.5 -9q35 0 110 7v-89q-23 -6 -61 -10t-74 -4q-77 0 -112.5 26t-45 78.5t-9.5 157.5t9.5 157.5t44 79.5t108.5 27q72 0 103.5 -25t39 -75.5t7.5 -162.5v-34zM158.5 414.5q-9.5 -7.5 -13 -32.5t-3.5 -83h93v5q0 56 -3 79.5
t-12 31t-30 7.5q-22 0 -31.5 -7.5zM123 -183v121h124v-121h-124z" />
    <glyph glyph-name="uni1EBA" unicode="&#x1eba;" horiz-adv-x="345" 
d="M43 0v688h274v-109h-153v-177h134v-109h-134v-184h153v-109h-274zM116 755q0 21 7.5 31.5t26.5 16.5l10 3q28 10 37 16t9 19q0 12 -8 15.5t-34 3.5q-28 0 -94 -2v65q68 12 107 12q57 0 85 -15.5t28 -60.5q0 -35 -8 -51.5t-38 -29.5l-11 -5q-23 -9 -31 -13.5t-10 -9.5
t-2 -17h-74v22z" />
    <glyph glyph-name="uni1EBB" unicode="&#x1ebb;" horiz-adv-x="370" 
d="M341 221h-199q0 -64 4.5 -89.5t20 -34.5t54.5 -9q35 0 110 7v-89q-23 -6 -61 -10t-74 -4q-77 0 -112.5 26t-45 78.5t-9.5 157.5t9.5 157.5t44 79.5t108.5 27q72 0 103.5 -25t39 -75.5t7.5 -162.5v-34zM158.5 414.5q-9.5 -7.5 -13 -32.5t-3.5 -83h93v5q0 56 -3 79.5
t-12 31t-30 7.5q-22 0 -31.5 -7.5zM121 637q0 20 7.5 31t26.5 17l10 3q28 9 37 15t9 19q0 12 -8 15.5t-34 3.5q-28 0 -94 -2v65q68 12 107 12q57 0 85 -15.5t28 -60.5q0 -35 -8 -51.5t-38 -29.5l-11 -5q-18 -7 -28.5 -12.5t-12.5 -10t-2 -17.5h-74v23z" />
    <glyph glyph-name="uni1EBC" unicode="&#x1ebc;" horiz-adv-x="345" 
d="M43 0v688h274v-109h-153v-177h134v-109h-134v-184h153v-109h-274zM312.5 815.5q-3.5 -24.5 -18 -38t-44.5 -13.5q-27 0 -76 17q-7 2 -21.5 7.5t-24.5 5.5q-11 0 -13.5 -8.5t-2.5 -32.5h-69q0 47 4 71.5t18 38t45 13.5q29 0 76 -17q4 -1 19.5 -6.5t26.5 -5.5
q10 0 12.5 8.5t2.5 32.5h69q0 -48 -3.5 -72.5z" />
    <glyph glyph-name="uni1EBD" unicode="&#x1ebd;" horiz-adv-x="370" 
d="M341 221h-199q0 -64 4.5 -89.5t20 -34.5t54.5 -9q35 0 110 7v-89q-23 -6 -61 -10t-74 -4q-77 0 -112.5 26t-45 78.5t-9.5 157.5t9.5 157.5t44 79.5t108.5 27q72 0 103.5 -25t39 -75.5t7.5 -162.5v-34zM158.5 414.5q-9.5 -7.5 -13 -32.5t-3.5 -83h93v5q0 56 -3 79.5
t-12 31t-30 7.5q-22 0 -31.5 -7.5zM317.5 670.5q-3.5 -24.5 -18 -38t-44.5 -13.5q-27 0 -76 17q-7 2 -21.5 7.5t-24.5 5.5q-11 0 -13.5 -8.5t-2.5 -32.5h-69q0 47 4 71.5t18 38t45 13.5q29 0 76 -17q4 -1 19.5 -6.5t26.5 -5.5q10 0 12.5 8.5t2.5 32.5h69q0 -48 -3.5 -72.5z
" />
    <glyph glyph-name="uni1EBE" unicode="&#x1ebe;" horiz-adv-x="345" 
d="M43 0v688h274v-109h-153v-177h134v-109h-134v-184h153v-109h-274zM56 729v7l67 120h115l68 -120v-7h-79l-47 71l-45 -71h-79zM212 875v5l36 140h111v-5l-55 -140h-92z" />
    <glyph glyph-name="uni1EBF" unicode="&#x1ebf;" horiz-adv-x="370" 
d="M341 221h-199q0 -64 4.5 -89.5t20 -34.5t54.5 -9q35 0 110 7v-89q-23 -6 -61 -10t-74 -4q-77 0 -112.5 26t-45 78.5t-9.5 157.5t9.5 157.5t44 79.5t108.5 27q72 0 103.5 -25t39 -75.5t7.5 -162.5v-34zM158.5 414.5q-9.5 -7.5 -13 -32.5t-3.5 -83h93v5q0 56 -3 79.5
t-12 31t-30 7.5q-22 0 -31.5 -7.5zM61 616v7l67 120h115l68 -120v-7h-79l-47 71l-45 -71h-79zM217 761v5l36 140h111v-5l-55 -140h-92z" />
    <glyph glyph-name="uni1EC0" unicode="&#x1ec0;" horiz-adv-x="345" 
d="M43 0v688h274v-109h-153v-177h134v-109h-134v-184h153v-109h-274zM47 729v7l67 120h115l68 -120v-7h-79l-47 71l-45 -71h-79zM219 874l-55 140v5h111l36 -140v-5h-92z" />
    <glyph glyph-name="uni1EC1" unicode="&#x1ec1;" horiz-adv-x="370" 
d="M341 221h-199q0 -64 4.5 -89.5t20 -34.5t54.5 -9q35 0 110 7v-89q-23 -6 -61 -10t-74 -4q-77 0 -112.5 26t-45 78.5t-9.5 157.5t9.5 157.5t44 79.5t108.5 27q72 0 103.5 -25t39 -75.5t7.5 -162.5v-34zM158.5 414.5q-9.5 -7.5 -13 -32.5t-3.5 -83h93v5q0 56 -3 79.5
t-12 31t-30 7.5q-22 0 -31.5 -7.5zM52 616v7l67 120h115l68 -120v-7h-79l-47 71l-45 -71h-79zM224 761l-55 140v5h111l36 -140v-5h-92z" />
    <glyph glyph-name="uni1EC2" unicode="&#x1ec2;" horiz-adv-x="345" 
d="M43 0v688h274v-109h-153v-177h134v-109h-134v-184h153v-109h-274zM55 729v7l67 120h115l68 -120v-7h-79l-47 71l-45 -71h-79zM230 895q0 20 7.5 31t26.5 17l10 3q28 9 37 15t9 19q0 12 -8 15.5t-34 3.5q-28 0 -94 -2v65q68 12 107 12q57 0 85 -15.5t28 -60.5
q0 -35 -8 -51.5t-38 -29.5l-11 -5q-18 -7 -28.5 -12.5t-12.5 -10t-2 -17.5h-74v23z" />
    <glyph glyph-name="uni1EC3" unicode="&#x1ec3;" horiz-adv-x="370" 
d="M341 221h-199q0 -64 4.5 -89.5t20 -34.5t54.5 -9q35 0 110 7v-89q-23 -6 -61 -10t-74 -4q-77 0 -112.5 26t-45 78.5t-9.5 157.5t9.5 157.5t44 79.5t108.5 27q72 0 103.5 -25t39 -75.5t7.5 -162.5v-34zM158.5 414.5q-9.5 -7.5 -13 -32.5t-3.5 -83h93v5q0 56 -3 79.5
t-12 31t-30 7.5q-22 0 -31.5 -7.5zM60 616v7l67 120h115l68 -120v-7h-79l-47 71l-45 -71h-79zM235 781q0 20 7.5 31t26.5 17l10 3q28 9 37 15t9 19q0 12 -8 15.5t-34 3.5q-28 0 -94 -2v65q68 12 107 12q57 0 85 -15.5t28 -60.5q0 -35 -8 -51.5t-38 -29.5l-11 -5
q-18 -7 -28.5 -12.5t-12.5 -10t-2 -17.5h-74v23z" />
    <glyph glyph-name="uni1EC4" unicode="&#x1ec4;" horiz-adv-x="345" 
d="M43 0v688h274v-109h-153v-177h134v-109h-134v-184h153v-109h-274zM53 729v7l67 120h115l68 -120v-7h-79l-47 71l-45 -71h-79zM312.5 956.5q-3.5 -24.5 -18 -38t-44.5 -13.5q-27 0 -76 17q-7 2 -21.5 7.5t-24.5 5.5q-11 0 -13.5 -8.5t-2.5 -32.5h-69q0 47 4 71.5t18 38
t45 13.5q29 0 76 -17q4 -1 19.5 -6.5t26.5 -5.5q10 0 12.5 8.5t2.5 32.5h69q0 -48 -3.5 -72.5z" />
    <glyph glyph-name="uni1EC5" unicode="&#x1ec5;" horiz-adv-x="370" 
d="M341 221h-199q0 -64 4.5 -89.5t20 -34.5t54.5 -9q35 0 110 7v-89q-23 -6 -61 -10t-74 -4q-77 0 -112.5 26t-45 78.5t-9.5 157.5t9.5 157.5t44 79.5t108.5 27q72 0 103.5 -25t39 -75.5t7.5 -162.5v-34zM158.5 414.5q-9.5 -7.5 -13 -32.5t-3.5 -83h93v5q0 56 -3 79.5
t-12 31t-30 7.5q-22 0 -31.5 -7.5zM58 616v7l67 120h115l68 -120v-7h-79l-47 71l-45 -71h-79zM317.5 843.5q-3.5 -24.5 -18 -38t-44.5 -13.5q-27 0 -76 17q-7 2 -21.5 7.5t-24.5 5.5q-11 0 -13.5 -8.5t-2.5 -32.5h-69q0 47 4 71.5t18 38t45 13.5q29 0 76 -17q4 -1 19.5 -6.5
t26.5 -5.5q10 0 12.5 8.5t2.5 32.5h69q0 -48 -3.5 -72.5z" />
    <glyph glyph-name="uni1EC6" unicode="&#x1ec6;" horiz-adv-x="345" 
d="M43 0v688h274v-109h-153v-177h134v-109h-134v-184h153v-109h-274zM118 -183v121h124v-121h-124zM55 761v7l67 120h115l68 -120v-7h-79l-47 71l-45 -71h-79z" />
    <glyph glyph-name="uni1EC7" unicode="&#x1ec7;" horiz-adv-x="370" 
d="M341 221h-199q0 -64 4.5 -89.5t20 -34.5t54.5 -9q35 0 110 7v-89q-23 -6 -61 -10t-74 -4q-77 0 -112.5 26t-45 78.5t-9.5 157.5t9.5 157.5t44 79.5t108.5 27q72 0 103.5 -25t39 -75.5t7.5 -162.5v-34zM158.5 414.5q-9.5 -7.5 -13 -32.5t-3.5 -83h93v5q0 56 -3 79.5
t-12 31t-30 7.5q-22 0 -31.5 -7.5zM123 -183v121h124v-121h-124zM60 616v7l67 120h115l68 -120v-7h-79l-47 71l-45 -71h-79z" />
    <glyph glyph-name="uni1EC8" unicode="&#x1ec8;" horiz-adv-x="210" 
d="M45 0v688h120v-688h-120zM41 755q0 21 7.5 31.5t26.5 16.5l10 3q28 10 37 16t9 19q0 12 -8 15.5t-34 3.5q-28 0 -94 -2v65q68 12 107 12q57 0 85 -15.5t28 -60.5q0 -35 -8 -51.5t-38 -29.5l-11 -5q-23 -9 -31 -13.5t-10 -9.5t-2 -17h-74v22z" />
    <glyph glyph-name="uni1EC9" unicode="&#x1ec9;" horiz-adv-x="191" 
d="M39 0v510h113v-510h-113zM32 637q0 20 7.5 31t26.5 17l10 3q28 9 37 15t9 19q0 12 -8 15.5t-34 3.5q-28 0 -94 -2v65q68 12 107 12q57 0 85 -15.5t28 -60.5q0 -35 -8 -51.5t-38 -29.5l-11 -5q-18 -7 -28.5 -12.5t-12.5 -10t-2 -17.5h-74v23z" />
    <glyph glyph-name="uni1ECA" unicode="&#x1eca;" horiz-adv-x="210" 
d="M45 0v688h120v-688h-120zM43 -183v121h124v-121h-124z" />
    <glyph glyph-name="uni1ECB" unicode="&#x1ecb;" horiz-adv-x="191" 
d="M38 630v113h115v-113h-115zM39 0v510h113v-510h-113zM47 -183v121h124v-121h-124z" />
    <glyph glyph-name="uni1ECC" unicode="&#x1ecc;" horiz-adv-x="423" 
d="M87.5 22q-36.5 30 -46 97.5t-9.5 224.5t9.5 224.5t46 97.5t123.5 30t124 -30t46.5 -97.5t9.5 -224.5t-9.5 -224.5t-46.5 -97.5t-124 -30t-123.5 30zM252 113q11 12 14.5 59t3.5 172t-3.5 172t-14.5 59t-41 12t-40.5 -12t-14.5 -59.5t-4 -171.5t4 -171.5t14.5 -59.5
t40.5 -12t41 12zM149 -183v121h124v-121h-124z" />
    <glyph glyph-name="uni1ECD" unicode="&#x1ecd;" horiz-adv-x="381" 
d="M82.5 13.5q-33.5 21.5 -43.5 74t-10 167.5q0 114 10 166.5t43.5 74.5t107.5 22q75 0 108.5 -22t43.5 -74t10 -167t-10 -167.5t-43.5 -74t-108.5 -21.5q-74 0 -107.5 21.5zM224.5 98q9.5 10 12 41.5t2.5 115.5t-2.5 115.5t-12 41.5t-34.5 10q-24 0 -33.5 -10t-12 -41.5
t-2.5 -115.5t2.5 -115.5t12 -41.5t33.5 -10q25 0 34.5 10zM128 -183v121h124v-121h-124z" />
    <glyph glyph-name="uni1ECE" unicode="&#x1ece;" horiz-adv-x="423" 
d="M87.5 22q-36.5 30 -46 97.5t-9.5 224.5t9.5 224.5t46 97.5t123.5 30t124 -30t46.5 -97.5t9.5 -224.5t-9.5 -224.5t-46.5 -97.5t-124 -30t-123.5 30zM252 113q11 12 14.5 59t3.5 172t-3.5 172t-14.5 59t-41 12t-40.5 -12t-14.5 -59.5t-4 -171.5t4 -171.5t14.5 -59.5
t40.5 -12t41 12zM147 755q0 21 7.5 31.5t26.5 16.5l10 3q28 10 37 16t9 19q0 12 -8 15.5t-34 3.5q-28 0 -94 -2v65q68 12 107 12q57 0 85 -15.5t28 -60.5q0 -35 -8 -51.5t-38 -29.5l-11 -5q-23 -9 -31 -13.5t-10 -9.5t-2 -17h-74v22z" />
    <glyph glyph-name="uni1ECF" unicode="&#x1ecf;" horiz-adv-x="381" 
d="M82.5 13.5q-33.5 21.5 -43.5 74t-10 167.5q0 114 10 166.5t43.5 74.5t107.5 22q75 0 108.5 -22t43.5 -74t10 -167t-10 -167.5t-43.5 -74t-108.5 -21.5q-74 0 -107.5 21.5zM224.5 98q9.5 10 12 41.5t2.5 115.5t-2.5 115.5t-12 41.5t-34.5 10q-24 0 -33.5 -10t-12 -41.5
t-2.5 -115.5t2.5 -115.5t12 -41.5t33.5 -10q25 0 34.5 10zM126 637q0 20 7.5 31t26.5 17l10 3q28 9 37 15t9 19q0 12 -8 15.5t-34 3.5q-28 0 -94 -2v65q68 12 107 12q57 0 85 -15.5t28 -60.5q0 -35 -8 -51.5t-38 -29.5l-11 -5q-18 -7 -28.5 -12.5t-12.5 -10t-2 -17.5h-74v23
z" />
    <glyph glyph-name="uni1ED0" unicode="&#x1ed0;" horiz-adv-x="423" 
d="M87.5 22q-36.5 30 -46 97.5t-9.5 224.5t9.5 224.5t46 97.5t123.5 30t124 -30t46.5 -97.5t9.5 -224.5t-9.5 -224.5t-46.5 -97.5t-124 -30t-123.5 30zM252 113q11 12 14.5 59t3.5 172t-3.5 172t-14.5 59t-41 12t-40.5 -12t-14.5 -59.5t-4 -171.5t4 -171.5t14.5 -59.5
t40.5 -12t41 12zM87 729v7l67 120h115l68 -120v-7h-79l-47 71l-45 -71h-79zM243 875v5l36 140h111v-5l-55 -140h-92z" />
    <glyph glyph-name="uni1ED1" unicode="&#x1ed1;" horiz-adv-x="381" 
d="M82.5 13.5q-33.5 21.5 -43.5 74t-10 167.5q0 114 10 166.5t43.5 74.5t107.5 22q75 0 108.5 -22t43.5 -74t10 -167t-10 -167.5t-43.5 -74t-108.5 -21.5q-74 0 -107.5 21.5zM224.5 98q9.5 10 12 41.5t2.5 115.5t-2.5 115.5t-12 41.5t-34.5 10q-24 0 -33.5 -10t-12 -41.5
t-2.5 -115.5t2.5 -115.5t12 -41.5t33.5 -10q25 0 34.5 10zM66 616v7l67 120h115l68 -120v-7h-79l-47 71l-45 -71h-79zM222 761v5l36 140h111v-5l-55 -140h-92z" />
    <glyph glyph-name="uni1ED2" unicode="&#x1ed2;" horiz-adv-x="423" 
d="M87.5 22q-36.5 30 -46 97.5t-9.5 224.5t9.5 224.5t46 97.5t123.5 30t124 -30t46.5 -97.5t9.5 -224.5t-9.5 -224.5t-46.5 -97.5t-124 -30t-123.5 30zM252 113q11 12 14.5 59t3.5 172t-3.5 172t-14.5 59t-41 12t-40.5 -12t-14.5 -59.5t-4 -171.5t4 -171.5t14.5 -59.5
t40.5 -12t41 12zM78 729v7l67 120h115l68 -120v-7h-79l-47 71l-45 -71h-79zM250 874l-55 140v5h111l36 -140v-5h-92z" />
    <glyph glyph-name="uni1ED3" unicode="&#x1ed3;" horiz-adv-x="381" 
d="M82.5 13.5q-33.5 21.5 -43.5 74t-10 167.5q0 114 10 166.5t43.5 74.5t107.5 22q75 0 108.5 -22t43.5 -74t10 -167t-10 -167.5t-43.5 -74t-108.5 -21.5q-74 0 -107.5 21.5zM224.5 98q9.5 10 12 41.5t2.5 115.5t-2.5 115.5t-12 41.5t-34.5 10q-24 0 -33.5 -10t-12 -41.5
t-2.5 -115.5t2.5 -115.5t12 -41.5t33.5 -10q25 0 34.5 10zM57 616v7l67 120h115l68 -120v-7h-79l-47 71l-45 -71h-79zM229 761l-55 140v5h111l36 -140v-5h-92z" />
    <glyph glyph-name="uni1ED4" unicode="&#x1ed4;" horiz-adv-x="423" 
d="M87.5 22q-36.5 30 -46 97.5t-9.5 224.5t9.5 224.5t46 97.5t123.5 30t124 -30t46.5 -97.5t9.5 -224.5t-9.5 -224.5t-46.5 -97.5t-124 -30t-123.5 30zM252 113q11 12 14.5 59t3.5 172t-3.5 172t-14.5 59t-41 12t-40.5 -12t-14.5 -59.5t-4 -171.5t4 -171.5t14.5 -59.5
t40.5 -12t41 12zM86 729v7l67 120h115l68 -120v-7h-79l-47 71l-45 -71h-79zM261 895q0 20 7.5 31t26.5 17l10 3q28 9 37 15t9 19q0 12 -8 15.5t-34 3.5q-28 0 -94 -2v65q68 12 107 12q57 0 85 -15.5t28 -60.5q0 -35 -8 -51.5t-38 -29.5l-11 -5q-18 -7 -28.5 -12.5t-12.5 -10
t-2 -17.5h-74v23z" />
    <glyph glyph-name="uni1ED5" unicode="&#x1ed5;" horiz-adv-x="381" 
d="M82.5 13.5q-33.5 21.5 -43.5 74t-10 167.5q0 114 10 166.5t43.5 74.5t107.5 22q75 0 108.5 -22t43.5 -74t10 -167t-10 -167.5t-43.5 -74t-108.5 -21.5q-74 0 -107.5 21.5zM224.5 98q9.5 10 12 41.5t2.5 115.5t-2.5 115.5t-12 41.5t-34.5 10q-24 0 -33.5 -10t-12 -41.5
t-2.5 -115.5t2.5 -115.5t12 -41.5t33.5 -10q25 0 34.5 10zM65 616v7l67 120h115l68 -120v-7h-79l-47 71l-45 -71h-79zM240 781q0 20 7.5 31t26.5 17l10 3q28 9 37 15t9 19q0 12 -8 15.5t-34 3.5q-28 0 -94 -2v65q68 12 107 12q57 0 85 -15.5t28 -60.5q0 -35 -8 -51.5
t-38 -29.5l-11 -5q-18 -7 -28.5 -12.5t-12.5 -10t-2 -17.5h-74v23z" />
    <glyph glyph-name="uni1ED6" unicode="&#x1ed6;" horiz-adv-x="423" 
d="M87.5 22q-36.5 30 -46 97.5t-9.5 224.5t9.5 224.5t46 97.5t123.5 30t124 -30t46.5 -97.5t9.5 -224.5t-9.5 -224.5t-46.5 -97.5t-124 -30t-123.5 30zM252 113q11 12 14.5 59t3.5 172t-3.5 172t-14.5 59t-41 12t-40.5 -12t-14.5 -59.5t-4 -171.5t4 -171.5t14.5 -59.5
t40.5 -12t41 12zM84 729v7l67 120h115l68 -120v-7h-79l-47 71l-45 -71h-79zM343.5 956.5q-3.5 -24.5 -18 -38t-44.5 -13.5q-27 0 -76 17q-7 2 -21.5 7.5t-24.5 5.5q-11 0 -13.5 -8.5t-2.5 -32.5h-69q0 47 4 71.5t18 38t45 13.5q29 0 76 -17q4 -1 19.5 -6.5t26.5 -5.5
q10 0 12.5 8.5t2.5 32.5h69q0 -48 -3.5 -72.5z" />
    <glyph glyph-name="uni1ED7" unicode="&#x1ed7;" horiz-adv-x="381" 
d="M82.5 13.5q-33.5 21.5 -43.5 74t-10 167.5q0 114 10 166.5t43.5 74.5t107.5 22q75 0 108.5 -22t43.5 -74t10 -167t-10 -167.5t-43.5 -74t-108.5 -21.5q-74 0 -107.5 21.5zM224.5 98q9.5 10 12 41.5t2.5 115.5t-2.5 115.5t-12 41.5t-34.5 10q-24 0 -33.5 -10t-12 -41.5
t-2.5 -115.5t2.5 -115.5t12 -41.5t33.5 -10q25 0 34.5 10zM63 616v7l67 120h115l68 -120v-7h-79l-47 71l-45 -71h-79zM322.5 843.5q-3.5 -24.5 -18 -38t-44.5 -13.5q-27 0 -76 17q-7 2 -21.5 7.5t-24.5 5.5q-11 0 -13.5 -8.5t-2.5 -32.5h-69q0 47 4 71.5t18 38t45 13.5
q29 0 76 -17q4 -1 19.5 -6.5t26.5 -5.5q10 0 12.5 8.5t2.5 32.5h69q0 -48 -3.5 -72.5z" />
    <glyph glyph-name="uni1ED8" unicode="&#x1ed8;" horiz-adv-x="423" 
d="M87.5 22q-36.5 30 -46 97.5t-9.5 224.5t9.5 224.5t46 97.5t123.5 30t124 -30t46.5 -97.5t9.5 -224.5t-9.5 -224.5t-46.5 -97.5t-124 -30t-123.5 30zM252 113q11 12 14.5 59t3.5 172t-3.5 172t-14.5 59t-41 12t-40.5 -12t-14.5 -59.5t-4 -171.5t4 -171.5t14.5 -59.5
t40.5 -12t41 12zM149 -183v121h124v-121h-124zM86 761v7l67 120h115l68 -120v-7h-79l-47 71l-45 -71h-79z" />
    <glyph glyph-name="uni1ED9" unicode="&#x1ed9;" horiz-adv-x="381" 
d="M82.5 13.5q-33.5 21.5 -43.5 74t-10 167.5q0 114 10 166.5t43.5 74.5t107.5 22q75 0 108.5 -22t43.5 -74t10 -167t-10 -167.5t-43.5 -74t-108.5 -21.5q-74 0 -107.5 21.5zM224.5 98q9.5 10 12 41.5t2.5 115.5t-2.5 115.5t-12 41.5t-34.5 10q-24 0 -33.5 -10t-12 -41.5
t-2.5 -115.5t2.5 -115.5t12 -41.5t33.5 -10q25 0 34.5 10zM128 -183v121h124v-121h-124zM65 616v7l67 120h115l68 -120v-7h-79l-47 71l-45 -71h-79z" />
    <glyph glyph-name="uni1EDA" unicode="&#x1eda;" horiz-adv-x="423" 
d="M431 779v-21q0 -42 -5 -65.5t-20 -37t-46 -18.5q21 -35 26 -98t5 -195q0 -157 -9.5 -224.5t-46.5 -97.5t-124 -30t-123.5 30t-46 97.5t-9.5 224.5t9.5 224.5t46 97.5t123.5 30q50 0 78 -8h18q30 0 40 12t10 43v36h74zM252 113q11 12 14.5 59t3.5 172t-3.5 172t-14.5 59
t-41 12t-40.5 -12t-14.5 -59.5t-4 -171.5t4 -171.5t14.5 -59.5t40.5 -12t41 12zM168 743v5l36 140h111v-5l-55 -140h-92z" />
    <glyph glyph-name="uni1EDB" unicode="&#x1edb;" horiz-adv-x="381" 
d="M396 601v-21q0 -61 -13 -86.5t-54 -33.5q14 -28 18.5 -74.5t4.5 -130.5q0 -115 -10 -167.5t-43.5 -74t-108.5 -21.5q-74 0 -107.5 21.5t-43.5 74t-10 167.5q0 114 10 166.5t43.5 74.5t107.5 22q49 0 77 -8h5q30 0 40 12t10 43v36h74zM224.5 98q9.5 10 12 41.5t2.5 115.5
t-2.5 115.5t-12 41.5t-34.5 10q-24 0 -33.5 -10t-12 -41.5t-2.5 -115.5t2.5 -115.5t12 -41.5t33.5 -10q25 0 34.5 10zM141 598v5l36 140h111v-5l-55 -140h-92z" />
    <glyph glyph-name="uni1EDC" unicode="&#x1edc;" horiz-adv-x="423" 
d="M431 779v-21q0 -42 -5 -65.5t-20 -37t-46 -18.5q21 -35 26 -98t5 -195q0 -157 -9.5 -224.5t-46.5 -97.5t-124 -30t-123.5 30t-46 97.5t-9.5 224.5t9.5 224.5t46 97.5t123.5 30q50 0 78 -8h18q30 0 40 12t10 43v36h74zM252 113q11 12 14.5 59t3.5 172t-3.5 172t-14.5 59
t-41 12t-40.5 -12t-14.5 -59.5t-4 -171.5t4 -171.5t14.5 -59.5t40.5 -12t41 12zM166 743l-55 140v5h111l36 -140v-5h-92z" />
    <glyph glyph-name="uni1EDD" unicode="&#x1edd;" horiz-adv-x="381" 
d="M396 601v-21q0 -61 -13 -86.5t-54 -33.5q14 -28 18.5 -74.5t4.5 -130.5q0 -115 -10 -167.5t-43.5 -74t-108.5 -21.5q-74 0 -107.5 21.5t-43.5 74t-10 167.5q0 114 10 166.5t43.5 74.5t107.5 22q49 0 77 -8h5q30 0 40 12t10 43v36h74zM224.5 98q9.5 10 12 41.5t2.5 115.5
t-2.5 115.5t-12 41.5t-34.5 10q-24 0 -33.5 -10t-12 -41.5t-2.5 -115.5t2.5 -115.5t12 -41.5t33.5 -10q25 0 34.5 10zM142 598l-55 140v5h111l36 -140v-5h-92z" />
    <glyph glyph-name="uni1EDE" unicode="&#x1ede;" horiz-adv-x="423" 
d="M431 779v-21q0 -42 -5 -65.5t-20 -37t-46 -18.5q21 -35 26 -98t5 -195q0 -157 -9.5 -224.5t-46.5 -97.5t-124 -30t-123.5 30t-46 97.5t-9.5 224.5t9.5 224.5t46 97.5t123.5 30q50 0 78 -8h18q30 0 40 12t10 43v36h74zM252 113q11 12 14.5 59t3.5 172t-3.5 172t-14.5 59
t-41 12t-40.5 -12t-14.5 -59.5t-4 -171.5t4 -171.5t14.5 -59.5t40.5 -12t41 12zM147 755q0 21 7.5 31.5t26.5 16.5l10 3q28 10 37 16t9 19q0 12 -8 15.5t-34 3.5q-28 0 -94 -2v65q68 12 107 12q57 0 85 -15.5t28 -60.5q0 -35 -8 -51.5t-38 -29.5l-11 -5q-23 -9 -31 -13.5
t-10 -9.5t-2 -17h-74v22z" />
    <glyph glyph-name="uni1EDF" unicode="&#x1edf;" horiz-adv-x="381" 
d="M396 601v-21q0 -61 -13 -86.5t-54 -33.5q14 -28 18.5 -74.5t4.5 -130.5q0 -115 -10 -167.5t-43.5 -74t-108.5 -21.5q-74 0 -107.5 21.5t-43.5 74t-10 167.5q0 114 10 166.5t43.5 74.5t107.5 22q49 0 77 -8h5q30 0 40 12t10 43v36h74zM224.5 98q9.5 10 12 41.5t2.5 115.5
t-2.5 115.5t-12 41.5t-34.5 10q-24 0 -33.5 -10t-12 -41.5t-2.5 -115.5t2.5 -115.5t12 -41.5t33.5 -10q25 0 34.5 10zM126 637q0 20 7.5 31t26.5 17l10 3q28 9 37 15t9 19q0 12 -8 15.5t-34 3.5q-28 0 -94 -2v65q68 12 107 12q57 0 85 -15.5t28 -60.5q0 -35 -8 -51.5
t-38 -29.5l-11 -5q-18 -7 -28.5 -12.5t-12.5 -10t-2 -17.5h-74v23z" />
    <glyph glyph-name="uni1EE0" unicode="&#x1ee0;" horiz-adv-x="423" 
d="M431 779v-21q0 -42 -5 -65.5t-20 -37t-46 -18.5q21 -35 26 -98t5 -195q0 -157 -9.5 -224.5t-46.5 -97.5t-124 -30t-123.5 30t-46 97.5t-9.5 224.5t9.5 224.5t46 97.5t123.5 30q50 0 78 -8h18q30 0 40 12t10 43v36h74zM252 113q11 12 14.5 59t3.5 172t-3.5 172t-14.5 59
t-41 12t-40.5 -12t-14.5 -59.5t-4 -171.5t4 -171.5t14.5 -59.5t40.5 -12t41 12zM343.5 815.5q-3.5 -24.5 -18 -38t-44.5 -13.5q-27 0 -76 17q-7 2 -21.5 7.5t-24.5 5.5q-11 0 -13.5 -8.5t-2.5 -32.5h-69q0 47 4 71.5t18 38t45 13.5q29 0 76 -17q4 -1 19.5 -6.5t26.5 -5.5
q10 0 12.5 8.5t2.5 32.5h69q0 -48 -3.5 -72.5z" />
    <glyph glyph-name="uni1EE1" unicode="&#x1ee1;" horiz-adv-x="381" 
d="M396 601v-21q0 -61 -13 -86.5t-54 -33.5q14 -28 18.5 -74.5t4.5 -130.5q0 -115 -10 -167.5t-43.5 -74t-108.5 -21.5q-74 0 -107.5 21.5t-43.5 74t-10 167.5q0 114 10 166.5t43.5 74.5t107.5 22q49 0 77 -8h5q30 0 40 12t10 43v36h74zM224.5 98q9.5 10 12 41.5t2.5 115.5
t-2.5 115.5t-12 41.5t-34.5 10q-24 0 -33.5 -10t-12 -41.5t-2.5 -115.5t2.5 -115.5t12 -41.5t33.5 -10q25 0 34.5 10zM322.5 670.5q-3.5 -24.5 -18 -38t-44.5 -13.5q-27 0 -76 17q-7 2 -21.5 7.5t-24.5 5.5q-11 0 -13.5 -8.5t-2.5 -32.5h-69q0 47 4 71.5t18 38t45 13.5
q29 0 76 -17q4 -1 19.5 -6.5t26.5 -5.5q10 0 12.5 8.5t2.5 32.5h69q0 -48 -3.5 -72.5z" />
    <glyph glyph-name="uni1EE2" unicode="&#x1ee2;" horiz-adv-x="423" 
d="M431 779v-21q0 -42 -5 -65.5t-20 -37t-46 -18.5q21 -35 26 -98t5 -195q0 -157 -9.5 -224.5t-46.5 -97.5t-124 -30t-123.5 30t-46 97.5t-9.5 224.5t9.5 224.5t46 97.5t123.5 30q50 0 78 -8h18q30 0 40 12t10 43v36h74zM252 113q11 12 14.5 59t3.5 172t-3.5 172t-14.5 59
t-41 12t-40.5 -12t-14.5 -59.5t-4 -171.5t4 -171.5t14.5 -59.5t40.5 -12t41 12zM149 -183v121h124v-121h-124z" />
    <glyph glyph-name="uni1EE3" unicode="&#x1ee3;" horiz-adv-x="381" 
d="M396 601v-21q0 -61 -13 -86.5t-54 -33.5q14 -28 18.5 -74.5t4.5 -130.5q0 -115 -10 -167.5t-43.5 -74t-108.5 -21.5q-74 0 -107.5 21.5t-43.5 74t-10 167.5q0 114 10 166.5t43.5 74.5t107.5 22q49 0 77 -8h5q30 0 40 12t10 43v36h74zM224.5 98q9.5 10 12 41.5t2.5 115.5
t-2.5 115.5t-12 41.5t-34.5 10q-24 0 -33.5 -10t-12 -41.5t-2.5 -115.5t2.5 -115.5t12 -41.5t33.5 -10q25 0 34.5 10zM128 -183v121h124v-121h-124z" />
    <glyph glyph-name="uni1EE4" unicode="&#x1ee4;" horiz-adv-x="426" 
d="M387 688v-385q0 -137 -9 -196.5t-45 -87t-120 -27.5t-120 27.5t-45 87t-9 196.5v385h120v-432q0 -77 3 -106.5t13.5 -39t37.5 -9.5t37.5 9.5t13.5 38.5t3 107v432h120zM151 -183v121h124v-121h-124z" />
    <glyph glyph-name="uni1EE5" unicode="&#x1ee5;" horiz-adv-x="392" 
d="M242 62h-7q-20 -70 -98 -70q-43 0 -64.5 17.5t-29 55t-7.5 106.5v339h113v-285q0 -64 3 -90t11.5 -33.5t30.5 -7.5q23 0 32.5 13t11.5 42.5t2 104.5v256h113v-510h-107zM131 -183v121h124v-121h-124z" />
    <glyph glyph-name="uni1EE6" unicode="&#x1ee6;" horiz-adv-x="426" 
d="M387 688v-385q0 -137 -9 -196.5t-45 -87t-120 -27.5t-120 27.5t-45 87t-9 196.5v385h120v-432q0 -77 3 -106.5t13.5 -39t37.5 -9.5t37.5 9.5t13.5 38.5t3 107v432h120zM149 755q0 21 7.5 31.5t26.5 16.5l10 3q28 10 37 16t9 19q0 12 -8 15.5t-34 3.5q-28 0 -94 -2v65
q68 12 107 12q57 0 85 -15.5t28 -60.5q0 -35 -8 -51.5t-38 -29.5l-11 -5q-23 -9 -31 -13.5t-10 -9.5t-2 -17h-74v22z" />
    <glyph glyph-name="uni1EE7" unicode="&#x1ee7;" horiz-adv-x="392" 
d="M242 62h-7q-20 -70 -98 -70q-43 0 -64.5 17.5t-29 55t-7.5 106.5v339h113v-285q0 -64 3 -90t11.5 -33.5t30.5 -7.5q23 0 32.5 13t11.5 42.5t2 104.5v256h113v-510h-107zM132 637q0 20 7.5 31t26.5 17l10 3q28 9 37 15t9 19q0 12 -8 15.5t-34 3.5q-28 0 -94 -2v65
q68 12 107 12q57 0 85 -15.5t28 -60.5q0 -35 -8 -51.5t-38 -29.5l-11 -5q-18 -7 -28.5 -12.5t-12.5 -10t-2 -17.5h-74v23z" />
    <glyph glyph-name="uni1EE8" unicode="&#x1ee8;" horiz-adv-x="426" 
d="M447 779v-21q0 -59 -11.5 -84.5t-48.5 -34.5v-336q0 -137 -9 -196.5t-45 -87t-120 -27.5t-120 27.5t-45 87t-9 196.5v385h120v-432q0 -77 3 -106.5t13.5 -39t37.5 -9.5t37.5 9.5t13.5 38.5t3 107v432h56q30 0 40 12t10 43v36h74zM170 743v5l36 140h111v-5l-55 -140h-92z
" />
    <glyph glyph-name="uni1EE9" unicode="&#x1ee9;" horiz-adv-x="392" 
d="M413 601v-21q0 -59 -11.5 -84.5t-48.5 -34.5v-461h-107l-4 62h-7q-20 -70 -98 -70q-43 0 -64.5 17.5t-29 55t-7.5 106.5v339h113v-285q0 -64 3 -90t11.5 -33.5t30.5 -7.5q23 0 32.5 13t11.5 42.5t2 104.5v256h49q30 0 40 12t10 43v36h74zM147 598v5l36 140h111v-5
l-55 -140h-92z" />
    <glyph glyph-name="uni1EEA" unicode="&#x1eea;" horiz-adv-x="426" 
d="M447 779v-21q0 -59 -11.5 -84.5t-48.5 -34.5v-336q0 -137 -9 -196.5t-45 -87t-120 -27.5t-120 27.5t-45 87t-9 196.5v385h120v-432q0 -77 3 -106.5t13.5 -39t37.5 -9.5t37.5 9.5t13.5 38.5t3 107v432h56q30 0 40 12t10 43v36h74zM168 743l-55 140v5h111l36 -140v-5h-92z
" />
    <glyph glyph-name="uni1EEB" unicode="&#x1eeb;" horiz-adv-x="392" 
d="M413 601v-21q0 -59 -11.5 -84.5t-48.5 -34.5v-461h-107l-4 62h-7q-20 -70 -98 -70q-43 0 -64.5 17.5t-29 55t-7.5 106.5v339h113v-285q0 -64 3 -90t11.5 -33.5t30.5 -7.5q23 0 32.5 13t11.5 42.5t2 104.5v256h49q30 0 40 12t10 43v36h74zM148 598l-55 140v5h111l36 -140
v-5h-92z" />
    <glyph glyph-name="uni1EEC" unicode="&#x1eec;" horiz-adv-x="426" 
d="M447 779v-21q0 -59 -11.5 -84.5t-48.5 -34.5v-336q0 -137 -9 -196.5t-45 -87t-120 -27.5t-120 27.5t-45 87t-9 196.5v385h120v-432q0 -77 3 -106.5t13.5 -39t37.5 -9.5t37.5 9.5t13.5 38.5t3 107v432h56q30 0 40 12t10 43v36h74zM149 755q0 21 7.5 31.5t26.5 16.5l10 3
q28 10 37 16t9 19q0 12 -8 15.5t-34 3.5q-28 0 -94 -2v65q68 12 107 12q57 0 85 -15.5t28 -60.5q0 -35 -8 -51.5t-38 -29.5l-11 -5q-23 -9 -31 -13.5t-10 -9.5t-2 -17h-74v22z" />
    <glyph glyph-name="uni1EED" unicode="&#x1eed;" horiz-adv-x="392" 
d="M413 601v-21q0 -59 -11.5 -84.5t-48.5 -34.5v-461h-107l-4 62h-7q-20 -70 -98 -70q-43 0 -64.5 17.5t-29 55t-7.5 106.5v339h113v-285q0 -64 3 -90t11.5 -33.5t30.5 -7.5q23 0 32.5 13t11.5 42.5t2 104.5v256h49q30 0 40 12t10 43v36h74zM132 637q0 20 7.5 31t26.5 17
l10 3q28 9 37 15t9 19q0 12 -8 15.5t-34 3.5q-28 0 -94 -2v65q68 12 107 12q57 0 85 -15.5t28 -60.5q0 -35 -8 -51.5t-38 -29.5l-11 -5q-18 -7 -28.5 -12.5t-12.5 -10t-2 -17.5h-74v23z" />
    <glyph glyph-name="uni1EEE" unicode="&#x1eee;" horiz-adv-x="426" 
d="M447 779v-21q0 -59 -11.5 -84.5t-48.5 -34.5v-336q0 -137 -9 -196.5t-45 -87t-120 -27.5t-120 27.5t-45 87t-9 196.5v385h120v-432q0 -77 3 -106.5t13.5 -39t37.5 -9.5t37.5 9.5t13.5 38.5t3 107v432h56q30 0 40 12t10 43v36h74zM345.5 815.5q-3.5 -24.5 -18 -38
t-44.5 -13.5q-27 0 -76 17q-7 2 -21.5 7.5t-24.5 5.5q-11 0 -13.5 -8.5t-2.5 -32.5h-69q0 47 4 71.5t18 38t45 13.5q29 0 76 -17q4 -1 19.5 -6.5t26.5 -5.5q10 0 12.5 8.5t2.5 32.5h69q0 -48 -3.5 -72.5z" />
    <glyph glyph-name="uni1EEF" unicode="&#x1eef;" horiz-adv-x="392" 
d="M413 601v-21q0 -59 -11.5 -84.5t-48.5 -34.5v-461h-107l-4 62h-7q-20 -70 -98 -70q-43 0 -64.5 17.5t-29 55t-7.5 106.5v339h113v-285q0 -64 3 -90t11.5 -33.5t30.5 -7.5q23 0 32.5 13t11.5 42.5t2 104.5v256h49q30 0 40 12t10 43v36h74zM328.5 670.5q-3.5 -24.5 -18 -38
t-44.5 -13.5q-27 0 -76 17q-7 2 -21.5 7.5t-24.5 5.5q-11 0 -13.5 -8.5t-2.5 -32.5h-69q0 47 4 71.5t18 38t45 13.5q29 0 76 -17q4 -1 19.5 -6.5t26.5 -5.5q10 0 12.5 8.5t2.5 32.5h69q0 -48 -3.5 -72.5z" />
    <glyph glyph-name="uni1EF0" unicode="&#x1ef0;" horiz-adv-x="426" 
d="M447 779v-21q0 -59 -11.5 -84.5t-48.5 -34.5v-336q0 -137 -9 -196.5t-45 -87t-120 -27.5t-120 27.5t-45 87t-9 196.5v385h120v-432q0 -77 3 -106.5t13.5 -39t37.5 -9.5t37.5 9.5t13.5 38.5t3 107v432h56q30 0 40 12t10 43v36h74zM151 -183v121h124v-121h-124z" />
    <glyph glyph-name="uni1EF1" unicode="&#x1ef1;" horiz-adv-x="392" 
d="M413 601v-21q0 -59 -11.5 -84.5t-48.5 -34.5v-461h-107l-4 62h-7q-20 -70 -98 -70q-43 0 -64.5 17.5t-29 55t-7.5 106.5v339h113v-285q0 -64 3 -90t11.5 -33.5t30.5 -7.5q23 0 32.5 13t11.5 42.5t2 104.5v256h49q30 0 40 12t10 43v36h74zM131 -183v121h124v-121h-124z
" />
    <glyph glyph-name="Ygrave" unicode="&#x1ef2;" horiz-adv-x="387" 
d="M133 0v246l-134 442h121l72 -307h10l69 307h117l-134 -442v-246h-121zM149 743l-55 140v5h111l36 -140v-5h-92z" />
    <glyph glyph-name="ygrave" unicode="&#x1ef3;" horiz-adv-x="392" 
d="M58 -195v90q60 -2 100 -2t56.5 10t21 35.5t4.5 88.5v43h-7q-20 -68 -97 -68q-43 0 -64 18t-28.5 55.5t-7.5 106.5v328h113v-276q0 -64 3 -89.5t11.5 -33t30.5 -7.5q23 0 32.5 13t11.5 42.5t2 104.5v246h113v-448q0 -104 -10 -157t-46 -80.5t-113 -27.5q-73 0 -126 8z
M148 598l-55 140v5h111l36 -140v-5h-92z" />
    <glyph glyph-name="uni1EF4" unicode="&#x1ef4;" horiz-adv-x="387" 
d="M133 0v246l-134 442h121l72 -307h10l69 307h117l-134 -442v-246h-121zM132 -183v121h124v-121h-124z" />
    <glyph glyph-name="uni1EF5" unicode="&#x1ef5;" horiz-adv-x="392" 
d="M58 -195v90q60 -2 100 -2t56.5 10t21 35.5t4.5 88.5v43h-7q-20 -68 -97 -68q-43 0 -64 18t-28.5 55.5t-7.5 106.5v328h113v-276q0 -64 3 -89.5t11.5 -33t30.5 -7.5q23 0 32.5 13t11.5 42.5t2 104.5v246h113v-448q0 -104 -10 -157t-46 -80.5t-113 -27.5q-73 0 -126 8z
M122 -386v121h124v-121h-124z" />
    <glyph glyph-name="uni1EF6" unicode="&#x1ef6;" horiz-adv-x="387" 
d="M133 0v246l-134 442h121l72 -307h10l69 307h117l-134 -442v-246h-121zM130 755q0 21 7.5 31.5t26.5 16.5l10 3q28 10 37 16t9 19q0 12 -8 15.5t-34 3.5q-28 0 -94 -2v65q68 12 107 12q57 0 85 -15.5t28 -60.5q0 -35 -8 -51.5t-38 -29.5l-11 -5q-23 -9 -31 -13.5t-10 -9.5
t-2 -17h-74v22z" />
    <glyph glyph-name="uni1EF7" unicode="&#x1ef7;" horiz-adv-x="392" 
d="M58 -195v90q60 -2 100 -2t56.5 10t21 35.5t4.5 88.5v43h-7q-20 -68 -97 -68q-43 0 -64 18t-28.5 55.5t-7.5 106.5v328h113v-276q0 -64 3 -89.5t11.5 -33t30.5 -7.5q23 0 32.5 13t11.5 42.5t2 104.5v246h113v-448q0 -104 -10 -157t-46 -80.5t-113 -27.5q-73 0 -126 8z
M132 637q0 20 7.5 31t26.5 17l10 3q28 9 37 15t9 19q0 12 -8 15.5t-34 3.5q-28 0 -94 -2v65q68 12 107 12q57 0 85 -15.5t28 -60.5q0 -35 -8 -51.5t-38 -29.5l-11 -5q-18 -7 -28.5 -12.5t-12.5 -10t-2 -17.5h-74v23z" />
    <glyph glyph-name="uni1EF8" unicode="&#x1ef8;" horiz-adv-x="387" 
d="M133 0v246l-134 442h121l72 -307h10l69 307h117l-134 -442v-246h-121zM326.5 815.5q-3.5 -24.5 -18 -38t-44.5 -13.5q-27 0 -76 17q-7 2 -21.5 7.5t-24.5 5.5q-11 0 -13.5 -8.5t-2.5 -32.5h-69q0 47 4 71.5t18 38t45 13.5q29 0 76 -17q4 -1 19.5 -6.5t26.5 -5.5
q10 0 12.5 8.5t2.5 32.5h69q0 -48 -3.5 -72.5z" />
    <glyph glyph-name="uni1EF9" unicode="&#x1ef9;" horiz-adv-x="392" 
d="M58 -195v90q60 -2 100 -2t56.5 10t21 35.5t4.5 88.5v43h-7q-20 -68 -97 -68q-43 0 -64 18t-28.5 55.5t-7.5 106.5v328h113v-276q0 -64 3 -89.5t11.5 -33t30.5 -7.5q23 0 32.5 13t11.5 42.5t2 104.5v246h113v-448q0 -104 -10 -157t-46 -80.5t-113 -27.5q-73 0 -126 8z
M328.5 670.5q-3.5 -24.5 -18 -38t-44.5 -13.5q-27 0 -76 17q-7 2 -21.5 7.5t-24.5 5.5q-11 0 -13.5 -8.5t-2.5 -32.5h-69q0 47 4 71.5t18 38t45 13.5q29 0 76 -17q4 -1 19.5 -6.5t26.5 -5.5q10 0 12.5 8.5t2.5 32.5h69q0 -48 -3.5 -72.5z" />
    <glyph glyph-name="uni2002" unicode="&#x2002;" horiz-adv-x="300" 
 />
    <glyph glyph-name="endash" unicode="&#x2013;" horiz-adv-x="430" 
d="M44 256v98h342v-98h-342z" />
    <glyph glyph-name="emdash" unicode="&#x2014;" horiz-adv-x="793" 
d="M44 256v98h706v-98h-706z" />
    <glyph glyph-name="underscoredbl" unicode="&#x2017;" horiz-adv-x="343" 
d="M0 -162v84h343v-84h-343zM0 -279v84h343v-84h-343z" />
    <glyph glyph-name="quoteleft" unicode="&#x2018;" horiz-adv-x="206" 
d="M44 520q0 70 8.5 104t33.5 49t79 15v-52q-30 0 -39 -14.5t-9 -57.5v-14h44v-115h-117v85z" />
    <glyph glyph-name="quoteright" unicode="&#x2019;" horiz-adv-x="206" 
d="M80 502q9 15 9 57v15h-44v114h118v-85q0 -70 -8.5 -104t-34 -49t-79.5 -15v52q30 0 39 15z" />
    <glyph glyph-name="quotesinglbase" unicode="&#x201a;" horiz-adv-x="210" 
d="M82 -71.5q9 14.5 9 57.5v14h-45v114h118v-85q0 -70 -8.5 -104t-34 -48.5t-79.5 -14.5v52q31 0 40 14.5z" />
    <glyph glyph-name="quotedblleft" unicode="&#x201c;" horiz-adv-x="373" 
d="M44 520q0 70 8.5 104t33.5 49t79 15v-52q-30 0 -39 -14.5t-9 -57.5v-14h44v-115h-117v85zM211 520q0 70 8 104.5t33.5 49t79.5 14.5v-52q-30 0 -39 -14.5t-9 -57.5v-14h44v-115h-117v85z" />
    <glyph glyph-name="quotedblright" unicode="&#x201d;" horiz-adv-x="373" 
d="M80 502q9 15 9 57v15h-44v114h118v-85q0 -70 -8.5 -104t-34 -49t-79.5 -15v52q30 0 39 15zM247 502q9 15 9 57v15h-44v114h117v-85q0 -70 -8 -104.5t-33.5 -49t-79.5 -14.5v52q30 0 39 15z" />
    <glyph glyph-name="quotedblbase" unicode="&#x201e;" horiz-adv-x="378" 
d="M82 -71.5q9 14.5 9 57.5v14h-45v114h118v-85q0 -70 -8.5 -104t-34 -48.5t-79.5 -14.5v52q31 0 40 14.5zM249 -71.5q9 14.5 9 57.5v14h-45v114h118v-85q0 -70 -8.5 -104t-34 -48.5t-79.5 -14.5v52q31 0 40 14.5z" />
    <glyph glyph-name="dagger" unicode="&#x2020;" horiz-adv-x="331" 
d="M123 0l-9 426l-82 10v81l82 10l9 161h84l8 -161l84 -10v-81l-84 -10l-8 -426h-84z" />
    <glyph glyph-name="daggerdbl" unicode="&#x2021;" horiz-adv-x="331" 
d="M123 0l-9 162l-82 9v82l82 10v163l-82 10v81l82 10l9 161h84l8 -161l84 -10v-81l-84 -10v-163l84 -10v-82l-84 -9l-8 -162h-84z" />
    <glyph glyph-name="bullet" unicode="&#x2022;" horiz-adv-x="252" 
d="M213 282q-5 -17 -23.5 -23t-64.5 -6q-44 0 -62 6t-23 23t-5 60q0 45 5 62.5t22.5 24t62.5 6.5q46 0 64.5 -6.5t23.5 -24t5 -62.5q0 -43 -5 -60z" />
    <glyph glyph-name="ellipsis" unicode="&#x2026;" horiz-adv-x="653" 
d="M47 0v121h124v-121h-124zM265 0v121h123v-121h-123zM482 0v121h124v-121h-124z" />
    <glyph glyph-name="perthousand" unicode="&#x2030;" horiz-adv-x="802" 
d="M78.5 373q-21.5 15 -29 49.5t-7.5 104.5t7.5 104.5t29 49.5t67.5 15t68 -15t29 -49t7 -105t-7 -105t-29 -49t-68 -15t-67.5 15zM87 0l321 688h68l-320 -688h-69zM166 423.5q5 5.5 7 26.5t2 77t-2 77.5t-7.5 27t-19.5 5.5t-19.5 -5.5t-7.5 -27t-2 -77.5t2 -77t7 -26.5
t20 -5.5t20 5.5zM353 7q-22 15 -29 49t-7 105q0 70 7 104.5t29 49.5t68 15t67.5 -15t29 -49.5t7.5 -104.5t-7.5 -104.5t-29 -49.5t-67.5 -15t-68 15zM588.5 7q-21.5 15 -29 49.5t-7.5 104.5t7.5 104.5t29 49.5t67.5 15t68 -15t29 -49.5t7 -104.5q0 -71 -7 -105t-29 -49
t-68 -15t-67.5 15zM440.5 56.5q5.5 5.5 7.5 27t2 77.5q0 55 -2 76.5t-7.5 27t-19.5 5.5t-19.5 -5.5t-7.5 -27t-2 -76.5q0 -56 2 -77.5t7.5 -27t19.5 -5.5t19.5 5.5zM675.5 56.5q5.5 5.5 7.5 27t2 77.5q0 55 -2 76.5t-7.5 27t-19.5 5.5t-19.5 -5.5t-7.5 -27t-2 -76.5
q0 -56 2 -77.5t7.5 -27t19.5 -5.5t19.5 5.5z" />
    <glyph glyph-name="minute" unicode="&#x2032;" horiz-adv-x="188" 
d="M31 370l16 318h107l-6 -116l-34 -202h-83z" />
    <glyph glyph-name="second" unicode="&#x2033;" horiz-adv-x="334" 
d="M176 370l16 318h107l-6 -116l-34 -202h-83zM31 370l16 318h107l-6 -116l-34 -202h-83z" />
    <glyph glyph-name="guilsinglleft" unicode="&#x2039;" horiz-adv-x="224" 
d="M104 125l-70 192l70 193h82l-54 -193l54 -192h-82z" />
    <glyph glyph-name="guilsinglright" unicode="&#x203a;" horiz-adv-x="224" 
d="M38 125l54 192l-54 193h83l70 -193l-70 -192h-83z" />
    <glyph glyph-name="exclamdbl" unicode="&#x203c;" horiz-adv-x="418" 
d="M234 617v71h139v-71q0 -36 -10 -153.5t-24 -254.5h-71q-34 342 -34 408zM242 0v121h123v-121h-123zM44 617v71h139v-71q0 -36 -10 -153.5t-24 -254.5h-71q-34 342 -34 408zM52 0v121h123v-121h-123z" />
    <glyph glyph-name="fraction" unicode="&#x2044;" horiz-adv-x="122" 
d="M-124 0l299 688h70l-297 -688h-72z" />
    <glyph glyph-name="Euro" unicode="&#x20ac;" horiz-adv-x="372" 
d="M143 14q-36 22 -52 73.5t-20 149.5h-49v65h48v87h-48v65h50q4 96 20.5 147t52.5 73t102 22q27 0 52.5 -4t38.5 -11v-101q-38 7 -69 7q-32 0 -47 -8.5t-21.5 -36t-8.5 -88.5h118v-65h-119v-87h119v-65h-119q2 -62 8.5 -90t22 -37t47.5 -9q40 0 71 7v-100
q-17 -7 -43.5 -11.5t-49.5 -4.5q-68 0 -104 22z" />
    <glyph glyph-name="uni20B2" unicode="&#x20b2;" horiz-adv-x="413" 
d="M382 383v-93q0 -85 -8 -127.5t-34 -63.5t-80 -25v-82h-85v82q-58 5 -88.5 30.5t-42.5 81t-12 158.5q0 101 12 155.5t42 80.5t89 33v83h85v-81q56 -3 110 -18v-101q-72 11 -109 11q-54 0 -74.5 -9t-27.5 -40.5t-7 -113.5q0 -80 4 -112.5t15.5 -41.5t40.5 -9q27 0 37.5 6.5
t13.5 24t3 61.5v18h-50v92h166z" />
    <glyph glyph-name="uni2113" unicode="&#x2113;" horiz-adv-x="366" 
d="M183 129.5q12 -26.5 41 -26.5q30 0 90 28v-116q-57 -22 -107 -22q-71 0 -105.5 46.5t-44.5 153.5q-25 -7 -54 -10v103q23 3 49 9v28q0 136 16 217.5t50 118.5t91 37q69 0 99.5 -46t30.5 -124q0 -100 -45.5 -178.5t-125.5 -119.5q3 -72 15 -98.5zM186.5 568.5
q-8.5 -18.5 -13.5 -70t-6 -148.5q65 62 65 187q0 25 -5 37.5t-18 12.5q-14 0 -22.5 -18.5z" />
    <glyph glyph-name="uni2116" unicode="&#x2116;" horiz-adv-x="697" 
d="M474.5 411.5q-23.5 14.5 -29 43t-5.5 92.5q0 63 5.5 92t29 43t77.5 14t77.5 -14t29 -43t5.5 -92q0 -64 -5.5 -92.5t-29 -43t-77.5 -14.5t-77.5 14.5zM289 0l-127 388h-4v-388h-115v688h114l119 -361h6v361h114v-688h-107zM577.5 465.5q7.5 6.5 9 22.5t1.5 59t-1.5 58.5
t-9 22t-25.5 6.5t-25.5 -6.5t-9 -22t-1.5 -58.5t1.5 -59t9 -22.5t25.5 -6.5t25.5 6.5zM449 203v100h207v-100h-207z" />
    <glyph glyph-name="trademark" unicode="&#x2122;" horiz-adv-x="482" 
d="M77 387v251h-47v50h147v-50h-47v-251h-53zM209 387v301h85l29 -220h4l27 220h84v-301h-51v230h-4l-31 -230h-58l-31 230h-4v-230h-50z" />
    <glyph glyph-name="uni2126" unicode="&#x2126;" horiz-adv-x="437" 
d="M39 102h6l72 -22v6q-40 28 -59 99t-19 192q0 129 11 193t49 95t119 31q82 0 120 -31t49 -95t11 -193q0 -121 -19 -192t-59 -99v-6q18 5 32 10l40 12h5v-102h-157v103q18 7 26 27.5t10.5 70.5t2.5 161q0 108 -3.5 152t-16 58.5t-41.5 14.5t-41 -14.5t-15.5 -58
t-3.5 -152.5q0 -111 2.5 -160.5t10 -70.5t25.5 -28v-103h-157v102z" />
    <glyph glyph-name="estimated" unicode="&#x212e;" horiz-adv-x="423" 
d="M157 113q5 -58 20 -72.5t55 -14.5q41 0 63 9.5t36 46.5t18 118h36q-4 -83 -19 -126.5t-50.5 -62.5t-104.5 -19q-87 0 -123.5 30t-46 97.5t-9.5 224.5t9.5 224.5t46 97.5t123.5 30t124 -30t46.5 -97.5t9.5 -224.5v-21h-239q0 -152 5 -210zM171 647q-11 -15 -15 -75
t-4 -215h118q0 156 -4 215.5t-14.5 74.5t-40.5 15q-29 0 -40 -15z" />
    <glyph glyph-name="uni2153" unicode="&#x2153;" horiz-adv-x="575" 
d="M86 315v283l-46 -21v73l65 38h57v-373h-76zM73 0l298 688h71l-298 -688h-71zM418 61q24 0 31.5 8t7.5 36q0 31 -6 40t-23 9h-49v68h49q15 0 21 9t6 39q0 28 -7 35t-33 7q-28 0 -63 -5v65q45 9 83 9q51 0 73.5 -21t22.5 -79q0 -37 -10 -58t-32 -31v-4q23 -9 34 -30t11 -60
q0 -58 -22.5 -82t-76.5 -24q-30 0 -84 9v65q55 -5 67 -5z" />
    <glyph glyph-name="uni2154" unicode="&#x2154;" horiz-adv-x="617" 
d="M227 315h-185v48q0 51 2 75t8.5 38.5t21.5 24.5q22 15 37 24l20 13q12 8 16.5 17.5t4.5 28.5q0 28 -7 35.5t-32 7.5q-12 0 -69 -5v65q47 9 87 9q32 0 51.5 -6.5t32 -29.5t12.5 -71t-10.5 -69t-32.5 -35l-52 -34q-10 -7 -12.5 -15.5t-2.5 -41.5v-10h110v-69zM416 688h70
l-298 -688h-71zM565 158q11 -21 11 -60q0 -58 -22.5 -82t-76.5 -24q-30 0 -84 9v65q55 -5 67 -5q24 0 31.5 8t7.5 36q0 31 -6 40t-23 9h-49v68h49q15 0 21 9t6 39q0 28 -7 35t-33 7q-28 0 -63 -5v65q45 9 83 9q51 0 73.5 -21t22.5 -79q0 -37 -10 -58t-32 -31v-4
q23 -9 34 -30z" />
    <glyph glyph-name="oneeighth" unicode="&#x215b;" horiz-adv-x="590" 
d="M86 315v283l-46 -21v73l65 38h57v-373h-76zM73 0l298 688h71l-298 -688h-71zM356.5 19.5q-24.5 23.5 -24.5 80.5q0 46 12.5 66t39.5 27v2q-25 7 -37 28.5t-12 62.5q0 55 24.5 76.5t80.5 21.5q55 0 80 -21.5t25 -76.5q0 -41 -12 -62.5t-37 -28.5v-2q27 -7 40 -27t13 -66
q0 -57 -24.5 -80.5t-84.5 -23.5q-59 0 -83.5 23.5zM461.5 223.5q6.5 3.5 9 14t2.5 34.5t-2.5 35t-9 15t-21.5 4q-21 0 -27 -10t-6 -44q0 -24 2.5 -34.5t9 -14t21.5 -3.5t21.5 3.5zM468.5 64q6.5 10 6.5 45q0 25 -2.5 36.5t-10 15.5t-22.5 4t-22 -4t-9.5 -15.5t-2.5 -36.5
t2.5 -36t9.5 -15t22 -4q22 0 28.5 10z" />
    <glyph glyph-name="threeeighths" unicode="&#x215c;" horiz-adv-x="582" 
d="M13 313v58q43 -5 66 -5q26 0 33.5 9t7.5 41q0 34 -6 44t-25 10h-45v61h45q17 0 22.5 9.5t5.5 40.5q0 23 -3 32.5t-11 12.5t-27 3q-36 0 -63 -4v58q47 9 83 9q52 0 74.5 -21t22.5 -76q0 -41 -11 -63t-34 -29v-2q25 -6 36.5 -27t11.5 -66q0 -57 -22.5 -80.5t-77.5 -23.5
q-43 0 -83 9zM95 0l299 688h70l-297 -688h-72zM377.5 19.5q-24.5 23.5 -24.5 80.5q0 46 12.5 66t39.5 27v2q-25 7 -37 28.5t-12 62.5q0 55 24.5 76.5t80.5 21.5q55 0 80 -21.5t25 -76.5q0 -41 -12 -62.5t-37 -28.5v-2q27 -7 40 -27t13 -66q0 -57 -24.5 -80.5t-84.5 -23.5
q-59 0 -83.5 23.5zM482.5 223.5q6.5 3.5 9 14t2.5 34.5t-2.5 35t-9 15t-21.5 4q-21 0 -27 -10t-6 -44q0 -24 2.5 -34.5t9 -14t21.5 -3.5t21.5 3.5zM489.5 64q6.5 10 6.5 45q0 25 -2.5 36.5t-10 15.5t-22.5 4t-22 -4t-9.5 -15.5t-2.5 -36.5t2.5 -36t9.5 -15t22 -4
q22 0 28.5 10z" />
    <glyph glyph-name="fiveeighths" unicode="&#x215d;" horiz-adv-x="599" 
d="M98 366q23 0 31.5 4t10.5 16t2 46q0 27 -2 36.5t-11 12.5t-32 3q-30 0 -59 -4v207h166v-62h-99v-82q12 3 34 3q46 0 62.5 -27t16.5 -87q0 -51 -8.5 -78t-29.5 -38.5t-62 -11.5q-42 0 -83 9v58q38 -5 63 -5zM112 0l299 688h70l-297 -688h-72zM394.5 19.5
q-24.5 23.5 -24.5 80.5q0 46 12.5 66t39.5 27v2q-25 7 -37 28.5t-12 62.5q0 55 24.5 76.5t80.5 21.5q55 0 80 -21.5t25 -76.5q0 -41 -12 -62.5t-37 -28.5v-2q27 -7 40 -27t13 -66q0 -57 -24.5 -80.5t-84.5 -23.5q-59 0 -83.5 23.5zM499.5 223.5q6.5 3.5 9 14t2.5 34.5
t-2.5 35t-9 15t-21.5 4q-21 0 -27 -10t-6 -44q0 -24 2.5 -34.5t9 -14t21.5 -3.5t21.5 3.5zM506.5 64q6.5 10 6.5 45q0 25 -2.5 36.5t-10 15.5t-22.5 4t-22 -4t-9.5 -15.5t-2.5 -36.5t2.5 -36t9.5 -15t22 -4q22 0 28.5 10z" />
    <glyph glyph-name="seveneighths" unicode="&#x215e;" horiz-adv-x="542" 
d="M30 308l92 317h-108v62h185v-54l-90 -325h-79zM55 0l299 688h70l-297 -688h-72zM337.5 19.5q-24.5 23.5 -24.5 80.5q0 46 12.5 66t39.5 27v2q-25 7 -37 28.5t-12 62.5q0 55 24.5 76.5t80.5 21.5q55 0 80 -21.5t25 -76.5q0 -41 -12 -62.5t-37 -28.5v-2q27 -7 40 -27
t13 -66q0 -57 -24.5 -80.5t-84.5 -23.5q-59 0 -83.5 23.5zM442.5 223.5q6.5 3.5 9 14t2.5 34.5t-2.5 35t-9 15t-21.5 4q-21 0 -27 -10t-6 -44q0 -24 2.5 -34.5t9 -14t21.5 -3.5t21.5 3.5zM449.5 64q6.5 10 6.5 45q0 25 -2.5 36.5t-10 15.5t-22.5 4t-22 -4t-9.5 -15.5
t-2.5 -36.5t2.5 -36t9.5 -15t22 -4q22 0 28.5 10z" />
    <glyph glyph-name="arrowleft" unicode="&#x2190;" horiz-adv-x="883" 
d="M297 256l32 -86l-274 134l274 135l-31 -85h530v-98h-531z" />
    <glyph glyph-name="arrowup" unicode="&#x2191;" horiz-adv-x="395" 
d="M150 -82v527l-87 -31l135 277l134 -277l-85 31v-527h-97z" />
    <glyph glyph-name="arrowright" unicode="&#x2192;" horiz-adv-x="883" 
d="M551 170l31 86h-527v98h527l-31 85l277 -135z" />
    <glyph glyph-name="arrowdown" unicode="&#x2193;" horiz-adv-x="395" 
d="M198 -85l-135 277l87 -32v528h97v-528l85 32z" />
    <glyph glyph-name="arrowboth" unicode="&#x2194;" horiz-adv-x="883" 
d="M332 170l-277 134l277 135l-32 -85h282l-31 85l277 -135l-277 -134l31 86h-282z" />
    <glyph glyph-name="arrowupdn" unicode="&#x2195;" horiz-adv-x="395" 
d="M198 -85l-135 277l87 -32v290l-87 -31l135 277l134 -277l-85 31v-290l85 32z" />
    <glyph glyph-name="arrowupdnbse" unicode="&#x21a8;" horiz-adv-x="395" 
d="M198 -85l-135 277l87 -32v290l-87 -31l135 277l134 -277l-85 31v-290l85 32zM55 -203v81h285v-81h-285z" />
    <glyph glyph-name="partialdiff" unicode="&#x2202;" horiz-adv-x="381" 
d="M81.5 14.5q-33.5 22.5 -43 74.5t-9.5 165q0 102 8 155.5t35 81t83 27.5q35 0 60 -14l3 3q-26 128 -98 232v4h114q39 -50 66.5 -123.5t38.5 -156.5q13 -104 13 -204q0 -116 -9.5 -168.5t-43 -75.5t-108.5 -23q-76 0 -109.5 22.5zM224.5 98.5q9.5 10.5 12 41.5t2.5 115
q0 80 -2.5 111.5t-12 43.5t-34.5 12t-34 -10t-11.5 -41t-2.5 -116q0 -84 2.5 -115t11.5 -41.5t34 -10.5t34.5 10.5z" />
    <glyph glyph-name="uni2206" unicode="&#x2206;" horiz-adv-x="423" 
d="M9 0l112 688h179l114 -688h-405zM214 564h-7l-68 -461h141z" />
    <glyph glyph-name="product" unicode="&#x220f;" horiz-adv-x="437" 
d="M274 -189v768h-111v-768h-120v877h351v-877h-120z" />
    <glyph glyph-name="summation" unicode="&#x2211;" horiz-adv-x="437" 
d="M45 -189v105l156 333l-156 335v104h347v-109h-216l155 -330l-155 -329h216v-109h-347z" />
    <glyph glyph-name="minus" unicode="&#x2212;" horiz-adv-x="447" 
d="M52 203v100h342v-100h-342z" />
    <glyph glyph-name="radical" unicode="&#x221a;" horiz-adv-x="494" 
d="M163 -106l-82 323l-48 -18l-23 76l165 66l72 -322l100 751h118l-126 -876h-176z" />
    <glyph glyph-name="infinity" unicode="&#x221e;" horiz-adv-x="677" 
d="M76.5 92.5q-34.5 54.5 -34.5 163.5t35 164t116 55q56 0 90 -28t55 -78q21 50 55 78t90 28q81 0 115.5 -55t34.5 -164t-34 -163.5t-116 -54.5q-57 0 -91 28t-54 80q-20 -52 -54 -80t-91 -28q-82 0 -116.5 54.5zM260 161.5q23 35.5 30 94.5q-7 60 -29.5 95.5t-57.5 35.5
q-36 0 -48.5 -33.5t-12.5 -97.5q0 -65 12.5 -97.5t48.5 -32.5q34 0 57 35.5zM521 158.5q12 32.5 12 97.5t-12.5 98t-47.5 33t-57.5 -35.5t-29.5 -95.5q7 -59 30 -94.5t57 -35.5q36 0 48 32.5z" />
    <glyph glyph-name="integral" unicode="&#x222b;" horiz-adv-x="276" 
d="M27 -102q26 0 38 2.5t16.5 11.5t4.5 30l-2 80l-21 498q-1 18 -1 39q0 66 17 94.5t51.5 35.5t110.5 7v-87q-29 0 -40.5 -3t-15 -14.5t-3.5 -40.5l1 -43l19 -480l2 -70q0 -71 -17 -102t-51 -38.5t-109 -7.5v88z" />
    <glyph glyph-name="approxequal" unicode="&#x2248;" horiz-adv-x="439" 
d="M56.5 339q4.5 25 22 38.5t54.5 13.5q34 0 100 -17l22 -5q26 -7 39 -7q15 0 19 8t4 31h69q0 -48 -4 -72t-21.5 -37.5t-54.5 -13.5q-38 0 -100 16l-26 6.5t-36 5.5t-18 -8t-4 -31h-70q0 47 4.5 72zM56.5 176.5q4.5 24.5 22 38.5t54.5 14q28 0 60 -7.5t40 -9.5q5 -1 26 -6.5
t35 -5.5q15 0 19 8t4 31h69q0 -48 -4 -72.5t-21.5 -38t-54.5 -13.5q-34 0 -100 17l-26 6.5t-36 5.5t-18 -8.5t-4 -31.5h-70q0 48 4.5 72.5z" />
    <glyph glyph-name="notequal" unicode="&#x2260;" horiz-adv-x="447" 
d="M198 118l-39 -83h-86l40 83h-61v99h107l36 72h-143v100h190l42 86h85l-42 -86h67v-100h-113l-36 -72h149v-99h-196z" />
    <glyph glyph-name="lessequal" unicode="&#x2264;" horiz-adv-x="448" 
d="M395 193l-342 127v102l342 128v-102l-220 -77l220 -77v-101zM52 43v100h343v-100h-343z" />
    <glyph glyph-name="greaterequal" unicode="&#x2265;" horiz-adv-x="456" 
d="M59 193v101l221 77l-221 77v102l343 -128v-102zM60 43v100h342v-100h-342z" />
    <glyph glyph-name="house" unicode="&#x2302;" horiz-adv-x="468" 
d="M22 0v357l156 344h112l156 -344v-357h-424zM137 96h194v254l-97 228l-97 -228v-254z" />
    <glyph glyph-name="lozenge" unicode="&#x25ca;" horiz-adv-x="412" 
d="M151 0l-134 344l134 344h110l134 -344l-134 -344h-110zM206 97l86 247l-86 248l-86 -248z" />
    <glyph glyph-name="uniA78B" unicode="&#xa78b;" horiz-adv-x="148" 
d="M20 270v418h108v-167l-25 -251h-83z" />
    <glyph glyph-name="uniA78C" unicode="&#xa78c;" horiz-adv-x="148" 
d="M20 270v473h108v-222l-25 -251h-83z" />
    <glyph glyph-name="uniF8FF" unicode="&#xf8ff;" horiz-adv-x="841" 
d="M72 0v698h697v-698h-697zM594.5 473.5q-23.5 41.5 -68 65.5t-104.5 24q-61 0 -105.5 -24t-68.5 -65.5t-24 -91.5v-66q0 -50 24 -91.5t68.5 -65.5t105.5 -24q60 0 104.5 24t68 65.5t23.5 91.5v66q0 50 -23.5 91.5zM465 247.5q-18 -17.5 -43 -17.5q-26 0 -44 17.5t-18 42.5
v118q0 25 18 42.5t44 17.5q25 0 43 -17.5t18 -42.5v-118q0 -25 -18 -42.5z" />
    <glyph glyph-name="Iacute_J.loclNLD" horiz-adv-x="455" 
d="M45 0v688h120v-688h-120zM62 743v5l36 140h111v-5l-55 -140h-92zM272 111q15 7 19.5 32t4.5 93v452h120v-390q0 -153 -11 -209t-48.5 -72t-140.5 -17v103q41 1 56 8zM313 743v5l36 140h111v-5l-55 -140h-92z" />
    <glyph glyph-name="Oslash.bold" horiz-adv-x="423" 
d="M358 640q21 -35 27 -99.5t6 -196.5q0 -157 -9.5 -224.5t-46.5 -97.5t-124 -30q-40 0 -61 5l-17 -52h-101l33 103q-21 35 -27 99.5t-6 196.5q0 157 9.5 224.5t46 97.5t123.5 30q38 0 61 -4l17 51h102zM152 318l86 267q-7 2 -27 2q-30 0 -40.5 -12t-14.5 -59.5t-4 -171.5
v-26zM270 369l-86 -266q7 -2 27 -2q30 0 41 12t14.5 59t3.5 172v25z" />
    <glyph glyph-name="Q.bold" horiz-adv-x="423" 
d="M426 -110v-5h-124l-57 108q-10 -1 -34 -1q-87 0 -123.5 30t-46 97.5t-9.5 224.5t9.5 224.5t46 97.5t123.5 30t124 -30t46.5 -97.5t9.5 -224.5q0 -142 -8 -209t-37 -101zM170.5 575q-10.5 -12 -14.5 -59.5t-4 -171.5q0 -94 1 -126h91l23 -41q3 54 3 167q0 125 -3.5 172
t-14.5 59t-41 12t-40.5 -12zM168 118.5q7 -12.5 20 -15.5l-31 58q4 -30 11 -42.5z" />
    <glyph glyph-name="G_tilde.loclGUA" horiz-adv-x="408" 
d="M212 288v106h160v-381q-29 -10 -71 -15.5t-81 -5.5q-80 0 -119 28t-54 101.5t-15 222.5t16 222.5t58 101.5t126 28q32 0 71.5 -5.5t67.5 -13.5v-101q-71 11 -106 11q-56 0 -77 -12t-29 -60t-8 -171q0 -117 4.5 -165t18.5 -64.5t49 -16.5q25 0 41 4v186h-52zM336.5 815.5
q-3.5 -24.5 -18 -38t-44.5 -13.5q-27 0 -76 17q-7 2 -21.5 7.5t-24.5 5.5q-11 0 -13.5 -8.5t-2.5 -32.5h-69q0 47 4 71.5t18 38t45 13.5q29 0 76 -17q4 -1 19.5 -6.5t26.5 -5.5q10 0 12.5 8.5t2.5 32.5h69q0 -48 -3.5 -72.5z" />
    <glyph glyph-name="Y.loclGUA" horiz-adv-x="390" 
d="M369 688v-183q0 -119 -6 -176.5t-30.5 -89t-78.5 -40.5v-199h-121v200q-53 9 -76.5 41t-29.5 89t-6 175v183h120v-229q0 -77 3 -106.5t13.5 -39t37.5 -9.5t37.5 9.5t13.5 39t3 106.5v229h120z" />
    <glyph glyph-name="Yacute.loclGUA" horiz-adv-x="390" 
d="M369 688v-183q0 -119 -6 -176.5t-30.5 -89t-78.5 -40.5v-199h-121v200q-53 9 -76.5 41t-29.5 89t-6 175v183h120v-229q0 -77 3 -106.5t13.5 -39t37.5 -9.5t37.5 9.5t13.5 39t3 106.5v229h120zM152 743v5l36 140h111v-5l-55 -140h-92z" />
    <glyph glyph-name="Ycircumflex.loclGUA" horiz-adv-x="390" 
d="M369 688v-183q0 -119 -6 -176.5t-30.5 -89t-78.5 -40.5v-199h-121v200q-53 9 -76.5 41t-29.5 89t-6 175v183h120v-229q0 -77 3 -106.5t13.5 -39t37.5 -9.5t37.5 9.5t13.5 39t3 106.5v229h120zM70 761v7l67 120h115l68 -120v-7h-79l-47 71l-45 -71h-79z" />
    <glyph glyph-name="Ydieresis.loclGUA" horiz-adv-x="390" 
d="M369 688v-183q0 -119 -6 -176.5t-30.5 -89t-78.5 -40.5v-199h-121v200q-53 9 -76.5 41t-29.5 89t-6 175v183h120v-229q0 -77 3 -106.5t13.5 -39t37.5 -9.5t37.5 9.5t13.5 39t3 106.5v229h120zM63 778v97h99v-97h-99zM228 778v97h99v-97h-99z" />
    <glyph glyph-name="uni1EF4.loclGUA" horiz-adv-x="390" 
d="M369 688v-183q0 -119 -6 -176.5t-30.5 -89t-78.5 -40.5v-199h-121v200q-53 9 -76.5 41t-29.5 89t-6 175v183h120v-229q0 -77 3 -106.5t13.5 -39t37.5 -9.5t37.5 9.5t13.5 39t3 106.5v229h120zM133 -183v121h124v-121h-124z" />
    <glyph glyph-name="Ygrave.loclGUA" horiz-adv-x="390" 
d="M369 688v-183q0 -119 -6 -176.5t-30.5 -89t-78.5 -40.5v-199h-121v200q-53 9 -76.5 41t-29.5 89t-6 175v183h120v-229q0 -77 3 -106.5t13.5 -39t37.5 -9.5t37.5 9.5t13.5 39t3 106.5v229h120zM150 743l-55 140v5h111l36 -140v-5h-92z" />
    <glyph glyph-name="uni1EF6.loclGUA" horiz-adv-x="390" 
d="M369 688v-183q0 -119 -6 -176.5t-30.5 -89t-78.5 -40.5v-199h-121v200q-53 9 -76.5 41t-29.5 89t-6 175v183h120v-229q0 -77 3 -106.5t13.5 -39t37.5 -9.5t37.5 9.5t13.5 39t3 106.5v229h120zM131 755q0 21 7.5 31.5t26.5 16.5l10 3q28 10 37 16t9 19q0 12 -8 15.5
t-34 3.5q-28 0 -94 -2v65q68 12 107 12q57 0 85 -15.5t28 -60.5q0 -35 -8 -51.5t-38 -29.5l-11 -5q-23 -9 -31 -13.5t-10 -9.5t-2 -17h-74v22z" />
    <glyph glyph-name="uni0232.loclGUA" horiz-adv-x="390" 
d="M369 688v-183q0 -119 -6 -176.5t-30.5 -89t-78.5 -40.5v-199h-121v200q-53 9 -76.5 41t-29.5 89t-6 175v183h120v-229q0 -77 3 -106.5t13.5 -39t37.5 -9.5t37.5 9.5t13.5 39t3 106.5v229h120zM108 784v104h174v-104h-174z" />
    <glyph glyph-name="uni1EF8.loclGUA" horiz-adv-x="390" 
d="M369 688v-183q0 -119 -6 -176.5t-30.5 -89t-78.5 -40.5v-199h-121v200q-53 9 -76.5 41t-29.5 89t-6 175v183h120v-229q0 -77 3 -106.5t13.5 -39t37.5 -9.5t37.5 9.5t13.5 39t3 106.5v229h120zM327.5 815.5q-3.5 -24.5 -18 -38t-44.5 -13.5q-27 0 -76 17q-7 2 -21.5 7.5
t-24.5 5.5q-11 0 -13.5 -8.5t-2.5 -32.5h-69q0 47 4 71.5t18 38t45 13.5q29 0 76 -17q4 -1 19.5 -6.5t26.5 -5.5q10 0 12.5 8.5t2.5 32.5h69q0 -48 -3.5 -72.5z" />
    <glyph glyph-name="Cacute.loclPLK" horiz-adv-x="323" 
d="M258.5 -3.5q-26.5 -4.5 -49.5 -4.5q-79 0 -116 30.5t-49 102t-12 219.5q0 146 12.5 218.5t49.5 103t115 30.5q27 0 52.5 -4t38.5 -11v-101q-39 7 -69 7q-39 0 -54.5 -14.5t-20 -61.5t-4.5 -167t4.5 -167t20 -61.5t54.5 -14.5q38 0 71 7v-100q-17 -7 -43.5 -11.5zM119 743
v5l16 140h111v-5l-35 -140h-92z" />
    <glyph glyph-name="Nacute.loclPLK" horiz-adv-x="439" 
d="M289 0l-127 388h-4v-388h-115v688h114l119 -361h6v361h114v-688h-107zM177 743v5l16 140h111v-5l-35 -140h-92z" />
    <glyph glyph-name="Oacute.loclPLK" horiz-adv-x="423" 
d="M87.5 22q-36.5 30 -46 97.5t-9.5 224.5t9.5 224.5t46 97.5t123.5 30t124 -30t46.5 -97.5t9.5 -224.5t-9.5 -224.5t-46.5 -97.5t-124 -30t-123.5 30zM252 113q11 12 14.5 59t3.5 172t-3.5 172t-14.5 59t-41 12t-40.5 -12t-14.5 -59.5t-4 -171.5t4 -171.5t14.5 -59.5
t40.5 -12t41 12zM168 743v5l16 140h111v-5l-35 -140h-92z" />
    <glyph glyph-name="Sacute.loclPLK" horiz-adv-x="368" 
d="M103 -3.5q-41 4.5 -70 12.5v99q73 -7 113 -7q28 0 43 3.5t24 13.5q14 17 14 74q0 44 -3.5 62t-14.5 26.5t-40 14.5l-80 17q-38 8 -52 52t-14 128q0 81 20 125.5t57.5 61.5t96.5 17q45 0 81.5 -6t46.5 -10v-100q-10 2 -36.5 4.5t-56.5 2.5q-32 0 -49.5 -4.5t-25.5 -14.5
t-10.5 -26t-2.5 -46q0 -35 2.5 -50.5t10.5 -22.5t26 -11l69 -16q31 -6 51.5 -21t32.5 -52q11 -36 11 -110q0 -91 -18.5 -139t-54 -65t-95.5 -17q-35 0 -76 4.5zM141 743v5l16 140h111v-5l-35 -140h-92z" />
    <glyph glyph-name="Zacute.loclPLK" horiz-adv-x="362" 
d="M24 0v102l183 477h-178v109h307v-101l-184 -478h185v-109h-313zM138 743v5l16 140h111v-5l-35 -140h-92z" />
    <glyph glyph-name="A.ss01" horiz-adv-x="426" 
d="M267 203h-108v-203h-120v385q0 137 9 196.5t45 87t120 27.5t120 -27.5t45 -87t9 -196.5v-385h-120v203zM264 538.5q-3 29.5 -13.5 39t-37.5 9.5t-37.5 -9.5t-13.5 -39t-3 -106.5v-120h108v120q0 77 -3 106.5z" />
    <glyph glyph-name="Aacute.ss01" horiz-adv-x="426" 
d="M267 203h-108v-203h-120v385q0 137 9 196.5t45 87t120 27.5t120 -27.5t45 -87t9 -196.5v-385h-120v203zM264 538.5q-3 29.5 -13.5 39t-37.5 9.5t-37.5 -9.5t-13.5 -39t-3 -106.5v-120h108v120q0 77 -3 106.5zM168 750v5l36 140h111v-5l-55 -140h-92z" />
    <glyph glyph-name="Abreve.ss01" horiz-adv-x="426" 
d="M267 203h-108v-203h-120v385q0 137 9 196.5t45 87t120 27.5t120 -27.5t45 -87t9 -196.5v-385h-120v203zM264 538.5q-3 29.5 -13.5 39t-37.5 9.5t-37.5 -9.5t-13.5 -39t-3 -106.5v-120h108v120q0 77 -3 106.5zM322.5 816q-8.5 -28 -34.5 -44.5t-76 -16.5t-75.5 16.5
t-34 44.5t-8.5 72h73q0 -25 2 -37.5t12 -20t31 -7.5q31 0 38.5 15t7.5 50h73q0 -44 -8.5 -72z" />
    <glyph glyph-name="uni1EAE.ss01" horiz-adv-x="426" 
d="M267 203h-108v-203h-120v385q0 137 9 196.5t45 87t120 27.5t120 -27.5t45 -87t9 -196.5v-385h-120v203zM264 538.5q-3 29.5 -13.5 39t-37.5 9.5t-37.5 -9.5t-13.5 -39t-3 -106.5v-120h108v120q0 77 -3 106.5zM322.5 816q-8.5 -28 -34.5 -44.5t-76 -16.5t-75.5 16.5
t-34 44.5t-8.5 72h73q0 -25 2 -37.5t12 -20t31 -7.5q31 0 38.5 15t7.5 50h73q0 -44 -8.5 -72zM162 916v5l36 140h111v-5l-55 -140h-92z" />
    <glyph glyph-name="uni1EB6.ss01" horiz-adv-x="426" 
d="M267 203h-108v-203h-120v385q0 137 9 196.5t45 87t120 27.5t120 -27.5t45 -87t9 -196.5v-385h-120v203zM264 538.5q-3 29.5 -13.5 39t-37.5 9.5t-37.5 -9.5t-13.5 -39t-3 -106.5v-120h108v120q0 77 -3 106.5zM322.5 816q-8.5 -28 -34.5 -44.5t-76 -16.5t-75.5 16.5
t-34 44.5t-8.5 72h73q0 -25 2 -37.5t12 -20t31 -7.5q31 0 38.5 15t7.5 50h73q0 -44 -8.5 -72zM151 -183v121h124v-121h-124z" />
    <glyph glyph-name="uni1EB0.ss01" horiz-adv-x="426" 
d="M267 203h-108v-203h-120v385q0 137 9 196.5t45 87t120 27.5t120 -27.5t45 -87t9 -196.5v-385h-120v203zM264 538.5q-3 29.5 -13.5 39t-37.5 9.5t-37.5 -9.5t-13.5 -39t-3 -106.5v-120h108v120q0 77 -3 106.5zM322.5 816q-8.5 -28 -34.5 -44.5t-76 -16.5t-75.5 16.5
t-34 44.5t-8.5 72h73q0 -25 2 -37.5t12 -20t31 -7.5q31 0 38.5 15t7.5 50h73q0 -44 -8.5 -72zM167 916l-55 140v5h111l36 -140v-5h-92z" />
    <glyph glyph-name="uni1EB2.ss01" horiz-adv-x="426" 
d="M232 962q9 6 9 19q0 12 -8 15.5t-34 3.5q-28 0 -94 -2v65q68 12 107 12q57 0 85 -15.5t28 -60.5q0 -35 -8 -51.5t-38 -29.5l-11 -5q-23 -9 -31 -13.5t-10 -9.5t-2 -17h-58q1 -26 9.5 -38t35.5 -12q31 0 38.5 15t7.5 50h73q0 -44 -8.5 -72t-34.5 -44.5t-76 -16.5
t-75.5 16.5t-34 44.5t-8.5 72h57v7q0 21 7.5 31.5t26.5 16.5l10 3q28 10 37 16zM333 668.5q36 -27.5 45 -87t9 -196.5v-385h-120v203h-108v-203h-120v385q0 137 9 196.5t45 87t120 27.5t120 -27.5zM267 432q0 77 -3 106.5t-13.5 39t-37.5 9.5t-37.5 -9.5t-13.5 -39
t-3 -106.5v-120h108v120z" />
    <glyph glyph-name="uni1EB4.ss01" horiz-adv-x="426" 
d="M267 203h-108v-203h-120v385q0 137 9 196.5t45 87t120 27.5t120 -27.5t45 -87t9 -196.5v-385h-120v203zM264 538.5q-3 29.5 -13.5 39t-37.5 9.5t-37.5 -9.5t-13.5 -39t-3 -106.5v-120h108v120q0 77 -3 106.5zM320.5 816q-8.5 -28 -34.5 -44.5t-76 -16.5t-75.5 16.5
t-34 44.5t-8.5 72h73q0 -25 2 -37.5t12 -20t31 -7.5q31 0 38.5 15t7.5 50h73q0 -44 -8.5 -72zM345.5 988.5q-3.5 -24.5 -18 -38t-44.5 -13.5q-27 0 -76 17q-7 2 -21.5 7.5t-24.5 5.5q-11 0 -13.5 -8.5t-2.5 -32.5h-69q0 47 4 71.5t18 38t45 13.5q29 0 76 -17q4 -1 19.5 -6.5
t26.5 -5.5q10 0 12.5 8.5t2.5 32.5h69q0 -48 -3.5 -72.5z" />
    <glyph glyph-name="uni01CD.ss01" horiz-adv-x="426" 
d="M267 203h-108v-203h-120v385q0 137 9 196.5t45 87t120 27.5t120 -27.5t45 -87t9 -196.5v-385h-120v203zM264 538.5q-3 29.5 -13.5 39t-37.5 9.5t-37.5 -9.5t-13.5 -39t-3 -106.5v-120h108v120q0 77 -3 106.5zM155 761l-67 119v8h79l45 -71l47 71h79v-8l-68 -119h-115z
" />
    <glyph glyph-name="Acircumflex.ss01" horiz-adv-x="426" 
d="M267 203h-108v-203h-120v385q0 137 9 196.5t45 87t120 27.5t120 -27.5t45 -87t9 -196.5v-385h-120v203zM264 538.5q-3 29.5 -13.5 39t-37.5 9.5t-37.5 -9.5t-13.5 -39t-3 -106.5v-120h108v120q0 77 -3 106.5zM93 750v7l67 120h115l68 -120v-7h-79l-47 71l-45 -71h-79z
" />
    <glyph glyph-name="uni1EA4.ss01" horiz-adv-x="426" 
d="M267 203h-108v-203h-120v385q0 137 9 196.5t45 87t120 27.5t120 -27.5t45 -87t9 -196.5v-385h-120v203zM264 538.5q-3 29.5 -13.5 39t-37.5 9.5t-37.5 -9.5t-13.5 -39t-3 -106.5v-120h108v120q0 77 -3 106.5zM89 729v7l67 120h115l68 -120v-7h-79l-47 71l-45 -71h-79z
M245 875v5l36 140h111v-5l-55 -140h-92z" />
    <glyph glyph-name="uni1EAC.ss01" horiz-adv-x="426" 
d="M267 203h-108v-203h-120v385q0 137 9 196.5t45 87t120 27.5t120 -27.5t45 -87t9 -196.5v-385h-120v203zM264 538.5q-3 29.5 -13.5 39t-37.5 9.5t-37.5 -9.5t-13.5 -39t-3 -106.5v-120h108v120q0 77 -3 106.5zM88 761v7l67 120h115l68 -120v-7h-79l-47 71l-45 -71h-79z
M151 -183v121h124v-121h-124z" />
    <glyph glyph-name="uni1EA6.ss01" horiz-adv-x="426" 
d="M267 203h-108v-203h-120v385q0 137 9 196.5t45 87t120 27.5t120 -27.5t45 -87t9 -196.5v-385h-120v203zM264 538.5q-3 29.5 -13.5 39t-37.5 9.5t-37.5 -9.5t-13.5 -39t-3 -106.5v-120h108v120q0 77 -3 106.5zM80 729v7l67 120h115l68 -120v-7h-79l-47 71l-45 -71h-79z
M252 874l-55 140v5h111l36 -140v-5h-92z" />
    <glyph glyph-name="uni1EA8.ss01" horiz-adv-x="426" 
d="M267 203h-108v-203h-120v385q0 137 9 196.5t45 87t120 27.5t120 -27.5t45 -87t9 -196.5v-385h-120v203zM264 538.5q-3 29.5 -13.5 39t-37.5 9.5t-37.5 -9.5t-13.5 -39t-3 -106.5v-120h108v120q0 77 -3 106.5zM88 729v7l67 120h115l68 -120v-7h-79l-47 71l-45 -71h-79z
M263 895q0 20 7.5 31t26.5 17l10 3q28 9 37 15t9 19q0 12 -8 15.5t-34 3.5q-28 0 -94 -2v65q68 12 107 12q57 0 85 -15.5t28 -60.5q0 -35 -8 -51.5t-38 -29.5l-11 -5q-18 -7 -28.5 -12.5t-12.5 -10t-2 -17.5h-74v23z" />
    <glyph glyph-name="uni1EAA.ss01" horiz-adv-x="426" 
d="M267 203h-108v-203h-120v385q0 137 9 196.5t45 87t120 27.5t120 -27.5t45 -87t9 -196.5v-385h-120v203zM264 538.5q-3 29.5 -13.5 39t-37.5 9.5t-37.5 -9.5t-13.5 -39t-3 -106.5v-120h108v120q0 77 -3 106.5zM86 729v7l67 120h115l68 -120v-7h-79l-47 71l-45 -71h-79z
M345.5 956.5q-3.5 -24.5 -18 -38t-44.5 -13.5q-27 0 -76 17q-7 2 -21.5 7.5t-24.5 5.5q-11 0 -13.5 -8.5t-2.5 -32.5h-69q0 47 4 71.5t18 38t45 13.5q29 0 76 -17q4 -1 19.5 -6.5t26.5 -5.5q10 0 12.5 8.5t2.5 32.5h69q0 -48 -3.5 -72.5z" />
    <glyph glyph-name="uni0200.ss01" horiz-adv-x="426" 
d="M267 203h-108v-203h-120v385q0 137 9 196.5t45 87t120 27.5t120 -27.5t45 -87t9 -196.5v-385h-120v203zM264 538.5q-3 29.5 -13.5 39t-37.5 9.5t-37.5 -9.5t-13.5 -39t-3 -106.5v-120h108v120q0 77 -3 106.5zM189 757h-77l-44 112v5h92l29 -113v-4zM312 757h-76l-45 112
v5h93l28 -113v-4z" />
    <glyph glyph-name="Adieresis.ss01" horiz-adv-x="426" 
d="M267 203h-108v-203h-120v385q0 137 9 196.5t45 87t120 27.5t120 -27.5t45 -87t9 -196.5v-385h-120v203zM264 538.5q-3 29.5 -13.5 39t-37.5 9.5t-37.5 -9.5t-13.5 -39t-3 -106.5v-120h108v120q0 77 -3 106.5zM86 775v97h99v-97h-99zM251 775v97h99v-97h-99z" />
    <glyph glyph-name="uni1EA0.ss01" horiz-adv-x="426" 
d="M267 203h-108v-203h-120v385q0 137 9 196.5t45 87t120 27.5t120 -27.5t45 -87t9 -196.5v-385h-120v203zM264 538.5q-3 29.5 -13.5 39t-37.5 9.5t-37.5 -9.5t-13.5 -39t-3 -106.5v-120h108v120q0 77 -3 106.5zM151 -183v121h124v-121h-124z" />
    <glyph glyph-name="Agrave.ss01" horiz-adv-x="426" 
d="M267 203h-108v-203h-120v385q0 137 9 196.5t45 87t120 27.5t120 -27.5t45 -87t9 -196.5v-385h-120v203zM264 538.5q-3 29.5 -13.5 39t-37.5 9.5t-37.5 -9.5t-13.5 -39t-3 -106.5v-120h108v120q0 77 -3 106.5zM176 750l-55 140v5h111l36 -140v-5h-92z" />
    <glyph glyph-name="uni1EA2.ss01" horiz-adv-x="426" 
d="M267 203h-108v-203h-120v385q0 137 9 196.5t45 87t120 27.5t120 -27.5t45 -87t9 -196.5v-385h-120v203zM264 538.5q-3 29.5 -13.5 39t-37.5 9.5t-37.5 -9.5t-13.5 -39t-3 -106.5v-120h108v120q0 77 -3 106.5zM149 755q0 21 7.5 31.5t26.5 16.5l10 3q28 10 37 16t9 19
q0 12 -8 15.5t-34 3.5q-28 0 -94 -2v65q68 12 107 12q57 0 85 -15.5t28 -60.5q0 -35 -8 -51.5t-38 -29.5l-11 -5q-23 -9 -31 -13.5t-10 -9.5t-2 -17h-74v22z" />
    </font>
</defs>
</svg>
